<?xml version="1.0" encoding="utf-8"?>
<!-- Generator: Adobe Illustrator 23.1.1, SVG Export Plug-In . SVG Version: 6.00 Build 0)  -->
<svg version="1.1" id="レイヤー_1" xmlns="http://www.w3.org/2000/svg" xmlns:xlink="http://www.w3.org/1999/xlink" x="0px"
	 y="0px" viewBox="0 0 841.9 595.3" style="enable-background:new 0 0 841.9 595.3;" xml:space="preserve">
<style type="text/css">
	.st0{opacity:0.4;}
	.st1{fill:#B15E52;}
	.st2{fill:#994D3F;}
	.st3{fill:#604D3F;}
	.st4{opacity:0.5;}
	.st5{fill:#DFDBD9;}
</style>
<g>
	<g class="st0">
		
			<image style="overflow:visible;enable-background:new    ;" width="1708" height="546" xlink:href="D89059DAAC34BE5E.png"  transform="matrix(0.2396 0 0 0.2396 34.1247 65.8129)">
		</image>
	</g>
	<path class="st1" d="M44.3,131.7c4.2-1,7.8-4.3,10.7-7.2c0.4-0.4-0.2-0.7-0.5-0.8c-6.6-1.5-11.6-6.6-10.4-13.3
		c4,4.8,8.9,5.2,15.8,4.6c2.6-0.2,4.7-1.3,7.2-1.2c2.9,0.1,2,0.4,2.3,2.8c0.1,1.1,0.4,2.4,0.7,3.5c1.2,4.3,3.9,6,7.4,7.8
		c-4.1,0.1-8,2.2-11.6,3.9C58.5,135.3,51.6,134.2,44.3,131.7z"/>
	<path class="st2" d="M69.4,142.5c-0.4-3.4-1.8-6.6-3.9-9.3c0.4-0.2,0.8-0.3,1.2-0.5c3.6-1.7,17-7.9,15.5,0.7
		c-0.8,4.7-4.2,7.6-7.2,11c-1.5,1.2-4.6,4.5-5.4,7.4C68.9,148.9,69.7,144.9,69.4,142.5z"/>
	<path class="st1" d="M397.3,134.9c-6.5,2.2-13.1,4.5-19.8,6.3c-13.6,3.6-27.7,4.6-41.6,6.2c-29.5,3.4-58.7-6.8-86.8-14.1
		c-45.9-12-93-9.1-137.7,6.6c-9.5,3.3-18.9,7-28.1,11.3c-2.2,1.1-8.1,5-10.9,4.1c-0.1,0-0.2-0.1-0.3-0.1c-0.3-0.2-0.6-0.4-0.8-0.7
		c-1.8-2.6,3-8.1,4.7-9.5c4.6-2.7,13.2-14.7,4.2-16.8c-0.2,0-0.3-0.1-0.5-0.1c-2.3-1.3-4.9-2.4-6.5-4.5
		c15.7-3.4,30.4-10.2,45.7-15.1c24.2-7.7,49.4-12.2,74.9-11.8c21.7,0.3,42,5.2,63,10.4c24.2,5.9,48.4,10.7,73.4,11
		c24.6,0.3,48.7-2.8,71.1-13.3c-7.4,8.6-15.3,16.9-25.6,22c-0.9,0.4,0.5,0.9,1.1,0.8c6.9,1.1,14.3,1.3,21.2,1.1
		c5.2-0.1,10.9-0.2,16-1.5C409,130.7,403.1,133,397.3,134.9z"/>
	<g>
		<g>
			<g>
				<path class="st3" d="M75.2,144.4c-2.4,1.8-4.4,4.4-5.2,7.3c-0.6,2.2-0.1,4.4,2.5,4.7c3.3,0.4,6.6-1.8,9.4-3.2
					c3-1.5,6.2-2.9,9.3-4.2c23.9-10.2,49.1-18.1,74.9-21c24.2-2.7,49.6-1.8,73.4,3.9c14.4,3.5,28.6,7.8,43.1,11.2
					c7.2,1.7,14.6,3.3,21.9,4.4c7.1,1.1,14.4,1.9,21.6,1.8c7.4-0.2,14.7-1.3,22-2.1c7.5-0.8,15.1-1.6,22.5-3.1
					c7-1.4,13.9-3.5,20.7-5.8c6.6-2.2,13.1-4.5,19.4-7.5c2.8-1.3,5.4-3,7.7-5.1c0.6-0.6-1-0.9-1.5-0.5c-2.6,2.3-5.6,4.2-8.8,5.5
					c-3.1,1.2-6.1,2.7-9.2,3.9c-6.6,2.3-13.2,4.6-20,6.4c-14.1,3.9-28.7,4.9-43.2,6.6c-7.5,0.9-14.9,0.9-22.4,0.1
					c-7.1-0.7-14.1-1.9-21.1-3.4c-14.3-3-28.2-7.1-42.3-10.8c-10.3-2.7-20.5-5-31-6.2c-12.3-1.5-24.8-1.9-37.2-1.4
					c-14,0.6-27.9,2.4-41.6,5.6c-12.2,2.9-24.2,6.8-35.9,11.2c-7.7,2.9-15.4,6-22.8,9.6c-1.4,0.7-2.7,1.4-4.1,2
					c-1.3,0.6-3.7,1.8-5.1,0.9c-2.1-1.4,0.2-5.4,1.1-6.9c0.8-1.3,1.8-2.5,3.1-3.5C76.5,144.4,75.4,144.2,75.2,144.4L75.2,144.4z"/>
			</g>
		</g>
		<g>
			<g>
				<path class="st3" d="M73.1,123.5c3.8-0.8,7.6-1.6,11.3-2.8c2.8-0.9,5.5-2,8.3-3c8.9-3.4,17.9-6.7,27.1-9.5
					c23.2-7.3,47.4-11.6,71.8-11.6c10.3,0,20.6,0.8,30.8,2.5c10.4,1.7,20.5,4.4,30.7,7c24.5,6.1,49.2,11.4,74.6,11.9
					c23.3,0.5,46.8-1.6,68.4-10.8c2.7-1.2,5.4-2.4,8-3.8c0.9-0.5-0.7-1-1.2-0.7c-10.9,5.6-22.6,9.4-34.6,11.7
					c-11.5,2.1-23.3,2.8-35,2.7c-12.5-0.1-25-1-37.4-2.9c-12.6-2-25-4.8-37.4-7.8c-10.6-2.6-21.1-5.6-31.8-7.5
					c-9.7-1.8-19.5-2.8-29.3-3.1c-23.6-0.7-47.3,2.6-70,9.1c-10.1,2.9-20,6.3-29.8,9.9c-5.7,2.1-11.3,4.6-17.2,6.1
					c-2.6,0.7-5.2,1.4-7.8,2.1C71.9,123.1,72.6,123.6,73.1,123.5L73.1,123.5z"/>
			</g>
		</g>
		<g>
			<g>
				<path class="st3" d="M76,144.9c2.6-1.5,4.9-4.4,6.3-7c1.1-1.9,2.2-4.6,1.8-6.9c-0.1-0.9-0.9-1.6-1.6-2
					c-3.6-2.1-8.5-0.9-12.1,0.6c-3.5,1.5-6.7,3.6-10.5,4.4c-5.9,1.1-12-0.8-17.5-2.9c-0.7-0.3-1.9,0.5-0.9,0.9
					c4.9,1.9,10.1,3.5,15.4,3.4c3.4-0.1,6.5-1,9.5-2.5c4-1.9,8.2-4.6,12.8-3.8c1,0.2,2.4,0.5,2.9,1.5c0.3,0.5,0.2,1.2,0.2,1.8
					c-0.1,1.2-0.4,2.5-0.9,3.6c-1.4,3.4-4.1,5.8-6.5,8.5C74.6,144.9,75.7,145,76,144.9L76,144.9z"/>
			</g>
		</g>
		<g>
			<g>
				<path class="st3" d="M402.9,102.9c-0.3,0.6-0.8,0.8-1.3,1.2c-0.5,0.4-0.7,1-1.1,1.6c-0.8,1.1-1.6,2.2-2.4,3.2
					c-2,2.4-4.2,4.6-6.6,6.6c-2.4,2-4.9,3.8-7.3,5.8c-1.4,1.1-2.7,2.2-4.1,3.2c-1.4,0.9-2.9,1.6-4.3,2.3c-0.9,0.5,0.7,1,1.2,0.7
					c1.5-0.8,3.1-1.5,4.5-2.4c1.3-0.9,2.5-2,3.8-3c2.6-2.1,5.3-4,7.9-6.2c2.4-2.1,4.6-4.3,6.6-6.8c0.8-1,1.6-2,2.3-3.1
					c0.5-0.7,0.8-1.2,1.4-1.8c0.4-0.3,0.6-0.6,0.5-1.2C404,102.5,403.1,102.6,402.9,102.9L402.9,102.9z"/>
			</g>
		</g>
		<g>
			<g>
				<path class="st3" d="M376.1,127.4c1.3,0.4,2.8,0.4,4.2,0.5c1.7,0.1,3.5,0.3,5.2,0.4c3.4,0.2,6.8,0.4,10.3,0.4
					c3.9,0,7.8-0.6,11.8-0.6c1.9,0,3.6-0.5,5.4-0.7c1.9-0.2,3.5-0.8,5.1-1.5c1-0.5-0.2-1.2-0.9-0.9c-0.9,0.4-1.8,0.8-2.7,1.1
					c-0.9,0.3-1.8,0.3-2.8,0.4c-1,0.1-1.9,0.4-2.8,0.6c-0.9,0.1-1.9,0-2.8,0c-1.7,0-3.4,0.2-5.2,0.4c-2,0.2-4,0.2-5.9,0.2
					c-3.2,0-6.4-0.2-9.6-0.4c-1.6-0.1-3.2-0.2-4.8-0.3c-1.4-0.1-3-0.3-4.4-0.2C375.8,126.9,375.6,127.3,376.1,127.4L376.1,127.4z"/>
			</g>
		</g>
		<g>
			<g>
				<path class="st3" d="M64,133.3c1.6,1.9,2.7,4.4,3.3,6.9c0.5,1.7,0.4,3.4,0.4,5.1c0,4-0.9,9.7,4.1,10.9c0.9,0.2,1.6-0.7,0.5-1
					c-2.2-0.5-2.7-2.8-2.8-4.8c-0.1-2.2,0-4.5-0.1-6.8c0-3.8-1.7-7.8-4.1-10.7C65,132.5,63.5,132.7,64,133.3L64,133.3z"/>
			</g>
		</g>
		<g>
			<g>
				<path class="st3" d="M80.6,128.5c-2.7-1.6-6.2-2.7-7.8-5.6c-0.8-1.3-1.1-2.8-1.3-4.3c-0.2-0.9-0.3-1.8-0.4-2.8
					c-0.1-1,0.1-1.9-0.1-2.9c0-0.2-0.2-0.4-0.4-0.4c-2.6-0.7-5.3,0-7.8,0.8c-1.8,0.6-3.5,0.7-5.3,0.7c-1.6,0-3.2,0.3-4.8,0.2
					c-2.2-0.2-4.2-1.2-5.8-2.7c-0.5-0.4-0.9-0.9-1.2-1.4c-0.5-0.6-0.7-1.3-1.2-1.9c-0.3-0.4-1.4-0.4-1.6,0.1
					c-1.7,4.2-0.5,9.5,3,12.4c2.3,1.9,5.3,3.3,8.2,4c-0.2-0.2-0.3-0.5-0.5-0.8c-1.2,1.2-2.5,2.4-3.8,3.4c-2.1,1.7-4.9,3.7-7.7,3.6
					c-1.1-0.1-1,1,0,1c3.1,0.2,6-1.7,8.4-3.4c1.6-1.2,3.2-2.6,4.6-4.1c0.4-0.4-0.2-0.7-0.5-0.8c-2.3-0.5-5.2-1.8-7.2-3.5
					c-3.2-2.7-4.4-7.7-2.8-11.6c-0.5,0-1.1,0.1-1.6,0.1c0.5,0.6,0.7,1.3,1.2,1.9c0.4,0.6,0.9,1.1,1.4,1.6c1.5,1.4,3.3,2.4,5.3,2.9
					c1.2,0.3,2.5,0.3,3.7,0.2c1.9-0.2,3.8-0.1,5.7-0.2c3.2-0.3,6.2-2.4,9.4-1.6c-0.1-0.2-0.3-0.3-0.4-0.4c0.1,1,0,1.9,0.1,2.9
					c0.1,1.1,0.3,2.2,0.5,3.2c0.3,1.5,0.7,3.1,1.6,4.4c1.9,2.9,5.4,4,8.3,5.6C80.1,129.2,81.2,128.8,80.6,128.5L80.6,128.5z"/>
			</g>
		</g>
	</g>
	<g>
		<g>
			<g>
				<path class="st3" d="M78.9,129c1.1-0.3,1.4,2.3,1.4,2.9c0.1,0.9,0.2,1.8-0.2,2.7c-0.4,1.1-1.2,1.9-1.9,2.8
					c-0.2,0.2,0.3,0.3,0.5,0.2c0.9-0.9,1.8-2,2.1-3.3c0.3-0.9,0.1-1.9,0-2.9c-0.2-1-0.7-3.3-2.2-2.7C78.3,128.9,78.7,129,78.9,129
					L78.9,129z"/>
			</g>
		</g>
		<g>
			<g>
				<path class="st3" d="M77.5,129c0.3,0.1,0.4,0.6,0.5,0.9c0.1,0.4,0.2,0.8,0.3,1.1c0.2,1.1-0.2,2.1-0.7,3.1
					c-0.1,0.2,0.4,0.3,0.6,0.1c0.3-0.5,0.5-1.1,0.7-1.7c0.1-0.6,0.1-1.2,0-1.9c-0.2-0.7-0.3-1.8-1.1-2
					C77.3,128.6,77.1,128.9,77.5,129L77.5,129z"/>
			</g>
		</g>
		<g>
			<g>
				<path class="st3" d="M76.1,128.9c0,0.5,0,0.9-0.2,1.4c-0.1,0.5-0.3,0.9-0.6,1.3c-0.1,0.1,0.1,0.2,0.2,0.2c0.1,0,0.3,0,0.3-0.1
					c0.2-0.4,0.5-0.9,0.6-1.3c0.1-0.5,0.2-1,0.2-1.4C76.6,128.6,76,128.6,76.1,128.9L76.1,128.9z"/>
			</g>
		</g>
		<g>
			<g>
				<path class="st3" d="M74.4,128.5c-0.1,0.3-0.2,0.6-0.3,0.9c-0.1,0.3-0.3,0.5-0.6,0.7c-0.1,0.1,0,0.2,0.1,0.2
					c0.1,0,0.3,0,0.4-0.1c0.3-0.2,0.5-0.5,0.6-0.8c0.2-0.3,0.2-0.6,0.3-0.9c0-0.1-0.1-0.2-0.2-0.2C74.7,128.4,74.4,128.4,74.4,128.5
					L74.4,128.5z"/>
			</g>
		</g>
		<g>
			<g>
				<path class="st3" d="M69,150.7c0-1.3,0.3-2.5,1-3.6c0.7-1.1,1.5-2,2.3-3c0.2-0.2-0.3-0.3-0.4-0.1c-1.6,1.8-3.7,4.1-3.4,6.7
					C68.5,150.9,69,150.9,69,150.7L69,150.7z"/>
			</g>
		</g>
		<g>
			<g>
				<path class="st3" d="M69.2,145.4c0.1-0.4,0.2-0.7,0.5-0.9c0.2-0.3,0.5-0.6,0.7-0.9c0.5-0.6,1.1-1.2,1.7-1.8
					c0.1-0.1,0-0.2-0.1-0.2c-0.1,0-0.3,0-0.4,0.1c-0.6,0.6-1.2,1.2-1.8,1.9c-0.5,0.6-1,1.1-1.1,1.9
					C68.6,145.6,69.1,145.6,69.2,145.4L69.2,145.4z"/>
			</g>
		</g>
		<g>
			<g>
				<path class="st3" d="M69,142.5c0.4-0.6,0.8-1.2,1.3-1.8c0.1-0.1,0-0.2-0.1-0.2c-0.1,0-0.3,0-0.4,0.1c-0.5,0.6-1,1.2-1.4,1.9
					c-0.1,0.1,0.1,0.2,0.2,0.2C68.8,142.7,69,142.6,69,142.5L69,142.5z"/>
			</g>
		</g>
		<g>
			<g>
				<path class="st3" d="M68.2,138.8c0.7-0.8,1.3-1.6,1.8-2.5c0.1-0.1-0.1-0.2-0.2-0.2c-0.1,0-0.3,0-0.3,0.1
					c-0.6,0.8-1.1,1.6-1.8,2.4c-0.1,0.1,0,0.2,0.1,0.2C68,138.9,68.2,138.9,68.2,138.8L68.2,138.8z"/>
			</g>
		</g>
		<g>
			<g>
				<path class="st3" d="M67.6,136.8c0.8-0.7,1.6-1.6,2.3-2.4c0.2-0.2,0.3-0.5,0.5-0.7c0.1-0.2,0.3-0.5,0.6-0.6c0.1,0,0.1-0.2,0-0.2
					c-0.7-0.2-1.1,0.8-1.4,1.2c-0.7,0.9-1.6,1.7-2.3,2.6C67.1,136.9,67.5,136.9,67.6,136.8L67.6,136.8z"/>
			</g>
		</g>
		<g>
			<g>
				<path class="st3" d="M66.6,135.3c0.4-0.2,0.7-0.6,1.1-0.9c0.3-0.3,0.6-0.7,0.9-1.1c0.3-0.3,0.5-0.7,0.8-1.1
					c0.2-0.4,0.5-0.8,0.8-1c0.1-0.1,0-0.2-0.1-0.2c-0.1-0.1-0.3,0-0.4,0.1c-0.3,0.3-0.5,0.6-0.8,1c-0.2,0.4-0.5,0.8-0.8,1.1
					c-0.3,0.4-0.6,0.7-0.9,1.1c-0.2,0.2-0.3,0.3-0.5,0.5s-0.4,0.3-0.5,0.5C66.2,135.3,66.6,135.4,66.6,135.3L66.6,135.3z"/>
			</g>
		</g>
		<g>
			<g>
				<path class="st3" d="M67.5,132.3c-0.4,0.4-0.8,0.7-1.3,1c-0.2,0.1-0.4,0.3-0.6,0.4c-0.2,0.1-0.5,0.2-0.6,0.4
					c0,0.2,0.3,0.2,0.4,0.1c0.1,0,0.2-0.1,0.3-0.2c0.1-0.1,0.2-0.1,0.3-0.2c0.2-0.1,0.4-0.3,0.7-0.5c0.4-0.3,0.8-0.7,1.3-1
					c0.1-0.1,0-0.2-0.1-0.2C67.7,132.2,67.6,132.2,67.5,132.3L67.5,132.3z"/>
			</g>
		</g>
		<g>
			<g>
				<path class="st3" d="M72.8,136.2c-0.3,0.3-0.6,0.6-0.9,0.9c-0.1,0.1,0,0.2,0.1,0.2c0.1,0,0.3,0,0.4-0.1c0.3-0.3,0.6-0.6,0.9-0.9
					c0.1-0.1,0-0.2-0.1-0.2C73,136.1,72.9,136.1,72.8,136.2L72.8,136.2z"/>
			</g>
		</g>
		<g>
			<g>
				<path class="st3" d="M75.7,135.6c-0.2,0.7-0.8,1.2-1.3,1.8c-0.7,0.7-1.3,1.5-2.1,2.1c-0.1,0.1,0,0.2,0.1,0.2
					c0.1,0.1,0.3,0,0.4-0.1c0.8-0.6,1.5-1.4,2.2-2.2c0.3-0.3,0.5-0.6,0.8-0.9c0.2-0.2,0.5-0.6,0.5-1
					C76.1,135.5,75.7,135.5,75.7,135.6L75.7,135.6z"/>
			</g>
		</g>
		<g>
			<g>
				<path class="st3" d="M74.1,141.5c-0.2,0.1-0.3,0.2-0.5,0.3c0,0-0.1,0.1-0.1,0.1c0,0,0,0.1,0.1,0.1c0.1,0,0.1,0,0.2,0
					s0.1,0,0.2,0c0.2-0.1,0.3-0.2,0.4-0.3c0,0,0.1-0.1,0.1-0.1c0,0,0-0.1-0.1-0.1c-0.1,0-0.1,0-0.2,0
					C74.2,141.5,74.1,141.5,74.1,141.5L74.1,141.5z"/>
			</g>
		</g>
		<g>
			<g>
				<path class="st3" d="M67.2,114.1c-0.1,0-0.1,0-0.2,0c-0.1,0-0.2,0-0.2,0.1c-0.2,0.4-0.1,0.9-0.1,1.4c0,0.5,0,1,0.1,1.5
					c0.1,1.1,0.4,2.2,0.6,3.3c0.1,0.2,0.6,0.2,0.6,0c-0.2-1.1-0.5-2.1-0.7-3.2c-0.1-0.5-0.1-1-0.1-1.5c0-0.5-0.1-0.9,0-1.4
					c-0.1,0-0.1,0.1-0.2,0.1c0.1,0,0.1,0,0.2,0C67.5,114.3,67.4,114,67.2,114.1L67.2,114.1z"/>
			</g>
		</g>
		<g>
			<g>
				<path class="st3" d="M68.8,123.1c0.4,1.2,1.3,2.1,2.2,3c0.4,0.4,0.9,0.9,1.4,1.2c0.5,0.4,1.1,0.6,1.6,1.1c0.2,0.1,0.7,0,0.5-0.2
					c-0.4-0.4-1-0.7-1.5-1c-0.6-0.3-1-0.8-1.5-1.2c-0.9-0.9-1.8-1.8-2.3-3C69.1,122.9,68.8,122.9,68.8,123.1L68.8,123.1z"/>
			</g>
		</g>
		<g>
			<g>
				<path class="st3" d="M64.7,121.3c0.6,1.6,1.2,3.3,2.1,4.8c0.4,0.7,0.9,1.4,1.4,2c0.3,0.3,0.5,0.6,0.9,0.8
					c0.4,0.2,0.8,0.3,1.2,0.4c0.1,0,0.4-0.1,0.2-0.2c-0.3-0.2-0.7-0.3-1.1-0.5c-0.4-0.2-0.7-0.5-0.9-0.8c-0.6-0.6-1-1.3-1.4-2.1
					c-0.8-1.4-1.4-3-1.9-4.5C65,121.1,64.7,121.1,64.7,121.3L64.7,121.3z"/>
			</g>
		</g>
		<g>
			<g>
				<path class="st3" d="M62.1,113.7c-0.5,2.5,0.2,5.1,0.7,7.5c0,0.2,0.6,0.2,0.6,0c-0.5-2.5-1.1-4.9-0.7-7.5
					C62.7,113.5,62.2,113.5,62.1,113.7L62.1,113.7z"/>
			</g>
		</g>
		<g>
			<g>
				<path class="st3" d="M59.4,114.9c-0.1,1.5,0.1,3.1,0.4,4.5c0,0.2,0.6,0.2,0.5,0c-0.3-1.5-0.5-3-0.5-4.5
					C59.9,114.7,59.5,114.7,59.4,114.9L59.4,114.9z"/>
			</g>
		</g>
		<g>
			<g>
				<path class="st3" d="M55.8,115.3c0,0.3,0,0.6,0,0.9s0,0.6,0,0.9c0,0.2,0.6,0.2,0.6,0c0-0.3,0-0.6,0-0.9s0-0.6,0-0.9
					C56.3,115.1,55.8,115.1,55.8,115.3L55.8,115.3z"/>
			</g>
		</g>
		<g>
			<g>
				<path class="st3" d="M60.3,125.8c0.4,1.5,1.2,2.9,1.8,4.3c0.1,0.2,0.5,0.1,0.5-0.1c-0.6-1.5-1.4-2.8-1.8-4.3
					C60.8,125.6,60.3,125.6,60.3,125.8L60.3,125.8z"/>
			</g>
		</g>
		<g>
			<g>
				<path class="st3" d="M81,137.6c0.6,1.7,1.2,3.3,1.9,5c0.3,0.8,0.7,1.6,1,2.4c0.2,0.4,0.3,0.8,0.5,1.2c0.2,0.4,0.3,0.8,0.5,1.1
					c0.1,0.1,0.4,0.1,0.4,0c0-0.4-0.2-0.7-0.3-1c-0.2-0.4-0.3-0.8-0.5-1.2c-0.4-0.9-0.7-1.7-1.1-2.5c-0.7-1.7-1.4-3.3-2-5
					C81.4,137.4,80.9,137.4,81,137.6L81,137.6z"/>
			</g>
		</g>
		<g>
			<g>
				<path class="st3" d="M75.6,144.7c1,2.4,2,4.9,3.2,7.3c0.1,0.2,0.6,0.1,0.5-0.1c-1.1-2.4-2.2-4.8-3.2-7.3
					C76,144.4,75.5,144.5,75.6,144.7L75.6,144.7z"/>
			</g>
		</g>
		<g>
			<g>
				<path class="st3" d="M72.9,147.6c0.6,1.2,1.1,2.3,1.7,3.5c0.2,0.4,0.4,0.9,0.7,1.3c0.1,0.2,0.2,0.4,0.3,0.5
					c0.1,0.2,0.1,0.4,0.2,0.5c0.1,0.1,0.3,0.1,0.4,0c0.2-0.3-0.1-0.8-0.2-1c-0.2-0.4-0.5-0.9-0.7-1.3c-0.6-1.2-1.2-2.4-1.8-3.6
					C73.2,147.4,72.8,147.4,72.9,147.6L72.9,147.6z"/>
			</g>
		</g>
		<g>
			<g>
				<path class="st3" d="M71.4,149.2c0.4,1.1,0.8,2.1,1.3,3.2c0.2,0.5,0.4,1,0.6,1.5c0.2,0.4,0.4,0.9,0.4,1.4c0,0.2,0.5,0.2,0.5,0
					c0.1-0.5-0.1-0.9-0.3-1.3c-0.2-0.5-0.4-1-0.7-1.6c-0.4-1.1-0.9-2.2-1.3-3.3C71.9,148.9,71.3,149,71.4,149.2L71.4,149.2z"/>
			</g>
		</g>
		<g>
			<g>
				<path class="st3" d="M70.3,151.5c0.4,1.3,0.9,2.7,1.6,3.9c0.1,0.2,0.7,0.1,0.6-0.1c-0.7-1.2-1.2-2.5-1.6-3.9
					C70.8,151.2,70.2,151.2,70.3,151.5L70.3,151.5z"/>
			</g>
		</g>
		<g>
			<g>
				<path class="st3" d="M364.1,140.1c0,0.7,0.1,1.4,0.3,2.1c0,0.1,0.4,0.1,0.4-0.1c-0.1-0.7-0.2-1.3-0.2-2
					C364.5,139.9,364.1,139.9,364.1,140.1L364.1,140.1z"/>
			</g>
		</g>
		<g>
			<g>
				<path class="st3" d="M364.3,133.3c0.6,2.9,1.2,5.7,1.6,8.6c0,0.2,0.5,0.2,0.5,0c-0.4-2.9-1-5.8-1.6-8.6
					C364.7,133.1,364.3,133.1,364.3,133.3L364.3,133.3z"/>
			</g>
		</g>
		<g>
			<g>
				<path class="st3" d="M366.6,127.8c0.7,2.7,1.5,5.4,2.2,8.1c0.4,1.3,0.7,2.6,1.1,3.9c0.3,0.9,0.4,2.2,1,2.8
					c0.1,0.1,0.4,0.1,0.3-0.1c-0.4-0.9-0.6-1.9-0.9-2.8c-0.4-1.3-0.8-2.7-1.2-4c-0.8-2.6-1.5-5.3-2.2-7.9
					C367,127.6,366.6,127.7,366.6,127.8L366.6,127.8z"/>
			</g>
		</g>
		<g>
			<g>
				<path class="st3" d="M382.2,113.7c0.2,1.6,0.5,3.2,0.9,4.8c0,0.2,0.6,0.2,0.5-0.1c-0.4-1.6-0.7-3.1-0.9-4.7
					C382.7,113.5,382.2,113.5,382.2,113.7L382.2,113.7z"/>
			</g>
		</g>
		<g>
			<g>
				<path class="st3" d="M386.3,110.4c0.4,1.5,0.6,3,0.9,4.5c0,0.2,0.6,0.2,0.6,0c-0.3-1.5-0.5-3.1-0.9-4.6
					C386.8,110.1,386.2,110.1,386.3,110.4L386.3,110.4z"/>
			</g>
		</g>
		<g>
			<g>
				<path class="st3" d="M392.7,108.3c0,1.3,0.2,2.6,0.4,3.9c0,0.2,0.5,0.2,0.5,0c-0.2-1.3-0.4-2.6-0.5-3.9
					C393.2,108.1,392.7,108.1,392.7,108.3L392.7,108.3z"/>
			</g>
		</g>
		<g>
			<g>
				<path class="st3" d="M393.6,107.4c0,1.2,0.2,2.4,0.2,3.6c0,0.2,0.6,0.2,0.6,0c-0.1-1.2-0.2-2.4-0.2-3.6
					C394.1,107.1,393.6,107.2,393.6,107.4L393.6,107.4z"/>
			</g>
		</g>
		<g>
			<g>
				<path class="st3" d="M395.6,106.9c0,0.8,0,1.7,0,2.5c0,0.2,0.6,0.2,0.6,0c0-0.8,0-1.7,0-2.5
					C396.2,106.7,395.6,106.7,395.6,106.9L395.6,106.9z"/>
			</g>
		</g>
		<g>
			<g>
				<path class="st3" d="M397.4,106c0,0.5,0,0.9,0,1.4c0,0.2,0,0.5,0,0.7c0,0.2,0,0.5,0.1,0.7c0.1,0.1,0.3,0.1,0.3,0
					c0.1-0.2,0.1-0.4,0.1-0.7c0-0.2,0-0.5,0-0.7c0-0.5,0-0.9,0-1.4C398,105.8,397.4,105.8,397.4,106L397.4,106z"/>
			</g>
		</g>
		<g>
			<g>
				<path class="st3" d="M403.4,128c0.2,1.1,0.4,2.3,0.4,3.4c0,0.2,0.5,0.2,0.5,0c0-1.1-0.3-2.3-0.5-3.4
					C403.8,127.9,403.4,127.9,403.4,128L403.4,128z"/>
			</g>
		</g>
		<g>
			<g>
				<path class="st3" d="M405.4,128.3c0,1,0,2,0,2.9c0,0.2,0.6,0.2,0.6,0c0-1,0-2,0-2.9C405.9,128.1,405.4,128.1,405.4,128.3
					L405.4,128.3z"/>
			</g>
		</g>
		<g>
			<g>
				<path class="st3" d="M406.5,128c0,0.6,0.3,1.2,0.2,1.8c0,0.1,0.2,0.2,0.3,0.2c0.1,0,0.3,0,0.3-0.2c0.1-0.6-0.2-1.2-0.2-1.8
					c0-0.1-0.2-0.2-0.3-0.2C406.7,127.9,406.5,127.9,406.5,128L406.5,128z"/>
			</g>
		</g>
		<g>
			<g>
				<path class="st3" d="M410.1,128c0,0.3,0,0.6,0,0.9c0,0.1,0,0.1,0.1,0.1c0.1,0,0.1,0.1,0.2,0.1c0.1,0,0.1,0,0.2-0.1
					c0,0,0.1-0.1,0.1-0.1c0-0.3,0-0.6,0-0.9c0-0.1,0-0.1-0.1-0.1c-0.1,0-0.1-0.1-0.2-0.1c-0.1,0-0.1,0-0.2,0.1
					C410.2,127.9,410.1,128,410.1,128L410.1,128z"/>
			</g>
		</g>
		<g>
			<g>
				<path class="st3" d="M398.4,128.9c0.1,1.1,0.3,2.1,0.5,3.2c0,0.2,0.6,0.2,0.5,0c-0.1-1.1-0.3-2.1-0.5-3.2
					C398.8,128.7,398.3,128.7,398.4,128.9L398.4,128.9z"/>
			</g>
		</g>
		<g>
			<g>
				<path class="st3" d="M388.9,128.7c0.4,2,0.8,3.9,1.1,5.9c0,0.2,0.5,0.2,0.5,0c-0.3-2-0.7-4-1.2-5.9
					C389.2,128.5,388.8,128.6,388.9,128.7L388.9,128.7z"/>
			</g>
		</g>
		<g>
			<g>
				<path class="st3" d="M369.6,114.2c0.9,5.1,2.2,10.1,3.1,15.2c0,0.2,0.5,0.2,0.5,0c-1-5.1-2.2-10.1-3.2-15.2
					C369.9,114,369.5,114,369.6,114.2L369.6,114.2z"/>
			</g>
		</g>
	</g>
	<g class="st4">
		<path class="st3" d="M104.8,135.9l-0.5-1.3l-0.1,0.1l-0.1,0.4l0,0c-0.1,0.4-0.2,0.7-0.3,0.9c-0.1,0.2-0.2,0.4-0.3,0.6
			c-0.1,0.1-0.2,0.2-0.4,0.3c-0.1,0.1-0.3,0.2-0.4,0.2c-0.3,0.1-0.7,0.1-1.1-0.1c-0.3-0.2-0.6-0.4-0.8-0.7c-0.2-0.2-0.5-0.6-0.8-1.1
			s-0.5-1.1-0.7-1.9c-0.2-0.8-0.2-1.7-0.1-2.7c0,0,0,0,0,0c0.4-0.9,0.8-1.6,1.4-2c0.5-0.4,0.9-0.8,1.3-1.2l0,0l0.2-0.3
			c-0.1-0.3-0.3-0.6-0.5-0.8l-0.2,0c-0.6,0.2-1.3,0.3-2.3,0.3c-1,0-2-0.3-3-0.8c-0.1,0-0.1-0.1-0.1-0.1c0-0.1,0-0.1,0-0.1
			c0-0.3,0.4-0.4,1.2-0.4c0.7,0.1,1.3,0,1.9-0.1c0.5-0.1,1.2-0.2,2-0.5v-0.1l-0.4-1l-0.1-0.2c-0.5-0.2-0.9-0.4-1-0.6
			c-0.1-0.1-0.2-0.4-0.2-0.9c0,0,0-0.1,0-0.1l0.2-0.3c0,0,0.1-0.1,0.1-0.1c0.3-0.1,0.6-0.3,0.9-0.5c0.1-0.1,0.1-0.1,0.2,0l0.5,0.2
			c0,0,0.1,0,0.1,0.1c0.2,0.3,0.3,0.5,0.5,0.7l0.2,0.2l0.1,0c0.4-0.2,0.7-0.3,0.9-0.3c0,0,0,0,0,0c0.4,0,0.7,0,0.9,0.2
			c0.2,0.2,0.3,0.4,0.3,0.7c0,0.3-0.2,0.9-0.5,1.8l0,0l-0.2,0.3l-0.1,0.3l0,0c0,0.3,0,0.5,0,0.8l0.2,0.6c0.2-0.2,0.4-0.4,0.6-0.6
			c0.3-0.2,0.6-0.4,0.9-0.6s0.7-0.3,1-0.4c0.3-0.1,0.7-0.1,1-0.1c0.3,0,0.7,0,1.1,0.1c0.4,0.1,0.9,0.2,1.5,0.5
			c0.6,0.2,1.2,0.7,1.8,1.3c0.6,0.6,0.9,1.1,1,1.5c0.1,0.4,0.2,0.9,0.2,1.6c0.1,0.7-0.1,1.4-0.5,2.3c-0.4,0.8-0.7,1.4-0.9,1.7
			s-0.5,0.8-0.8,1.1c-0.3,0.4-0.7,0.8-1.1,1c-0.4,0.3-0.7,0.4-0.9,0.5c-0.3,0.1-0.6,0-0.7-0.4c-0.1-0.1,0-0.2,0.1-0.2
			c0.6-0.3,1-0.7,1.4-1.2c0.3-0.5,0.6-1.1,0.8-1.6s0.3-1.2,0.4-2c0.1-0.8,0-1.5-0.2-2s-0.5-1-1-1.4c-0.5-0.4-1-0.8-1.4-1
			c-0.4-0.2-0.9-0.3-1.4-0.4s-0.9,0-1.3,0.1c-0.3,0.1-0.7,0.3-0.9,0.4l-0.5,0.6l0,0.2c0,0,0.1,0.2,0.2,0.6c0.2,0.6,0.4,1.1,0.8,1.6
			c0,0,0,0,0,0.1c0.1,0.3,0.1,0.5,0.2,0.7c0.2,0.7,0.3,1.4,0.4,2.1c0.2,0.6,0.6,1.3,1.1,2.3c0,0,0,0,0,0l0.6,1.6c0,0,0,0.1,0,0.1
			l-0.1,0.3c0,0,0,0,0,0l-0.5,0.6c0,0-0.1,0.1-0.1,0.1l-0.9,0c-0.1,0-0.1,0-0.2-0.1c-0.1-0.3-0.2-0.6-0.2-0.8c0-0.2-0.1-0.4,0-0.6
			c0,0-0.1,0-0.1,0L104.8,135.9C104.9,135.9,104.8,135.9,104.8,135.9z M103.1,133.7c0.1-0.4,0.2-0.9,0.2-1.4c0-0.5,0-1-0.1-1.6
			c-0.1-0.6-0.3-1.1-0.7-1.6c-0.1,0-0.3,0.1-0.6,0.3c-0.3,0.3-0.6,0.6-0.8,0.9c-0.1,0.6-0.1,1.1-0.1,1.7c0.1,0.6,0.3,1.2,0.5,1.8
			l0.4,0.5l0.4,0C102.5,134.3,102.8,134.1,103.1,133.7z"/>
		<path class="st3" d="M125.5,130.3c-0.9,0.3-1.8,0.3-2.7,0.1c-0.9-0.2-1.6-0.5-2.1-0.9c-0.5-0.4-0.8-0.8-1.1-1.3
			c-0.3-0.5-0.4-1.1-0.5-1.6c0-0.1,0-0.2,0-0.3c0-0.1-0.1-0.1-0.1-0.1c-0.2,0.1-0.6,0.2-1.1,0.5c-0.5,0.3-1,0.4-1.3,0.4
			c-0.3-0.1-0.5-0.4-0.6-1.1c-0.1-0.6,0-1.1,0.2-1.5c0.2-0.4,0.4-0.9,0.8-1.6c0.3-0.7,0.6-1.5,0.9-2.5c0.3-1,0.4-1.8,0.5-2.4
			c0-0.6,0-1-0.1-1.1c0,0-0.1,0-0.1,0c0,0-0.1,0.1-0.1,0.1c-0.1,0.1-0.2,0.2-0.3,0.4c-0.3,0.6-0.8,0.9-1.3,0.8
			c-0.5-0.1-1-0.3-1.4-0.8c-0.1-0.1-0.1-0.1,0-0.2l0.2-0.4c0.2-0.4,0.5-0.5,1-0.3c0.3,0.1,0.6,0,0.8-0.2c0.3-0.3,0.6-0.6,0.8-0.8
			c0.3-0.2,0.7-0.3,1.1-0.3c0.4,0,0.7,0.1,1,0.3c0.3,0.2,0.5,0.4,0.6,0.7c0.1,0.3,0,0.6-0.3,1c-0.2,0.3-0.4,0.8-0.6,1.4
			c-0.2,0.7-0.3,1.4-0.6,2.2s-0.4,1.4-0.6,2c-0.2,0.5-0.3,0.9-0.3,1.2c0,0.3,0.1,0.5,0.3,0.6c0.2,0.1,0.7,0,1.5-0.5
			c0.8-0.5,1.7-1.1,2.6-1.8c1-0.8,1.7-1.3,2.2-1.6c0.5-0.3,1-0.4,1.4-0.4c0.5,0,0.7,0.3,0.7,0.7c0,0.4-0.2,0.7-0.6,1
			c-0.3,0.2-1.1,0.6-2.3,1.2c-1.2,0.6-2.1,1.2-2.6,1.7c-0.5,0.5-0.8,0.9-1,1.3c-0.1,0.4-0.1,0.7,0,1c0.1,0.3,0.3,0.6,0.6,0.8
			c0.3,0.3,0.7,0.5,1.1,0.7c0.4,0.2,0.8,0.3,1.2,0.3c0.4,0,0.8-0.1,1.1-0.2l0.8-0.2c0.2-0.1,0.5-0.1,0.8,0c0.3,0.1,0.5,0.2,0.7,0.4
			c0.2,0.2,0.3,0.5,0.2,0.7C126.8,129.4,126.3,129.7,125.5,130.3C125.5,130.3,125.5,130.3,125.5,130.3z"/>
		<path class="st3" d="M130.5,116.1l0.3-0.4c0.1-0.1,0.1-0.1,0.2-0.1c0.5,0.3,0.9,0.5,1.1,0.6c0.2,0,0.4-0.1,0.6-0.3
			c0.3-0.3,0.7-0.7,1.3-1.3c0.6-0.6,1.1-0.9,1.4-1c0.4-0.1,0.7,0,0.9,0.2c0.2,0.2,0.2,0.5,0.2,0.9c0,0.4-0.2,0.8-0.5,1.2
			s-0.6,0.8-1.1,1c-0.4,0.2-0.6,0.4-0.8,0.8c-0.1,0.4-0.4,1.1-0.8,2.1c-0.3,1-0.5,1.8-0.5,2.3c0,0.3,0,0.5,0.1,0.8
			c0.1,0.3,0.1,0.5,0.3,0.8c0.2,0.5,0.6,0.9,1.1,1.2c0.5,0.3,1,0.4,1.5,0.3c0.5-0.1,1.1-0.4,1.8-0.9c0.7-0.5,1.2-1.1,1.6-1.7
			c0.4-0.7,0.8-1.4,1-2.3c0.3-0.9,0.4-1.8,0.4-2.8s-0.1-1.8-0.2-2.2c-0.1-0.4-0.3-0.9-0.7-1.5c-0.3-0.6-0.6-1-0.9-1.1
			c-0.3-0.2-0.5-0.4-0.5-0.5c-0.1-0.2,0.1-0.4,0.4-0.5c0.2,0,0.4-0.1,0.6-0.3c0.2-0.2,0.5-0.3,0.8-0.2c0.3,0.1,0.5,0.4,0.7,0.9
			l0.3,1.3c0.1,0.4,0.4,1,1.1,1.8c0.6,0.8,1.4,1.6,2.3,2.4c0.9,0.8,1.6,1.5,2,2c0.5,0.5,0.7,1,0.7,1.4c0,0.4-0.2,0.8-0.6,1
			c-0.3,0.2-0.7,0.3-1.1,0.2c-0.4,0-0.7-0.2-0.9-0.6c-0.2-0.3-0.4-0.7-0.6-1.3c-0.2-0.5-0.6-1.2-0.9-1.9c-0.3-0.6-0.7-1.2-1.2-1.8
			c0.1,1.3,0.1,2.4-0.1,3.1c-0.1,0.9-0.4,1.7-0.7,2.5c-0.3,0.8-0.7,1.5-1.1,2c-0.5,0.6-1.1,1.1-1.8,1.5c-0.4,0.2-0.7,0.4-1,0.5
			c-0.3,0.1-0.6,0.2-0.9,0.3c-0.6,0.1-1.1,0.1-1.6,0c-0.5-0.1-1-0.4-1.5-0.8c-0.4-0.4-0.8-0.9-1.1-1.6c-0.3-0.7-0.4-1.4-0.5-2.2
			c-0.1-0.8,0-1.6,0.2-2.2c0.2-0.6,0.5-1.3,0.9-2.2c-0.8,0.1-1.3,0.1-1.6-0.2c-0.3-0.3-0.5-0.7-0.6-1.2
			C130.4,116.2,130.4,116.1,130.5,116.1z M141.3,111.9l0.3-0.4c0-0.1,0.1-0.1,0.1-0.1c1.2,0,2,0.2,2.6,0.7c0.5,0.5,0.7,1,0.7,1.4
			c-0.1,0.4-0.3,0.7-0.7,0.8c-0.4,0.1-0.8,0-1.1-0.3c-0.3-0.3-0.5-0.6-0.6-1c-0.1-0.3-0.4-0.6-1.2-0.8
			C141.3,112.1,141.3,112,141.3,111.9z M142.4,110.6l0.2-0.4c0-0.1,0.1-0.1,0.1-0.1c1.2-0.1,2,0.1,2.5,0.5c0.5,0.4,0.7,0.8,0.7,1.2
			c-0.1,0.4-0.3,0.7-0.7,0.8c-0.4,0.1-0.8,0-1.1-0.3c-0.3-0.3-0.6-0.6-0.8-0.9c-0.2-0.3-0.5-0.5-0.9-0.6
			C142.4,110.8,142.4,110.7,142.4,110.6z"/>
		<path class="st3" d="M158.6,122.1c-0.2,0-0.4-0.1-0.6-0.1c0,0-0.1,0-0.1-0.1c-0.1-0.2-0.2-0.4-0.2-0.7c0,0,0-0.1,0-0.1
			c0.1-0.3,0.3-0.6,0.6-0.9c0.2-0.3,0.4-0.6,0.4-0.8c0.1-0.2,0.2-0.5,0.4-0.9c0.2-0.4,0.4-1,0.7-1.7c0,0,0,0,0,0
			c0.3-0.7,0.5-1.4,0.8-2.1c0,0,0,0,0,0c0.1-0.2,0.2-0.4,0.2-0.6c-0.4,0.3-0.8,0.6-1.2,0.9c-0.4,0.3-0.9,0.5-1.6,0.5
			c-0.6,0-1.1-0.1-1.4-0.5c0,0,0-0.1,0-0.1l0-0.4c0,0,0-0.1,0-0.1c0.1-0.3,0.4-0.5,0.7-0.5c0.3,0,0.5-0.1,0.8-0.2
			c0.2-0.1,0.6-0.2,1.1-0.3c0.5-0.1,0.8-0.2,1-0.3s0.4-0.2,0.6-0.5c0.1-0.4,0.2-0.8,0.1-1.2c-0.1-0.4-0.2-0.6-0.4-0.8
			c-0.2-0.2-0.4-0.3-0.6-0.4c0,0-0.1-0.1-0.1-0.1l0-0.2c0,0,0-0.1,0-0.1c0.1-0.2,0.2-0.3,0.4-0.4c0.1,0,0.2-0.1,0.4-0.2
			c0.1-0.1,0.4-0.2,0.8-0.2c0.4,0,0.8,0.1,1.1,0.4c0.4,0.3,0.5,0.9,0.6,1.9l0.2,0.1c0.6-0.2,1.1-0.2,1.5-0.2c0.5,0.1,0.9,0.4,1.1,1
			c0.2,0.5,0.3,1.2,0.4,1.8c0.2,1.9,0.1,3.3-0.2,4.4s-0.5,1.7-0.7,2.1c0,0,0,0,0,0c-0.3,0.4-0.6,0.6-0.9,0.7c0,0-0.1,0-0.1,0
			l-0.3-0.1c0,0-0.1,0-0.1,0c-0.6-0.4-0.9-0.8-1-1.2c-0.1-0.3-0.3-0.6-0.4-0.8c-0.2-0.2-0.5-0.4-0.8-0.6c-0.1,0-0.1-0.1-0.1-0.1
			l0-0.3c0-0.1,0.1-0.2,0.2-0.2h0.4c0,0,0,0,0,0l0.3,0.1c0,0,0,0,0,0c0.3,0.2,0.7,0.2,1.1,0.2c0.1-0.1,0.2-0.2,0.4-0.3
			c0.6-1.6,0.7-3.2,0.3-4.8c0,0,0,0,0,0c0-0.2-0.1-0.4-0.3-0.6l-0.4-0.2l-0.5,0.1l-0.2,0.2c-0.4,1-0.7,1.8-0.8,2.5
			c-0.1,0.7-0.3,1.4-0.5,2c-0.2,0.6-0.4,1.1-0.5,1.5c-0.1,0.4-0.2,0.7-0.3,1.1c-0.1,0.4-0.2,0.8-0.5,1.2c-0.1,0.2-0.3,0.4-0.4,0.6
			s-0.3,0.3-0.5,0.4c0,0,0,0,0,0L158.6,122.1C158.6,122.1,158.6,122.1,158.6,122.1z M168.2,117.6l-0.1-0.1c-0.1-0.1-0.1-0.2,0-0.3
			c0.1-0.1,0.5-0.3,1-0.6c0.5-0.3,0.9-0.5,1.4-0.8c0.4-0.3,0.7-0.6,0.8-0.8c0.1-0.2,0.1-0.5-0.1-0.8c-0.1-0.3-0.3-0.7-0.6-1.1
			c-0.2-0.4-0.5-0.7-0.9-1.1c-0.4-0.3-0.7-0.6-1.1-0.7c-0.4-0.1-0.7-0.3-0.9-0.4c-0.2-0.2-0.3-0.4-0.2-0.7c0,0,0,0,0.1-0.1
			c0.1-0.1,0.3-0.1,0.7-0.2c0.4,0,0.6,0,0.8,0c0.2,0,0.5,0.1,0.9,0.3h0c1.2,0.8,2,1.3,2.3,1.7c0.4,0.3,0.6,0.7,0.9,1.1
			s0.4,0.9,0.5,1.6c0.1,0.7-0.1,1.2-0.7,1.6c-0.5,0.3-1.1,0.6-1.7,0.8c-0.6,0.2-1,0.3-1.4,0.5S168.9,117.6,168.2,117.6
			C168.2,117.6,168.2,117.6,168.2,117.6z M170,108l0.3-0.4c0,0,0.1-0.1,0.2-0.1c1.2,0.1,1.9,0.3,2.2,0.5c0.3,0.2,0.4,0.5,0.5,0.8
			c0,0.3-0.1,0.6-0.5,0.9c-0.4,0.3-0.7,0.3-1.1,0.1c-0.2-0.2-0.5-0.4-0.6-0.7c-0.1-0.2-0.4-0.5-0.9-0.9
			C169.9,108.1,169.9,108.1,170,108z M171.5,106.4l0.3-0.4c0.1-0.1,0.1-0.1,0.2-0.1c0.9,0.1,1.6,0.3,1.9,0.5
			c0.3,0.2,0.5,0.5,0.5,0.8c0,0.3-0.1,0.5-0.4,0.7c-0.2,0.1-0.5,0.2-0.8,0.2c-0.3,0-0.5-0.2-0.7-0.5c-0.1-0.3-0.4-0.6-0.9-1
			C171.5,106.6,171.5,106.5,171.5,106.4z"/>
		<path class="st3" d="M183.2,107.8l0.3-0.3c0.1-0.1,0.1-0.1,0.2,0c0.9,0.5,1.6,0.8,2.2,0.9c0.5,0.1,1.1,0.1,1.6,0
			c0.6-0.1,1.1-0.3,1.7-0.6c0.6-0.3,1-0.6,1.4-0.8c0.4-0.2,0.8-0.3,1.2-0.2c0.1,0,0.1,0.1,0.2,0.1c0.3,0.2,0.4,0.4,0.2,0.7
			c-0.1,0.2-0.5,0.6-1.1,1.1c-0.6,0.4-1.1,0.8-1.6,1c-0.4,0.2-0.8,0.4-1,0.6c-0.2,0.2-0.4,0.4-0.5,0.8c-0.1,0.3-0.1,0.5,0,0.7
			c0.1,0.2,0.4,0.3,0.9,0.4c0.5,0.1,1.2,0.1,2.1-0.1c0.4-0.1,0.8-0.2,1.2-0.4l0.1-3.2c0-1.1-0.1-2-0.3-2.7c-0.2-0.7-0.6-1.2-1.3-1.6
			c-0.1-0.1-0.1-0.2,0-0.3l0.4-0.3c0,0,0.1,0,0.1,0c1,0,1.6,0.2,2,0.6c0.3,0.3,0.5,0.7,0.6,1.1c0.6,0.9,1.1,1.6,1.4,2
			c0.3,0.5,0.7,0.8,1.1,0.9c0.5,0.1,0.9,0.4,1.1,0.8c0.2,0.4,0.2,0.8,0,1.2c-0.2,0.3-0.8,0.8-1.8,1.4c-0.7,0.4-1.5,0.8-2.2,1.1v0.1
			c0.1,0.8,0.1,1.8-0.1,3.1c0,0.4-0.1,0.7-0.1,1.1c0.1,0,0.2,0.1,0.4,0.1c1,0.4,1.9,0.8,2.6,1.4c0.7,0.6,1.1,1.1,1.1,1.5
			c0,0.4-0.3,0.7-0.8,0.8c-0.5,0.1-1-0.1-1.5-0.8c-0.4-0.6-1-1.1-1.6-1.5c-0.1-0.1-0.2-0.2-0.4-0.2c-0.1,0.2-0.1,0.4-0.2,0.5
			c-0.4,0.7-0.9,1.2-1.6,1.4c-0.7,0.2-1.4,0.3-2.1,0.3c-0.7,0-1.3-0.2-1.6-0.4c-0.4-0.3-0.6-0.6-0.7-0.9c-0.1-0.4-0.1-0.8,0.2-1.2
			c0.2-0.4,0.7-0.7,1.3-1.1c0.6-0.3,1.4-0.5,2.5-0.5c0.4,0,0.8,0,1.2,0.1c0.1-0.5,0.3-1.1,0.4-1.8c0.1-0.6,0.1-1.1,0.1-1.7
			c-0.7,0.2-1.4,0.4-2,0.4c-0.8,0.1-1.5,0.1-2.1,0c-0.6-0.1-1-0.3-1.3-0.6c-0.2-0.3-0.4-0.5-0.4-0.8c0-0.2,0.1-0.5,0.2-0.9
			s0.3-0.7,0.6-0.9c-0.1,0-0.3,0.1-0.5,0.1c-0.5,0.1-1,0-1.6-0.2c-0.6-0.2-1.2-0.9-1.9-2.1C183.1,108,183.1,107.9,183.2,107.8z
			 M191.3,117.6c-0.5-0.1-1-0.1-1.4,0c-0.5,0.1-0.9,0.3-1.3,0.6c-0.3,0.3-0.4,0.5-0.3,0.7c0.1,0.2,0.3,0.2,0.7,0.3
			c0.4,0,0.8,0,1.1-0.1c0.3-0.1,0.6-0.3,0.8-0.6C191,118.1,191.1,117.9,191.3,117.6z M193.6,111.1c0.8-0.4,1.3-0.8,1.5-1.1
			c0.2-0.3,0.3-0.6,0.3-0.7c0-0.2-0.1-0.4-0.3-0.8c-0.1-0.2-0.6-0.7-1.2-1.4c0,0.3-0.1,0.5-0.2,0.8c-0.2,0.9-0.4,1.7-0.4,2.5
			c0,0.3,0,0.6,0,0.8C193.4,111.1,193.5,111.1,193.6,111.1z"/>
		<path class="st3" d="M205.6,105.3l0-0.3c0-0.1,0.1-0.2,0.2-0.1c1.1,0.3,1.8,0.7,2,1.1c0.1,0.2,0.1,0.5,0.1,0.8
			c0.6-0.1,1-0.1,1.3,0c0.4,0.2,0.6,0.4,0.6,0.6c0,0.2-0.2,0.3-0.4,0.6c-0.3,0.2-0.7,0.3-1.1,0.3c-0.2,0-0.5,0-0.9,0.1
			c-0.3,0.6-0.5,1.1-0.6,1.5c-0.1,0.2-0.1,0.4-0.1,0.5c0.2-0.1,0.7-0.4,1.4-0.9c0.7-0.5,1.5-0.9,2.3-1.2c0.9-0.3,1.6-0.3,2.2-0.1
			c0.6,0.2,1.1,0.4,1.5,0.7c0.5,0.3,0.7,0.6,0.7,0.9c0,0.3-0.2,0.5-0.4,0.8s-0.6,0.3-1.1,0.3c-0.4,0-0.9,0.1-1.5,0.3
			c-0.6,0.3-1,0.6-1.2,1c-0.3,0.4-0.4,1-0.5,1.7c-0.1,0.8,0,2,0.3,3.8c1.5,0.6,2.5,1.2,3,1.9c0.6,0.7,0.8,1.2,0.6,1.4
			c-0.1,0.1-0.2,0.2-0.4,0.3c-0.1,0.1-0.3,0.1-0.5,0.1c-0.4,0-0.8-0.2-1.1-0.7c-0.3-0.3-0.9-0.8-1.8-1.5c-0.1,0.8-0.4,1.4-0.9,1.8
			c-0.3,0.2-0.6,0.4-0.9,0.5c-0.3,0.1-0.6,0.2-1,0.2c-0.7,0.1-1.3,0-1.8-0.2s-0.8-0.4-1-0.8c-0.2-0.4-0.3-0.9-0.2-1.5
			c0.1-0.6,0.3-1.1,0.9-1.4c0.5-0.3,1.1-0.5,1.8-0.6c0.6,0,1.1,0,1.7,0.1c-0.1-1.8-0.2-3-0.1-3.6c0.1-0.6,0.2-1.1,0.5-1.7
			s0.6-1.1,1-1.5c0.4-0.4,0.8-0.8,1.1-1.1c0.1-0.1,0.1-0.1,0.2-0.2c-0.1,0-0.2-0.1-0.4-0.1c-0.5-0.1-1.1,0.1-1.8,0.5
			c-0.7,0.4-1.4,0.9-2.2,1.5c-0.7,0.6-1.2,1.1-1.5,1.4c-0.2,0.3-0.6,0.8-1,1.6c-0.4,0.8-0.9,1.5-1.6,2.3c-0.7,0.8-1.3,1.1-1.7,0.7
			c-0.4-0.3-0.5-0.7-0.5-1.2c0.1-0.5,0.5-1,1.2-1.6c0.7-0.5,1.4-1.2,2-2.1s1.1-1.8,1.3-2.7c0.1-0.3,0.1-0.5,0.1-0.8
			c-0.6,0.2-1.2,0.2-1.6,0.3c-0.6,0.1-1.1,0-1.5-0.3c-0.3-0.3-0.6-0.8-0.8-1.5c0-0.1,0-0.1,0.1-0.2l0.4-0.3c0.1-0.1,0.1-0.1,0.2,0
			c0.8,0.5,1.4,0.8,1.7,0.9c0.3,0,0.8,0,1.3-0.1c0.2,0,0.4-0.1,0.6-0.1l0-0.1C206.1,106.7,206,106.1,205.6,105.3
			C205.6,105.4,205.6,105.4,205.6,105.3z M208.5,118.4c-0.4-0.2-0.9-0.3-1.2-0.2c-0.4,0.1-0.8,0.2-1.1,0.4c-0.3,0.2-0.5,0.4-0.5,0.7
			c0,0.3,0.1,0.6,0.2,0.9c0.1,0.2,0.2,0.3,0.3,0.4s0.3,0.1,0.5,0.2c0.4,0,0.8-0.1,1.1-0.4C208.3,120,208.5,119.3,208.5,118.4z"/>
		<path class="st3" d="M220.4,110.9l0.4-0.3c0.1-0.1,0.2-0.1,0.2,0.1c0.3,0.5,0.6,0.8,0.8,1c0.1,0.1,0.4,0.1,0.7,0
			c0.4-0.2,0.9-0.4,1.7-0.7c0.8-0.3,1.4-0.4,1.7-0.4c0.4,0.1,0.7,0.3,0.8,0.6c0.1,0.3,0,0.6-0.2,0.9c-0.2,0.3-0.5,0.7-0.9,0.9
			c-0.4,0.3-0.9,0.4-1.4,0.5c-0.4,0-0.8,0.2-1,0.4c-0.3,0.3-0.8,0.8-1.5,1.6c-0.7,0.8-1.2,1.4-1.4,1.9c-0.1,0.2-0.2,0.5-0.2,0.8
			s-0.1,0.5-0.1,0.8c0,0.6,0.2,1.1,0.5,1.6c0.3,0.5,0.8,0.8,1.3,0.9c0.5,0.1,1.2,0.1,2-0.1c0.8-0.2,1.5-0.5,2.2-0.9
			c0.6-0.4,1.3-1,1.9-1.7c0.6-0.7,1.1-1.5,1.5-2.4s0.6-1.6,0.7-2.1s0.1-1,0-1.7c-0.1-0.7-0.2-1.1-0.4-1.4c-0.2-0.3-0.3-0.5-0.3-0.7
			c0-0.2,0.2-0.3,0.6-0.3c0.2,0,0.4,0,0.6,0c0.3-0.1,0.6,0,0.8,0.2c0.3,0.2,0.4,0.6,0.2,1.1l-0.3,1.3c-0.1,0.4,0,1.1,0.3,2.1
			c0.3,1,0.6,2,1.1,3.1c0.5,1.1,0.8,2,1.1,2.6c0.2,0.7,0.3,1.2,0.1,1.5c-0.2,0.4-0.5,0.6-0.9,0.7c-0.4,0.1-0.8,0-1.1-0.2
			c-0.4-0.2-0.6-0.5-0.6-0.9c0-0.4-0.1-0.8-0.1-1.4c0-0.6,0-1.3-0.1-2.1c-0.1-0.6-0.2-1.3-0.4-2.1c-0.5,1.3-0.9,2.2-1.3,2.8
			c-0.5,0.7-1,1.4-1.6,2c-0.6,0.6-1.2,1.1-1.9,1.4c-0.7,0.3-1.4,0.6-2.2,0.6c-0.4,0-0.8,0-1.1,0c-0.4,0-0.7-0.1-1-0.1
			c-0.6-0.1-1.1-0.3-1.5-0.7c-0.4-0.3-0.8-0.7-1-1.3c-0.3-0.5-0.4-1.2-0.4-1.9c0-0.7,0.1-1.4,0.4-2.2c0.3-0.8,0.6-1.4,1.1-1.9
			c0.4-0.4,0.9-1,1.7-1.7c-0.8-0.2-1.2-0.5-1.4-0.9c-0.2-0.4-0.2-0.8-0.1-1.3C220.3,111,220.3,110.9,220.4,110.9z M232,111.4
			l0.4-0.3c0.1,0,0.1,0,0.2,0c1.1,0.4,1.8,1,2.1,1.7c0.2,0.7,0.3,1.2,0.1,1.5c-0.2,0.4-0.5,0.5-0.9,0.4s-0.7-0.3-0.9-0.8
			c-0.2-0.4-0.2-0.8-0.1-1.2c0.1-0.3-0.2-0.7-0.7-1.2C231.9,111.6,231.9,111.5,232,111.4z M233.5,110.7l0.4-0.3c0.1,0,0.1,0,0.2,0
			c1.1,0.4,1.8,0.9,2.1,1.5c0.3,0.6,0.3,1,0.1,1.4c-0.2,0.4-0.5,0.5-0.9,0.4c-0.4-0.1-0.7-0.3-0.9-0.7c-0.2-0.4-0.3-0.8-0.3-1.2
			c0-0.3-0.2-0.6-0.6-0.9C233.4,110.8,233.4,110.7,233.5,110.7z"/>
		<path class="st3" d="M246.6,113.5l0.4-0.3c0,0,0.1,0,0.1,0c0.5,0.1,0.9,0.4,1.1,0.8c0.3,0.4,0.4,0.9,0.4,1.4s-0.1,0.9-0.3,1.2
			c-0.2,0.3-0.5,0.8-0.9,1.5c-0.4,0.7-0.7,1.4-1,2c-0.3,0.6-0.5,1.3-0.8,1.9c-0.3,0.6-0.4,1.1-0.4,1.6c0,0.3,0,0.6,0.1,0.7
			c0.1-0.1,0.2-0.3,0.4-0.6c0.4-0.6,1.1-1.6,2.1-3c0,0,0,0,0-0.1c0,0,0.1,0,0.1,0c0.1,0,0.1,0,0.2,0.1l0.3,0.4c0,0.1,0,0.1,0,0.2
			c-0.7,1-1.2,1.7-1.4,2.3c-0.2,0.5-0.5,1.1-0.8,1.7c-0.2,0.6-0.3,1.2-0.1,1.8c0,0.1,0.1,0.2,0.1,0.3c0.1,0.3,0.1,0.5,0,0.6
			c0,0.2-0.1,0.3-0.3,0.4c-0.3,0.1-0.6,0-1-0.2c-0.3-0.2-0.6-0.5-0.8-0.8c-0.2-0.3-0.3-0.7-0.4-1.4c-0.1-0.6-0.1-1.4,0-2.3
			s0.3-1.8,0.6-2.7c0.3-0.8,0.7-1.6,1.1-2.4c0.4-0.7,0.8-1.4,1.2-2.2c0.4-0.7,0.6-1.2,0.5-1.5c0-0.3-0.3-0.8-0.8-1.3
			C246.5,113.7,246.5,113.6,246.6,113.5z M251.7,115.7c0.6-0.1,0.9-0.1,1.1,0.1c0.1,0.1,0.2,0.3,0.4,0.6c0.1,0.2,0.5,0.4,1.1,0.6
			c0.6,0.2,1.1,0.2,1.3,0.1c0.3-0.1,0.6,0,0.9,0.2c0.3,0.2,0.7,0.5,1.1,0.8c0.5,0.4,0.6,0.7,0.6,1c-0.1,0.3-0.2,0.5-0.4,0.6
			s-0.5,0.1-0.8,0c-0.3-0.1-0.8-0.1-1.3-0.1c-0.6,0-1.1,0.1-1.8,0.4c-0.6,0.3-1.2,0.7-1.6,1.3c-0.5,0.6-0.8,1.1-0.9,1.6
			c-0.1,0.5-0.1,1,0.1,1.5s0.6,0.9,1.2,1.2c0.6,0.4,1.4,0.7,2.3,1.1c1,0.4,1.6,0.6,1.8,0.8c0.2,0.2,0.4,0.5,0.4,0.9
			c0,0.4-0.2,0.8-0.8,0.9c-0.5,0.1-1.3-0.1-2.4-0.6c-1.1-0.5-1.9-1.1-2.6-1.7c-0.7-0.7-1.1-1.4-1.1-2.1c-0.1-0.7,0-1.4,0.1-1.9
			c0.1-0.6,0.4-1.1,0.7-1.6c0.4-0.5,0.8-0.9,1.2-1.3s0.9-0.7,1.4-0.9c0.4-0.2,0.6-0.3,0.7-0.4c-0.1-0.1-0.3-0.3-0.6-0.5
			c-0.5-0.3-1-0.6-1.4-0.8c-0.4-0.2-0.8-0.6-0.9-1.2c0,0,0-0.1,0-0.1l0.1-0.3C251.6,115.8,251.7,115.7,251.7,115.7z"/>
		<path class="st3" d="M266.8,133l-0.2-0.1c0,0,0,0,0,0l-0.2-0.2c0,0,0-0.1,0-0.1c-0.4-1.9-0.6-3.1-0.9-3.7l-0.1-0.4l0,0l-0.2,0.2
			c-0.4,0.7-0.8,1.3-1.2,1.8c0,0,0,0,0,0c-0.6,0.4-1.2,0.7-2,0.9c0,0,0,0,0,0c-0.4,0-0.6-0.1-0.8-0.3c-0.1-0.2-0.1-0.5-0.1-0.9
			c0,0,0,0,0,0c0.4-0.7,0.9-1.3,1.6-1.8c0.2-0.1,0.4-0.3,0.6-0.5c0.2-0.2,0.4-0.3,0.5-0.4c0.1-0.1,0.2-0.2,0.4-0.3s0.2-0.2,0.2-0.2
			c0.3-0.2,0.5-0.5,0.8-0.7c0.2-0.2,0.5-0.5,0.9-0.7c0.3-0.2,0.6-0.5,0.9-0.7c0.2-0.2,0.4-0.4,0.5-0.6c0-0.1,0-0.2,0-0.2
			c-0.1-0.1-0.4,0-0.7,0.1c-0.4,0.1-0.6,0.2-0.8,0.2c-0.2,0.1-0.5,0-0.7,0c-0.3-0.1-0.5-0.3-0.6-0.6c-0.1-0.3-0.2-0.5-0.3-0.6
			c-0.1-0.2-0.2-0.4-0.1-0.7c0.1-0.3,0.2-0.5,0.3-0.6c0.1-0.1,0.3-0.1,0.5-0.1c0.1,0,0.4,0.2,0.6,0.4c0.2,0.2,0.7,0.3,1.5,0.5
			c0.5,0,0.9-0.1,1.3-0.3c0.1-0.2,0.2-0.4,0.3-0.6l-0.1-0.3c0-0.3-0.2-0.6-0.5-1.1c-0.2-0.3-0.2-0.6-0.2-0.9c0-0.1,0-0.1,0.1-0.1
			l0.3-0.1l0,0c0.3,0,0.6,0,0.8,0c0,0,0,0,0.1,0c0.2,0.2,0.5,0.5,0.7,0.7c0.2,0.2,0.4,0.4,0.7,0.6c0.4,0.2,0.5,0.5,0.5,0.8
			c0,0,0,0.1,0,0.1c-0.1,0.2-0.3,0.5-0.5,0.8l0.2,0.2l0.2,0v0c0.3,0,0.7,0.1,1,0.2c0.5,0.1,0.8,0.4,1.1,0.7l0.3,0.4c0,0,0,0,0,0.1
			c0.1,0.4,0,0.9-0.2,1.4v0c-0.8,1.4-1.4,2.6-1.7,3.6c-0.4,1-0.7,1.8-1,2.4c-0.3,0.6-0.7,1.1-1.2,1.4c-0.2,0.1-0.4,0.3-0.6,0.4
			c-0.1,0-0.2,0.1-0.3,0.1c-0.1,0-0.2,0-0.3,0.1C267.3,133.1,267,133.1,266.8,133C266.8,133,266.8,133,266.8,133z M268.2,130.4
			c0.3-0.1,0.5-0.3,0.7-0.5c0.8-0.8,1.4-1.8,1.7-3.1c0.2-0.8,0.4-1.4,0.5-1.8c0.1-0.4,0.1-0.7,0-0.9c0-0.2-0.5-0.3-1.3-0.4
			c-0.1,0-0.3,0-0.5,0c-0.4,0.4-0.7,0.7-1,1c-0.2,0.3-0.5,0.7-0.9,1.3c-0.4,0.6-0.9,1.3-1.7,2.2l0,0.1c0,0,0,0,0,0.1l0.2,0.4
			l0.7,0.9c0.2,0.2,0.5,0.5,0.8,0.7l0.2,0.1L268.2,130.4z M274.4,130.8c0-0.3,0.1-0.5,0.4-0.6c0.2,0,0.5-0.1,1-0.2
			c0.5-0.1,1-0.3,1.5-0.6c0.5-0.3,0.8-0.7,0.9-1.3c0.1-0.7-0.1-1.3-0.5-1.9c-0.4-0.6-0.9-1.1-1.3-1.5c-0.5-0.4-1.1-0.8-1.9-1.4
			c-0.1,0-0.1-0.1-0.1-0.2c0-0.2,0.1-0.3,0.3-0.3c0.1-0.1,0.3,0,0.5,0.1c1.8,0.6,3.1,1.4,3.9,2.4c0.7,1,1.2,1.8,1.4,2.2
			c0.2,0.5,0.3,0.9,0.4,1.3c0.1,0.4,0,0.9-0.1,1.3c-0.2,0.4-0.4,0.8-0.7,0.9c-0.3,0.2-0.6,0.2-0.9,0.1h0l-1.2-0.4
			c-0.8,0.2-1.4,0.2-2,0.3c-0.5,0-1,0-1.4-0.1C274.4,131,274.4,130.9,274.4,130.8z"/>
		<path class="st3" d="M288.4,122.8l0.4-0.3c0,0,0,0,0.1,0c0.8-0.1,1.4,0.2,1.9,1.1c0.5,0.8,0.4,1.8-0.1,2.8
			c-0.1,0.2-0.2,0.4-0.3,0.6c0.1,0.1,0.1,0.1,0.2,0.2c0.6-0.3,1.1-0.5,1.6-0.6c0.6-0.1,1.3-0.2,2-0.2c0.7,0,1.4,0.2,2.1,0.6
			c0.6,0.4,1.2,0.9,1.7,1.6c0.5,0.7,0.8,1.4,0.9,2.1s0,1.4-0.2,2.1c-0.2,0.7-0.6,1.3-1,1.9c-0.5,0.6-1,1.1-1.7,1.5
			c-0.6,0.4-1.3,0.6-1.9,0.9s-1.2,0.4-1.9,0.5c-0.6,0.1-1.5,0.2-2.6,0.2c-0.1,0-0.1,0-0.1-0.1l-0.3-0.4c-0.1-0.1-0.1-0.1,0-0.2
			c0-0.1,0.1-0.1,0.2-0.1c0.9-0.1,1.6-0.2,2.1-0.3c0.5-0.1,1.1-0.4,1.8-0.7c0.7-0.3,1.3-0.7,1.7-1c0.4-0.4,0.8-0.7,1-1.1
			c0.3-0.4,0.5-0.9,0.8-1.5c0.2-0.6,0.3-1.3,0.2-2c-0.1-0.7-0.4-1.3-0.8-1.8c-0.5-0.5-0.9-0.8-1.5-0.9c-0.5-0.1-1.1-0.1-1.7-0.1
			c-0.5,0-1.3,0.3-2.1,0.8c-0.4,0.2-0.8,0.5-1.1,0.8c-0.2,0.7-0.4,1.5-0.4,2.4c-0.1,1-0.1,1.8-0.1,2.4c0,0.6,0,1.3,0,2.1
			c0,0.4-0.1,0.8-0.1,1c0,0.2-0.1,0.4-0.2,0.6c-0.2,0.2-0.4,0.4-0.7,0.3s-0.5-0.2-0.7-0.5c-0.2-0.3-0.3-0.8-0.2-1.4
			c0.1-0.5,0.1-1.1,0.1-1.7c0-0.5-0.3-1.1-0.8-1.8l-0.1-0.1c-0.4,0.5-0.7,1-0.9,1.5c-0.4,0.8-0.7,1.2-1,1.3c-0.3,0.1-0.6,0-0.8-0.1
			c-0.2-0.2-0.4-0.5-0.5-0.9c0-0.4,0.2-0.9,0.6-1.4c0.4-0.5,1-1,1.8-1.6c-0.1-0.2-0.2-0.5-0.3-0.7c-0.2-0.7-0.3-1.2-0.1-1.7
			c0.2-0.4,1-1,2.3-1.6c0.7-0.3,1.3-0.5,1.8-0.6v0c0.3-0.5,0.4-1.1,0.3-1.7c-0.1-0.7-0.4-1.3-1-1.8
			C288.2,122.9,288.3,122.9,288.4,122.8z M287.7,128.3c-0.3,0.1-0.7,0.2-1,0.5c-0.3,0.2-0.5,0.5-0.5,0.8c0,0.2,0.1,0.5,0.2,0.8
			c0.5-0.4,0.9-0.8,1.3-1.2c0.1-0.1,0.2-0.2,0.4-0.3l0.1-0.2l0.1-0.2C288,128.3,287.9,128.3,287.7,128.3z M287.3,131.9
			c0.1,0.1,0.1,0.2,0.2,0.2l0,0c0,0,0-0.1,0.1-0.2s0.1-0.3,0.1-0.6c0-0.2,0-0.4,0-0.6c-0.2,0.3-0.5,0.5-0.7,0.8
			C287.1,131.6,287.2,131.7,287.3,131.9z"/>
		<path class="st3" d="M308.5,139.6c0.1,0,0.2-0.1,0.3-0.1c0.5-0.2,0.9-0.3,1.2-0.5c0.3-0.2,0.6-0.5,0.9-1c0.3-0.5,0.5-1.2,0.6-1.9
			c0.1-0.8,0-1.4-0.3-1.8c-0.3-0.4-0.6-0.8-1-0.9s-0.9-0.2-1.4-0.2c-0.5,0-1.1,0.2-1.7,0.4c-0.6,0.2-1,0.6-1.4,1
			c-0.4,0.4-0.7,0.8-1,1.2c-0.3,0.4-0.6,0.8-1,1.1c-0.4,0.3-0.8,0.5-1,0.4c-0.3,0-0.5-0.2-0.6-0.5c-0.1-0.3-0.1-0.6-0.1-1.1
			c0.1-0.5,0.4-1,0.9-1.5c0.5-0.5,1.3-1.1,2.3-1.8c1-0.7,2-1.5,3-2.5c1-1,1.5-1.6,1.5-1.7c0,0,0-0.1,0-0.1s-0.1,0-0.1,0
			s-0.2,0-0.3,0c-0.4,0.1-0.9,0.2-1.3,0.5c-0.5,0.3-1,0.5-1.3,0.6c-0.4,0.1-0.8,0-1.1-0.1c-0.4-0.2-0.6-0.5-0.7-0.9
			c-0.1-0.4-0.1-0.8,0-1.3c0-0.1,0-0.1,0.1-0.1l0.4-0.3c0.1-0.1,0.2-0.1,0.3,0.1c0.1,0.4,0.3,0.7,0.5,0.9s0.5,0.2,0.9,0.1
			c0.5-0.1,1.1-0.2,2.1-0.6c1-0.3,1.6-0.5,2-0.4c0.4,0.1,0.8,0.2,1.1,0.5c0.3,0.3,0.5,0.7,0.4,1.1s-0.6,0.9-1.6,1.5
			c-1,0.5-1.8,1.2-2.4,1.9c-0.4,0.5-0.7,0.9-0.9,1.1c1-0.1,1.8-0.1,2.3,0c0.6,0.1,1.2,0.3,1.9,0.6c0.7,0.3,1.2,0.8,1.5,1.4
			c0.3,0.6,0.4,1.4,0.3,2.3c-0.1,0.9-0.5,1.7-1.2,2.4c-0.7,0.6-1.4,1.1-2.3,1.3c-0.4,0.1-0.8,0.2-1.2,0.2s-0.8,0-1.1,0
			c-0.7-0.1-1.3-0.3-1.9-0.6c-0.6-0.3-1-0.6-1.2-0.9c-0.2-0.3-0.3-0.6-0.2-1c0-0.4,0.3-0.7,0.7-0.9c0.4-0.2,0.8-0.3,1.3-0.2
			c0.5,0.1,0.9,0.2,1.4,0.5c0.5,0.3,0.7,0.7,0.8,1.3C308.7,139.2,308.6,139.4,308.5,139.6z M307.4,139.6c-0.1-0.1-0.1-0.3-0.1-0.5
			c-0.1-0.4-0.2-0.7-0.5-1c-0.3-0.2-0.5-0.4-0.5-0.4c-0.1,0-0.2,0.1-0.4,0.2c-0.2,0.2-0.3,0.3-0.3,0.3s0.1,0.2,0.2,0.4
			c0.2,0.2,0.5,0.4,0.9,0.6C306.9,139.5,307.1,139.6,307.4,139.6z"/>
		<path class="st3" d="M320.9,125c0.3,0,0.6,0,0.8,0.1c0.2,0.1,0.3,0.1,0.3,0.1c0,0,0.1,0.1,0.3,0.1c0.2,0.1,0.4,0.2,0.5,0.2
			c0.1,0.1,0.1,0.2,0.2,0.3c0,0.1,0,0.2,0,0.3c0,0.2-0.1,0.4-0.3,0.8c-0.1,0.2-0.2,0.7-0.2,1.4c0,0.8-0.1,1.2,0,1.3
			c0,0.1,0.1,0.2,0.3,0.2c0.1,0,0.2,0,0.2,0c0.1-0.1,0.2-0.2,0.3-0.4c0,0,0.1-0.1,0.2-0.2c0.1-0.1,0.2-0.1,0.4-0.1
			c0.2,0,0.4,0.1,0.6,0.2c0.1,0.1,0.2,0.2,0.2,0.3c0,0.1,0.1,0.2,0.1,0.3c0.1,0.2,0.1,0.4,0.1,0.5c0,0.1-0.1,0.2-0.2,0.3
			c-0.1,0.1-0.4,0.1-0.9,0c-0.2,0-0.3,0-0.4,0s-0.2,0-0.2,0c-0.1,0-0.2,0.1-0.4,0.2c0,0-0.1,0.1-0.1,0.2s-0.1,0.2-0.1,0.3
			c0,0-0.1,0.1-0.1,0.2c0,0.1,0,0.2,0,0.3c0,0.2,0,0.6,0,1.1l0,0.3l-0.1,0.2c-0.1,0.2-0.1,0.6-0.1,1c0,0.2,0,0.3,0,0.5
			s0.1,0.2,0.1,0.3s0.1,0.1,0.1,0.3s0.1,0.3,0.2,0.4c0.1,0.2,0.3,0.2,0.6,0.2s0.4-0.1,0.5-0.2c0.1-0.1,0.3-0.2,0.5-0.3
			c0.1,0,0.2-0.1,0.4,0c0.1,0,0.2,0,0.3,0.1c0,0.1,0.1,0.1,0.1-0.1c0,0,0,0,0-0.1c0-0.3,0.1-0.5,0.2-0.6c0.2-0.2,0.3-0.5,0.2-0.7
			c0-0.1-0.1-0.2-0.2-0.3s-0.3-0.1-0.6-0.2c-0.3,0-0.4-0.1-0.5-0.1c-0.1,0-0.2-0.1-0.4-0.1c-0.2,0-0.3,0-0.4-0.1
			c-0.1-0.1-0.1-0.1,0-0.2c0,0,0.1-0.1,0.3,0c0.2,0,0.4,0,0.6,0s0.5,0,0.9,0s0.6,0,0.7,0c0.1,0,0.3,0,0.4,0.1c0.1,0,0.1,0.1,0.2,0.1
			s0.1,0,0.1,0.1s0.1,0,0.1,0s0.1,0,0.2,0.1c0.1,0.1,0.2,0.1,0.4,0c0.1,0,0.3,0,0.5,0c0.7,0,1.2,0,1.4,0.1c0.2,0,0.5,0.1,1,0.1
			c0.4,0,0.6,0,0.7,0c0.1,0,0.2-0.1,0.4-0.2c0.1-0.1,0.2-0.1,0.2-0.1c0.2,0,0.3-0.1,0.4-0.2c0-0.1,0.1-0.1,0.1-0.2s0-0.1,0-0.2
			c-0.1-0.1-0.3-0.1-0.6-0.1c-0.3,0-0.4,0-0.5,0c-0.1,0-0.1-0.1-0.3-0.1c-0.1-0.1-0.3-0.2-0.5-0.4c-0.2-0.1-0.3-0.2-0.5-0.3
			c-0.1,0-0.4-0.1-0.6-0.1c-0.2,0-0.4,0-0.6,0s-0.5,0-0.5,0c-0.1,0-0.1,0-0.2,0s-0.1,0-0.1,0c-0.1,0-0.2,0.1-0.3,0.4
			c-0.2,0.3-0.4,0.5-0.8,0.5c-0.1,0-0.2,0-0.2,0.1c-0.1,0-0.1,0-0.2-0.1c-0.1-0.1-0.1-0.2-0.1-0.2c0-0.1,0-0.2,0-0.5
			c0-0.3,0-0.5,0-0.7c0-0.2,0-0.5,0-0.8c0-0.1,0-0.4,0-0.7c0-0.4,0-0.7,0.1-1c0-0.2,0-0.4,0-0.7s0-0.5,0-0.9s0-0.6,0-0.8
			c0-0.1,0-0.3,0-0.6c0-0.2,0-0.4,0.1-0.5c0-0.1,0.1-0.2,0.2-0.2s0.2,0,0.4,0c0.3,0.1,0.5,0.1,0.6,0.2c0.3,0.2,0.5,0.4,0.6,0.4
			c0,0,0.2,0.1,0.3,0.1s0.3,0.1,0.3,0.1c0.1,0,0.2,0,0.5,0c0.7,0,1.2-0.1,1.4-0.3c0.1-0.1,0.3-0.2,0.5-0.3c0.2-0.1,0.3-0.1,0.3-0.1
			s0.2,0,0.4,0.1c0.2,0.1,0.4,0.2,0.4,0.2c0,0,0.1,0.1,0.1,0.1s0.1,0.1,0.2,0.2c0.1,0.1,0.2,0.2,0.2,0.3c0,0.1,0.1,0.1,0.1,0.2
			c0.1,0.1,0.2,0.3,0.2,0.6c0,0.2,0,0.4-0.1,0.7c-0.1,0.3-0.1,0.8-0.2,1.3c0,0.6-0.1,1.6-0.2,3.1c0,0.2,0.1,0.4,0.2,0.5
			c0.1,0,0.1,0.1,0.2,0.1c0,0.1,0.1,0.1,0.2,0.2s0.2,0.1,0.2,0.1s0.1,0,0.2-0.1c0.1-0.1,0.2-0.1,0.2-0.1c0.1,0,0.2,0.1,0.5,0.4
			c0.2,0.2,0.3,0.4,0.3,0.5c0,0.1,0,0.2-0.1,0.4c-0.1,0.2-0.4,0.3-0.7,0.3c-0.1,0-0.2,0-0.4,0c-0.2,0-0.3,0-0.5-0.1
			c-0.2-0.1-0.6-0.1-1-0.1c-0.1,0-0.3,0-0.5-0.1c-0.2,0-0.3,0-0.5,0s-0.5,0-1.2,0c-0.7,0-1.1,0-1.1,0c-0.1,0.1-0.2,0.2-0.4,0.5
			c0,0.1-0.1,0.2-0.1,0.3s-0.1,0.1-0.2,0.1c-0.1,0-0.1,0-0.1,0.1c0,0,0,0-0.1,0.1c-0.1,0-0.1,0.1-0.1,0.2c-0.1,0.2-0.1,0.3-0.1,0.4
			s0.1,0.1,0.2,0.1c0.2,0.1,0.4,0.1,0.6,0.1c0.1,0,0.2,0,0.3,0.1c0.1,0.1,0.2,0.1,0.2,0.1c0.1-0.1,0.5-0.1,1-0.1
			c0.3,0,0.5,0,0.6,0.1c0.1,0,0.3,0.1,0.4,0.1c0.4,0,0.6-0.1,0.8-0.2c0,0,0.1-0.1,0.3-0.2c0.2-0.1,0.3-0.2,0.4-0.3
			c0.1,0,0.2,0,0.3,0c0.5,0.2,0.8,0.3,0.9,0.4c0,0.1,0.1,0.1,0.2,0.3c0.1,0.1,0.1,0.3,0.1,0.5c0,0.4-0.1,0.7-0.2,1.1
			c-0.1,0.1-0.1,0.2-0.1,0.3s0,0.2-0.1,0.3s-0.1,0.2-0.1,0.4s-0.1,0.4-0.1,0.7s-0.1,0.6-0.1,0.7c0,0.2,0,0.3-0.1,0.3
			s-0.1,0.1-0.1,0.1c0,0.1-0.1,0.1-0.1,0.3s-0.1,0.2-0.2,0.4c-0.1,0.1-0.1,0.2-0.2,0.4s-0.1,0.3-0.2,0.4c-0.1,0.1-0.1,0.2-0.1,0.3
			c0,0.1-0.1,0.2-0.2,0.3c-0.1,0.1-0.2,0.3-0.4,0.4c-0.2,0.2-0.5,0.3-0.7,0.3c-0.2,0-0.4,0.1-0.6,0.2c-0.1,0-0.2,0.1-0.4,0.1
			c-0.4,0-0.6,0-0.7-0.2c-0.1-0.1-0.1-0.3-0.1-0.7c0-0.3-0.1-0.5-0.2-0.7c-0.1-0.1-0.2-0.2-0.2-0.4c0-0.1,0.1-0.2,0.2-0.3
			c0.2-0.1,0.4-0.1,0.6,0c0.4,0.1,0.7,0.1,0.9,0c0.1-0.1,0.2-0.1,0.3-0.3c0.1-0.1,0.2-0.3,0.2-0.4c0-0.2,0.1-0.3,0.2-0.4
			c0.1,0,0.1-0.1,0.2-0.2c0.1-0.1,0.1-0.3,0-0.4s-0.1-0.2-0.1-0.3s0-0.2,0-0.4c0-0.2,0-0.4,0-0.4s-0.1-0.1-0.1-0.1
			c-0.1,0-0.2,0.1-0.5,0.3c-0.1,0.1-0.2,0.2-0.3,0.2c-0.1,0-0.3,0.2-0.6,0.5c-0.1,0.1-0.2,0.2-0.2,0.3s-0.1,0.1-0.1,0.2
			c0,0,0,0.1-0.1,0.1c0,0-0.1,0.1-0.2,0.2c-0.1,0.1-0.2,0.2-0.3,0.2c-0.1,0.1-0.1,0.1-0.2,0.1c-0.1,0.1-0.2,0.2-0.5,0.4
			c-0.1,0.1-0.2,0.1-0.3,0.2c-0.1,0-0.2,0.1-0.2,0.1s-0.1,0.1-0.3,0.1s-0.3,0.1-0.4,0.2c-0.3,0.3-0.6,0.4-0.9,0.5
			c-0.2,0-0.4,0.1-0.6,0.3c-0.1,0.1-0.2,0.1-0.3,0.1c0,0-0.1,0-0.2,0.1s-0.2,0.1-0.2,0.1s-0.1,0.1-0.3,0.1c-0.1,0.1-0.2,0.1-0.3,0.1
			c-0.1,0.1-0.3,0.1-0.6,0.2c-0.2,0-0.6,0.1-1,0.3c-0.1,0.1-0.2,0.1-0.4,0c-0.3,0-0.5-0.1-0.6-0.1c-0.1-0.1-0.1-0.2,0-0.3
			c0-0.1,0.1-0.1,0.2-0.2s0.1-0.1,0.2-0.1c0,0,0.1,0,0.2,0c0.1,0,0.2-0.1,0.4-0.2s0.3-0.1,0.4-0.2c0.1-0.1,0.4-0.2,0.7-0.2
			c0.1,0,0.3-0.1,0.7-0.3c0.3-0.1,0.5-0.2,0.8-0.3c0.1,0,0.2-0.1,0.4-0.2c0.1-0.1,0.2-0.2,0.2-0.2c0.1-0.1,0.2-0.2,0.5-0.3
			c0.2-0.1,0.4-0.2,0.6-0.4c0.4-0.3,0.6-0.5,0.6-0.5c0,0,0.1,0,0.1-0.1c0,0,0.1-0.1,0.1-0.1c0.2-0.1,0.3-0.3,0.5-0.6
			c0.2-0.3,0.4-0.5,0.5-0.7c0.2-0.2,0.3-0.3,0.4-0.3c0.1-0.1,0.3-0.3,0.4-0.6c0-0.1,0.1-0.3,0.1-0.4s0-0.2,0-0.2
			c0,0-0.1-0.1-0.2-0.2c-0.1-0.1-0.2-0.1-0.2-0.2c-0.1,0-0.1-0.1-0.2-0.1c-0.1-0.1-0.1-0.1-0.1-0.1c-0.1,0-0.1,0.2-0.2,0.4
			c0,0.2-0.1,0.4-0.3,0.4c-0.1,0.1-0.1,0.1-0.2,0.1c-0.1,0.1-0.2,0.2-0.2,0.4c0,0,0,0.1-0.1,0.2s-0.1,0.2-0.1,0.2s-0.2,0.1-0.3,0.2
			c-0.3,0.3-0.5,0.5-0.6,0.5c-0.1,0-0.2,0.1-0.2,0.2c-0.1,0.2-0.2,0.3-0.3,0.3c-0.1,0-0.2,0-0.4,0.1c-0.1,0.1-0.2,0.2-0.3,0.3
			c-0.1,0.1-0.1,0.1-0.2,0.1c-0.1,0-0.1,0.1-0.1,0.1c0,0.1-0.2,0.2-0.6,0.4c-0.1,0.1-0.1,0.1-0.1,0.1s0,0.1-0.1,0.1
			c-0.1,0.1-0.1,0.1-0.2,0.1c-0.3,0.3-0.5,0.4-0.6,0.4c-0.1,0-0.2,0.1-0.4,0.1c-0.2,0.1-0.3,0.1-0.3,0.2c-0.2,0.1-0.5,0.2-0.8,0.3
			c-0.2,0-0.3,0-0.3,0c-0.1-0.1-0.1-0.2,0-0.3c0-0.1,0.1-0.1,0.1-0.1c0.3-0.1,0.5-0.2,0.7-0.4c0.2-0.2,0.3-0.3,0.3-0.3
			c0,0,0.1-0.1,0.2-0.1c0.2-0.1,0.3-0.2,0.5-0.2c0.1,0,0.3-0.2,0.5-0.4c0.3-0.3,0.5-0.5,0.6-0.5c0,0,0.1,0,0.1-0.1
			c0,0,0.1-0.1,0.2-0.1c0.1-0.1,0.2-0.1,0.3-0.2s0.1-0.1,0.2-0.1c0,0,0.1-0.1,0.3-0.1s0.2-0.1,0.2-0.2c0-0.1,0-0.2-0.1-0.3
			c-0.1-0.1-0.1-0.2-0.1-0.2s0-0.1-0.1-0.1c0-0.1-0.1-0.1-0.2-0.1c-0.4,0-0.7,0-0.8,0c0,0-0.1,0.1-0.3,0.2c-0.1,0.1-0.3,0.2-0.4,0.4
			c-0.2,0.2-0.5,0.4-0.6,0.4c-0.1,0-0.2,0.1-0.3,0.2c-0.1,0.1-0.2,0.2-0.3,0.3s-0.1,0.1-0.1,0.1c0,0-0.1,0.1-0.2,0.2
			s-0.3,0.2-0.4,0.2c-0.1,0.1-0.3,0.1-0.4,0.2s-0.2,0.2-0.2,0.2c0,0-0.1,0-0.2,0.1c-0.1,0.1-0.2,0.1-0.2,0.1
			c-0.1,0.1-0.3,0.2-0.5,0.3c-0.1,0-0.2,0.1-0.3,0.1c-0.1,0.1-0.3,0.1-0.4,0.1c0,0-0.1-0.1-0.1-0.1s0,0,0-0.1c0,0,0-0.1,0.1-0.2
			c0.1-0.1,0.2-0.2,0.2-0.2c0.2-0.2,0.3-0.3,0.5-0.3c0.1,0,0.3-0.1,0.5-0.3c0.5-0.5,0.8-0.7,1-0.8c0.1-0.1,0.2-0.1,0.2-0.1
			c0.1,0,0.2-0.1,0.3-0.4c0.1-0.1,0.2-0.2,0.2-0.3s0.1-0.2,0.3-0.4c0.1-0.2,0.2-0.3,0.3-0.4c0.1-0.1,0.2-0.2,0.2-0.3
			c0.1-0.2,0.1-0.3,0.1-0.3c0,0-0.1,0-0.4,0c-0.2,0-0.3,0-0.4,0s-0.1,0.1-0.2,0.2c-0.1,0.2-0.2,0.3-0.3,0.4c0,0-0.1,0.1-0.2,0.1
			c-0.1,0-0.1,0.1-0.2,0.1c-0.2,0.1-0.4,0.2-0.7,0.4c-0.1,0.1-0.2,0.1-0.3,0.2c-0.5,0.2-0.8,0.4-1,0.6c0,0-0.1,0.1-0.2,0.1
			c-0.1,0.1-0.4,0.2-0.7,0.4c-0.1,0.1-0.3,0.1-0.5,0c-0.3-0.1-0.5-0.2-0.6-0.4c-0.1-0.2-0.2-0.4-0.2-0.5c0,0,0-0.1-0.1-0.2
			s-0.1-0.2-0.1-0.3c0,0,0-0.1-0.1-0.2c-0.1-0.1-0.1-0.3-0.1-0.4c0-0.1,0.1-0.3,0.1-0.4c0.1-0.1,0.1-0.2,0.3-0.2
			c0.2-0.1,0.5-0.1,0.8-0.1c0.2,0,0.4,0,0.5,0c0.1,0,0.2,0,0.3,0s0.2,0,0.3-0.1c0.1,0,0.2-0.1,0.3-0.1c0.2,0,0.3-0.1,0.4-0.2
			c0-0.1,0.1-0.5,0.1-1.4s0.1-1.4,0.1-1.5c0-0.1,0-0.4,0-1s0-0.9,0-0.9c0-0.1-0.1-0.2-0.2-0.3c0,0-0.2-0.1-0.3-0.1
			c-0.3-0.1-0.7,0-1,0.1c-0.1,0-0.3,0-0.4,0c-0.2,0-0.3-0.1-0.5-0.1c-0.1-0.1-0.2-0.1-0.2-0.1c0,0,0-0.1-0.1-0.1
			c-0.1-0.2-0.1-0.5,0-0.7c0.1-0.1,0.2-0.2,0.3-0.2c0.1,0,0.3,0,0.6,0c0.3,0.1,0.6,0.1,0.9,0.1s0.4,0,0.5,0c0.2,0,0.3-0.1,0.4-0.2
			c0-0.1,0.1-0.5,0.1-1.2s0-1.2,0-1.3c0-0.2-0.1-0.6,0-1.2c0-0.3,0-0.5,0.1-0.6c0-0.1,0.1-0.2,0.1-0.2S320.8,125,320.9,125z
			 M329.5,129.6c-0.2,0-0.4,0-0.5,0c-0.2,0-0.4,0-0.7,0c-0.3,0-0.5,0.1-0.6,0.1c-0.1,0-0.1,0.1-0.1,0.1c-0.1,0.1-0.2,0.3-0.2,0.8
			c0,0.3,0.1,0.4,0.2,0.5c0.1,0,0.2,0.1,0.3,0.2c0.2,0.1,0.3,0.2,0.5,0.1c0.1,0,0.2,0,0.3,0c0.2,0.1,0.4,0.1,0.5,0
			c0.1,0,0.2,0,0.5,0s0.4,0,0.5-0.1c0.1-0.1,0.2-0.1,0.2-0.1c0,0,0-0.1,0.1-0.2c0.1-0.2,0.1-0.4,0-0.6c0-0.1,0-0.2,0-0.2
			c0-0.1,0-0.2,0-0.2c0,0-0.1-0.1-0.2-0.2c-0.1-0.1-0.2-0.1-0.2-0.2C329.8,129.7,329.7,129.7,329.5,129.6z M329.7,127.3
			c-0.1-0.1-0.5-0.1-1-0.1c-0.3,0-0.5,0-0.6,0s-0.2,0.1-0.3,0.2c-0.1,0.1-0.1,0.1-0.2,0.1c-0.2,0-0.2,0.2-0.2,0.7c0,0.2,0,0.3,0,0.4
			c0,0.1,0.1,0.2,0.2,0.2c0.1,0.1,0.2,0.1,0.3,0.1s0.3,0.1,0.6,0.1c0.4,0,0.7,0.1,0.9,0.1c0.2,0,0.3,0,0.4,0
			c0.2-0.1,0.4-0.2,0.4-0.3c0-0.1,0-0.2,0-0.3c0-0.2-0.1-0.4-0.1-0.6c-0.1-0.2-0.1-0.3-0.2-0.4C329.9,127.4,329.8,127.3,329.7,127.3
			z"/>
		<path class="st3" d="M341.5,144.6l-0.1-0.1l-0.1-1.5l0.1,0l0-0.2l0.4-0.1l0-0.2l0.7-0.1l0-0.3l0.3,0l0-0.3l0.3-0.1l0-0.7l0.3-0.1
			l0-0.1l0.3,0l0-0.2l0.3-0.1l0-0.3l0.4-0.1l0-0.3l0.3-0.1l0-0.2l0.1,0l0-0.1l0.1,0l0-0.4l0.1,0l0-0.3l0.1,0l-0.1-0.9l0.3-0.1l0-0.3
			l0.3-0.1l0-0.1l0.1,0l0-0.2l0.1,0l0-0.7l0.1,0l0-0.5l-0.1,0l-0.1-1l0.1,0l0-0.2l0.1,0l0-0.2l0.1,0l0-0.2l-0.1,0l-0.1-1h0.1l0-0.1
			h-0.1l-0.3-5.1c-0.3-0.1-0.6-0.1-1-0.1c-0.3,0-0.7,0-1,0.1l-0.5,0.2l0,0.4l-0.1,0l0,0.1l-0.3,0.1l-0.3,0l-1.6,0.2l0.1,1.5l0.1,0
			l0,0.1l0.1,0l0,0.5l0.4,0l0.7-0.1l0-0.2l0.3-0.1l0-0.3l0.3,0l0-0.2l0.6-0.1l0.1,0.1v0.1l0.3,0l0,0.2l0.3,0l0,0.1l0.3,0.1l0,0.3
			l0.3,0.1l0.1,1.2l-0.1,0l0,0.2l-0.1,0l0.3,4.7l-0.1,0l0,0.1l-0.8,0l-0.3,0l-0.8,0.1l0-0.3l-0.1,0l0-0.2l0.1,0l0-0.3l-0.1,0l0-0.4
			h-1l-0.5,0.1l0.1,1.1l-0.1,0l0,0.1l-0.3,0l0,0.4l-0.1,0l0,0.8l-0.3,0l0,0.2l-0.1,0l0,0.1l-0.3,0l0,0.4l0.1,0l0,0.3l-0.1,0l0,0.7
			l-0.3,0.1l0,0.3l-0.3,0l0,0.3l-0.3,0l0,0.6l-0.3,0.1l0,0.2l-0.3,0l0,0.1l-0.1,0l0,0.2l-0.1,0l0,0.2l-0.1,0l0,0.1l-0.1,0l0,0.3
			l-0.1,0l0,0.2l0.1,0l0,0.1l-0.1,0l0,0.1l-1,0.1l-0.1-0.1l-0.1-1.4l0.3,0l0-0.1l0.1,0l0-0.1l0.4-0.1l0-0.2h-0.1l0.2-0.1l0-0.5
			l0.3-0.1l0-0.1l0.1,0l0-0.1l0.1,0l0-0.3l0.1,0l0-0.7l0.1,0l0-0.8l0.3,0l0-0.2l0.1,0l0-0.5l0.1,0l-0.1-1.7l0.3,0l0-0.1l0.3-0.1
			l-0.2-3.7h-0.1h0.1l0-0.7h-0.1l0-0.1h0.1l0-0.6H339h0.1l-0.1-1.8h-0.1v-0.1h0.1l0-0.3l-0.1,0l0-0.6l0.1,0l0-0.4h-0.1h0.1l0-0.2
			l-0.1,0l0-0.5l0.1,0l0-0.4l0.3,0l0-0.1l0.2,0l0.1,0.1l0,0.2l0.1,0l0.4-0.1l0,0.2l0.1,0l0,0.3l1.2-0.1l0-0.2l0.1,0l0-0.1l0.5-0.2
			l0-0.1l0.1,0l0-0.1l0.3,0l0-0.6l0.3-0.1l0,0.1l0.1,0l0.3-0.1v0.1l0.1,0l0.5-0.1l0,0.6l0.1,0l0,0.3l0.3,0v0.1l0.5,0.1l0.6-0.1
			l0,0.1l0.6,0v-0.1h0.1v0.1l0.1,0l0,0.2l0.1,0l0,0.2l0.7,0.1l0.2-0.1v-0.1h0.1l0,0.2l0.2,0l0-0.1h0.1l0,0.1l0.4,0l0.5-0.2l0-0.1
			l1-0.1l0-0.2l0.4-0.2l0-0.1l0.4-0.2l0-0.1l0.4,0l0-0.6l0.1,0l0-0.2l0.4,0l0.5,0l0,0.1l0.6,0.2l0,0.5l0.1,0l0,0.1l0.1,0l0,0.2
			l0.3,0.1l0,0.2l0.3,0l0,0.1l0.1,0l0,0.1l0.1,0l0,0.1l0.1,0l0.1,1.2l-0.4,0.1l0,0.1l-0.2,0l-0.2-0.1v0.1h-0.1v-0.1l-0.1,0l-0.4,0.1
			l0-0.1l-0.6,0l0,0.1l-0.2,0l-0.1-0.1l0-0.1l-0.6,0l0,0.1l-0.1,0v0.1l-0.2,0.1l-0.4,0l0,0.1h-0.1l0-0.1l-1.9,0.1l-0.2,0.1l0,0.1
			l-0.3,0.1l0,0.2l-0.3,0.1l0.2,2.6l0.3,0.1l0,0.2l0.1,0l0.3-0.1l0,0.2l0.3,0l0.2-0.1v-0.1l0.9-0.1h1.1l0,0.4l0.1,0l0,0.1l0.5,0
			l0-0.5l0.1,0l0-0.1l0.1,0l0-0.1l0.3-0.1l0-0.1l0.1,0l0-0.1l0.1,0l0-0.1l0.1,0l0-0.1l0.1,0l0-0.1l0.1,0l0-0.4l0.2,0l0,0.1l0.6,0.1
			l0,0.3l0.3,0l0,0.1l0.1,0l0,0.2l0.6,0l0,0.3l0.1,0l0,0.1l0.1,0l0,0.5l0.1,0l0,0.1l-0.1,0l0,0.3l0.1,0l0,0.6l-0.1,0l0,0.1l-0.3,0
			v0.1h-0.1l0-0.1l-0.2,0l0,0.1h-0.1v-0.1l-0.2,0l0,0.1l-0.2,0v-0.1l-0.3,0v0.1H353l0-0.1l-0.8,0l-0.2,0.1l0,0.1l-0.1,0l0,0.3
			l-0.1,0l0,0.2l-0.1,0l0.3,5h0.1v0.1H352l0.1,2.1h0.1h-0.1l0,0.3l0.1,0l0,0.3l-0.1,0l0,0.6h0.1v0.1h-0.1l0,0.3l-0.1,0v0.1l-0.6,0
			l0,0.1l-0.1,0l0,0.3l-0.4,0.1l0,0.1l-0.2,0l0-0.3l-0.4,0l0,0.1l-0.2,0l-0.4-0.1l0-0.3l-0.1,0l0-0.3h-0.1v-0.1h0.1l0-0.3h-0.1h0.1
			l0-0.3l0.1,0l0-0.5l-0.1,0l0-0.2l0.1,0l-0.1-1.2l0.3-0.1l-0.1-1.8l-0.1,0l0-0.1l0.1,0l-0.1-1.3l0.5-0.2l0-0.8h-0.1h0.1l0-0.3
			l-0.1,0l0-0.3l0.1,0l-0.1-0.9l-0.1,0l0-0.2l-0.1,0l-0.3,0.1l0-0.1l-0.1,0l0-0.9l-0.2,0l0,0.1H349l0-0.2l-1.4,0.1l-0.2,0.1l0,0.4
			l-0.1,0l0,0.7h-0.1l0,0.1h0.1l0,0.3l-0.1,0l0,0.7l-0.3,0.1l0,0.1l-0.1,0l0,0.3l0.1,0l0.1,1l-0.1,0l0,0.4l-0.3,0.1l0,0.1l-0.1,0
			l0,0.2l-0.1,0l0,0.1l-0.1,0l0,0.3l-0.1,0l0,0.6l-0.1,0l0,0.1l-0.1,0l0,0.3l-0.5,0.2l0,0.2h-0.1l0,0.1h0.1l0,0.3l-0.1,0l0,0.1
			l-0.1,0l0,0.1l-0.1,0l0,0.3l-0.3,0l0,0.2l-0.1,0l0,0.2l-0.5,0.2l0,0.1l-0.4,0.1l0,0.5l-0.1,0l0,0.2l-0.1,0l0,0.2l-0.3,0.1l0,0.1
			l-0.1,0l0,0.1l-0.1,0l0,0.3l-0.3,0.1l0,0.2l-0.1,0l0,0.1l-0.1,0l0,0.1l-0.1,0l0,0.1l-0.7,0.2l0,0.1L341.5,144.6z M342.7,135.4
			L342.7,135.4L342.7,135.4L342.7,135.4l0.3,0l-0.2-2.8l-0.1,0l0-0.1h0.1l0-0.5l-0.6,0l0-0.2l-0.4-0.1l0-0.1l-0.1,0l0-0.2l-0.3,0
			l-0.3,0.1l0,0.5l-0.1,0l0,0.2l-0.1,0l0.2,3.2l0.7,0l0,0.1l0.3,0L342.7,135.4z"/>
	</g>
	<g>
		<path class="st5" d="M104.8,134.2l-0.5-1.3l-0.1,0.1l-0.1,0.4l0,0c-0.1,0.4-0.2,0.7-0.3,0.9c-0.1,0.2-0.2,0.4-0.3,0.6
			c-0.1,0.1-0.2,0.2-0.4,0.3c-0.1,0.1-0.3,0.2-0.4,0.2c-0.3,0.1-0.7,0.1-1.1-0.1c-0.3-0.2-0.6-0.4-0.8-0.7c-0.2-0.2-0.5-0.6-0.8-1.1
			s-0.5-1.1-0.7-1.9c-0.2-0.8-0.2-1.7-0.1-2.7c0,0,0,0,0,0c0.4-0.9,0.8-1.6,1.4-2c0.5-0.4,0.9-0.8,1.3-1.2l0,0l0.2-0.3
			c-0.1-0.3-0.3-0.6-0.5-0.8l-0.2,0c-0.6,0.2-1.3,0.3-2.3,0.3c-1,0-2-0.3-3-0.8c-0.1,0-0.1-0.1-0.1-0.1c0-0.1,0-0.1,0-0.1
			c0-0.3,0.4-0.4,1.2-0.4c0.7,0.1,1.3,0,1.9-0.1c0.5-0.1,1.2-0.2,2-0.5v-0.1l-0.4-1l-0.1-0.2c-0.5-0.2-0.9-0.4-1-0.6
			c-0.1-0.1-0.2-0.4-0.2-0.9c0,0,0-0.1,0-0.1l0.2-0.3c0,0,0.1-0.1,0.1-0.1c0.3-0.1,0.6-0.3,0.9-0.5c0.1-0.1,0.1-0.1,0.2,0l0.5,0.2
			c0,0,0.1,0,0.1,0.1c0.2,0.3,0.3,0.5,0.5,0.7l0.2,0.2l0.1,0c0.4-0.2,0.7-0.3,0.9-0.3c0,0,0,0,0,0c0.4,0,0.7,0,0.9,0.2
			c0.2,0.2,0.3,0.4,0.3,0.7c0,0.3-0.2,0.9-0.5,1.8l0,0l-0.2,0.3l-0.1,0.3l0,0c0,0.3,0,0.5,0,0.8l0.2,0.6c0.2-0.2,0.4-0.4,0.6-0.6
			c0.3-0.2,0.6-0.4,0.9-0.6s0.7-0.3,1-0.4c0.3-0.1,0.7-0.1,1-0.1c0.3,0,0.7,0,1.1,0.1c0.4,0.1,0.9,0.2,1.5,0.5
			c0.6,0.2,1.2,0.7,1.8,1.3c0.6,0.6,0.9,1.1,1,1.5c0.1,0.4,0.2,0.9,0.2,1.6c0.1,0.7-0.1,1.4-0.5,2.3c-0.4,0.8-0.7,1.4-0.9,1.7
			s-0.5,0.8-0.8,1.1c-0.3,0.4-0.7,0.8-1.1,1c-0.4,0.3-0.7,0.4-0.9,0.5c-0.3,0.1-0.6,0-0.7-0.4c-0.1-0.1,0-0.2,0.1-0.2
			c0.6-0.3,1-0.7,1.4-1.2c0.3-0.5,0.6-1.1,0.8-1.6s0.3-1.2,0.4-2c0.1-0.8,0-1.5-0.2-2s-0.5-1-1-1.4c-0.5-0.4-1-0.8-1.4-1
			c-0.4-0.2-0.9-0.3-1.4-0.4s-0.9,0-1.3,0.1c-0.3,0.1-0.7,0.3-0.9,0.4l-0.5,0.6l0,0.2c0,0,0.1,0.2,0.2,0.6c0.2,0.6,0.4,1.1,0.8,1.6
			c0,0,0,0,0,0.1c0.1,0.3,0.1,0.5,0.2,0.7c0.2,0.7,0.3,1.4,0.4,2.1c0.2,0.6,0.6,1.3,1.1,2.3c0,0,0,0,0,0l0.6,1.6c0,0,0,0.1,0,0.1
			l-0.1,0.3c0,0,0,0,0,0l-0.5,0.6c0,0-0.1,0.1-0.1,0.1l-0.9,0c-0.1,0-0.1,0-0.2-0.1c-0.1-0.3-0.2-0.6-0.2-0.8c0-0.2-0.1-0.4,0-0.6
			c0,0-0.1,0-0.1,0L104.8,134.2C104.9,134.2,104.8,134.2,104.8,134.2z M103.1,132c0.1-0.4,0.2-0.9,0.2-1.4c0-0.5,0-1-0.1-1.6
			c-0.1-0.6-0.3-1.1-0.7-1.6c-0.1,0-0.3,0.1-0.6,0.3c-0.3,0.3-0.6,0.6-0.8,0.9c-0.1,0.6-0.1,1.1-0.1,1.7c0.1,0.6,0.3,1.2,0.5,1.8
			l0.4,0.5l0.4,0C102.5,132.6,102.8,132.4,103.1,132z"/>
		<path class="st5" d="M125.5,128.6c-0.9,0.3-1.8,0.3-2.7,0.1c-0.9-0.2-1.6-0.5-2.1-0.9c-0.5-0.3-0.8-0.8-1.1-1.3
			c-0.3-0.5-0.4-1.1-0.5-1.6c0-0.1,0-0.2,0-0.3c0-0.1-0.1-0.1-0.1-0.1c-0.2,0.1-0.6,0.2-1.1,0.5c-0.5,0.3-1,0.4-1.3,0.4
			c-0.3-0.1-0.5-0.4-0.6-1.1c-0.1-0.6,0-1.1,0.2-1.5c0.2-0.4,0.4-0.9,0.8-1.6c0.3-0.7,0.6-1.5,0.9-2.5c0.3-1,0.4-1.8,0.5-2.4
			c0-0.6,0-1-0.1-1.1c0,0-0.1,0-0.1,0c0,0-0.1,0.1-0.1,0.1c-0.1,0.1-0.2,0.2-0.3,0.4c-0.3,0.6-0.8,0.9-1.3,0.8
			c-0.5-0.1-1-0.3-1.4-0.8c-0.1-0.1-0.1-0.1,0-0.2l0.2-0.4c0.2-0.4,0.5-0.5,1-0.3c0.3,0.1,0.6,0,0.8-0.2c0.3-0.3,0.6-0.6,0.8-0.8
			c0.3-0.2,0.7-0.3,1.1-0.3c0.4,0,0.7,0.1,1,0.3c0.3,0.2,0.5,0.4,0.6,0.7c0.1,0.3,0,0.6-0.3,1c-0.2,0.3-0.4,0.8-0.6,1.4
			c-0.2,0.7-0.3,1.4-0.6,2.2s-0.4,1.4-0.6,2c-0.2,0.5-0.3,0.9-0.3,1.2c0,0.3,0.1,0.5,0.3,0.6c0.2,0.1,0.7,0,1.5-0.5
			c0.8-0.5,1.7-1.1,2.6-1.8c1-0.8,1.7-1.3,2.2-1.6c0.5-0.3,1-0.4,1.4-0.4c0.5,0,0.7,0.3,0.7,0.7c0,0.4-0.2,0.7-0.6,1
			c-0.3,0.2-1.1,0.6-2.3,1.2c-1.2,0.6-2.1,1.2-2.6,1.7c-0.5,0.5-0.8,0.9-1,1.3c-0.1,0.4-0.1,0.7,0,1c0.1,0.3,0.3,0.6,0.6,0.8
			c0.3,0.3,0.7,0.5,1.1,0.7c0.4,0.2,0.8,0.3,1.2,0.3c0.4,0,0.8-0.1,1.1-0.2l0.8-0.2c0.2-0.1,0.5-0.1,0.8,0c0.3,0.1,0.5,0.2,0.7,0.4
			c0.2,0.2,0.3,0.5,0.2,0.7C126.8,127.7,126.3,128,125.5,128.6C125.5,128.6,125.5,128.6,125.5,128.6z"/>
		<path class="st5" d="M130.5,114.4l0.3-0.4c0.1-0.1,0.1-0.1,0.2-0.1c0.5,0.3,0.9,0.5,1.1,0.6c0.2,0,0.4-0.1,0.6-0.3
			c0.3-0.3,0.7-0.7,1.3-1.3c0.6-0.6,1.1-0.9,1.4-1c0.4-0.1,0.7,0,0.9,0.2c0.2,0.2,0.2,0.5,0.2,0.9c0,0.4-0.2,0.8-0.5,1.2
			s-0.6,0.8-1.1,1c-0.4,0.2-0.6,0.4-0.8,0.8c-0.1,0.4-0.4,1.1-0.8,2.1c-0.3,1-0.5,1.8-0.5,2.3c0,0.3,0,0.5,0.1,0.8
			c0.1,0.3,0.1,0.5,0.3,0.8c0.2,0.5,0.6,0.9,1.1,1.2c0.5,0.3,1,0.4,1.5,0.3c0.5-0.1,1.1-0.4,1.8-0.9c0.7-0.5,1.2-1.1,1.6-1.7
			c0.4-0.7,0.8-1.4,1-2.3c0.3-0.9,0.4-1.8,0.4-2.8s-0.1-1.8-0.2-2.2c-0.1-0.4-0.3-0.9-0.7-1.5c-0.3-0.6-0.6-1-0.9-1.1
			c-0.3-0.2-0.5-0.4-0.5-0.5c-0.1-0.2,0.1-0.4,0.4-0.5c0.2,0,0.4-0.1,0.6-0.3c0.2-0.2,0.5-0.3,0.8-0.2c0.3,0.1,0.5,0.4,0.7,0.9
			l0.3,1.3c0.1,0.4,0.4,1,1.1,1.8c0.6,0.8,1.4,1.6,2.3,2.4c0.9,0.8,1.6,1.5,2,2c0.5,0.5,0.7,1,0.7,1.4c0,0.4-0.2,0.8-0.6,1
			c-0.3,0.2-0.7,0.3-1.1,0.2c-0.4,0-0.7-0.2-0.9-0.6c-0.2-0.3-0.4-0.7-0.6-1.3c-0.2-0.5-0.6-1.2-0.9-1.9c-0.3-0.6-0.7-1.2-1.2-1.8
			c0.1,1.3,0.1,2.4-0.1,3.1c-0.1,0.9-0.4,1.7-0.7,2.5c-0.3,0.8-0.7,1.5-1.1,2c-0.5,0.6-1.1,1.1-1.8,1.5c-0.4,0.2-0.7,0.4-1,0.5
			c-0.3,0.1-0.6,0.2-0.9,0.3c-0.6,0.1-1.1,0.1-1.6,0c-0.5-0.1-1-0.4-1.5-0.8c-0.4-0.4-0.8-0.9-1.1-1.6c-0.3-0.7-0.4-1.4-0.5-2.2
			c-0.1-0.8,0-1.6,0.2-2.2c0.2-0.6,0.5-1.3,0.9-2.2c-0.8,0.1-1.3,0.1-1.6-0.2c-0.3-0.3-0.5-0.7-0.6-1.2
			C130.4,114.5,130.4,114.5,130.5,114.4z M141.3,110.2l0.3-0.4c0-0.1,0.1-0.1,0.1-0.1c1.2,0,2,0.2,2.6,0.7c0.5,0.5,0.7,1,0.7,1.4
			c-0.1,0.4-0.3,0.7-0.7,0.8c-0.4,0.1-0.8,0-1.1-0.3c-0.3-0.3-0.5-0.6-0.6-1c-0.1-0.3-0.4-0.6-1.2-0.8
			C141.3,110.4,141.3,110.3,141.3,110.2z M142.4,108.9l0.2-0.4c0-0.1,0.1-0.1,0.1-0.1c1.2-0.1,2,0.1,2.5,0.5
			c0.5,0.4,0.7,0.8,0.7,1.2c-0.1,0.4-0.3,0.7-0.7,0.8c-0.4,0.1-0.8,0-1.1-0.3c-0.3-0.3-0.6-0.6-0.8-0.9c-0.2-0.3-0.5-0.5-0.9-0.6
			C142.4,109.1,142.4,109,142.4,108.9z"/>
		<path class="st5" d="M158.6,120.4c-0.2,0-0.4-0.1-0.6-0.1c0,0-0.1,0-0.1-0.1c-0.1-0.2-0.2-0.4-0.2-0.7c0,0,0-0.1,0-0.1
			c0.1-0.3,0.3-0.6,0.6-0.9c0.2-0.3,0.4-0.6,0.4-0.8c0.1-0.2,0.2-0.5,0.4-0.9c0.2-0.4,0.4-1,0.7-1.7c0,0,0,0,0,0
			c0.3-0.7,0.5-1.4,0.8-2.1c0,0,0,0,0,0c0.1-0.2,0.2-0.4,0.2-0.6c-0.4,0.3-0.8,0.6-1.2,0.9c-0.4,0.3-0.9,0.5-1.6,0.5
			c-0.6,0-1.1-0.1-1.4-0.5c0,0,0-0.1,0-0.1l0-0.4c0,0,0-0.1,0-0.1c0.1-0.3,0.4-0.5,0.7-0.5c0.3,0,0.5-0.1,0.8-0.2
			c0.2-0.1,0.6-0.2,1.1-0.3c0.5-0.1,0.8-0.2,1-0.3s0.4-0.2,0.6-0.5c0.1-0.4,0.2-0.8,0.1-1.2c-0.1-0.4-0.2-0.6-0.4-0.8
			c-0.2-0.2-0.4-0.3-0.6-0.4c0,0-0.1-0.1-0.1-0.1l0-0.2c0,0,0-0.1,0-0.1c0.1-0.2,0.2-0.3,0.4-0.4c0.1,0,0.2-0.1,0.4-0.2
			c0.1-0.1,0.4-0.2,0.8-0.2c0.4,0,0.8,0.1,1.1,0.4c0.4,0.3,0.5,0.9,0.6,1.9l0.2,0.1c0.6-0.2,1.1-0.2,1.5-0.2c0.5,0.1,0.9,0.4,1.1,1
			c0.2,0.5,0.3,1.2,0.4,1.8c0.2,1.9,0.1,3.3-0.2,4.4s-0.5,1.7-0.7,2.1c0,0,0,0,0,0c-0.3,0.4-0.6,0.6-0.9,0.7c0,0-0.1,0-0.1,0
			l-0.3-0.1c0,0-0.1,0-0.1,0c-0.6-0.4-0.9-0.8-1-1.2c-0.1-0.3-0.3-0.6-0.4-0.8c-0.2-0.2-0.5-0.4-0.8-0.6c-0.1,0-0.1-0.1-0.1-0.1
			l0-0.3c0-0.1,0.1-0.2,0.2-0.2h0.4c0,0,0,0,0,0l0.3,0.1c0,0,0,0,0,0c0.3,0.2,0.7,0.2,1.1,0.2c0.1-0.1,0.2-0.2,0.4-0.3
			c0.6-1.6,0.7-3.2,0.3-4.8c0,0,0,0,0,0c0-0.2-0.1-0.4-0.3-0.6l-0.4-0.2l-0.5,0.1l-0.2,0.2c-0.4,1-0.7,1.8-0.8,2.5
			c-0.1,0.7-0.3,1.4-0.5,2c-0.2,0.6-0.4,1.1-0.5,1.5c-0.1,0.4-0.2,0.7-0.3,1.1c-0.1,0.4-0.2,0.8-0.5,1.2c-0.1,0.2-0.3,0.4-0.4,0.6
			s-0.3,0.3-0.5,0.4c0,0,0,0,0,0L158.6,120.4C158.6,120.5,158.6,120.5,158.6,120.4z M168.2,115.9l-0.1-0.1c-0.1-0.1-0.1-0.2,0-0.3
			c0.1-0.1,0.5-0.3,1-0.6c0.5-0.3,0.9-0.5,1.4-0.8c0.4-0.3,0.7-0.6,0.8-0.8c0.1-0.2,0.1-0.5-0.1-0.8c-0.1-0.3-0.3-0.7-0.6-1.1
			c-0.2-0.4-0.5-0.7-0.9-1.1c-0.4-0.3-0.7-0.6-1.1-0.7c-0.4-0.1-0.7-0.3-0.9-0.4c-0.2-0.2-0.3-0.4-0.2-0.7c0,0,0,0,0.1-0.1
			c0.1-0.1,0.3-0.1,0.7-0.2c0.4,0,0.6,0,0.8,0c0.2,0,0.5,0.1,0.9,0.3h0c1.2,0.8,2,1.3,2.3,1.7c0.4,0.3,0.6,0.7,0.9,1.1
			s0.4,0.9,0.5,1.6c0.1,0.7-0.1,1.2-0.7,1.6c-0.5,0.3-1.1,0.6-1.7,0.8c-0.6,0.2-1,0.3-1.4,0.5S168.9,115.9,168.2,115.9
			C168.2,115.9,168.2,115.9,168.2,115.9z M170,106.3l0.3-0.4c0,0,0.1-0.1,0.2-0.1c1.2,0.1,1.9,0.3,2.2,0.5c0.3,0.2,0.4,0.5,0.5,0.8
			c0,0.3-0.1,0.6-0.5,0.9c-0.4,0.3-0.7,0.3-1.1,0.1c-0.2-0.2-0.5-0.4-0.6-0.7c-0.1-0.2-0.4-0.5-0.9-0.9
			C169.9,106.4,169.9,106.4,170,106.3z M171.5,104.7l0.3-0.4c0.1-0.1,0.1-0.1,0.2-0.1c0.9,0.1,1.6,0.3,1.9,0.5
			c0.3,0.2,0.5,0.5,0.5,0.8c0,0.3-0.1,0.5-0.4,0.7c-0.2,0.1-0.5,0.2-0.8,0.2c-0.3,0-0.5-0.2-0.7-0.5c-0.1-0.3-0.4-0.6-0.9-1
			C171.5,104.9,171.5,104.8,171.5,104.7z"/>
		<path class="st5" d="M183.2,106.2l0.3-0.3c0.1-0.1,0.1-0.1,0.2,0c0.9,0.5,1.6,0.8,2.2,0.9c0.5,0.1,1.1,0.1,1.6,0
			c0.6-0.1,1.1-0.3,1.7-0.6c0.6-0.3,1-0.6,1.4-0.8c0.4-0.2,0.8-0.3,1.2-0.2c0.1,0,0.1,0.1,0.2,0.1c0.3,0.2,0.4,0.4,0.2,0.7
			c-0.1,0.2-0.5,0.6-1.1,1.1c-0.6,0.4-1.1,0.8-1.6,1c-0.4,0.2-0.8,0.4-1,0.6c-0.2,0.2-0.4,0.4-0.5,0.8c-0.1,0.3-0.1,0.5,0,0.7
			c0.1,0.2,0.4,0.3,0.9,0.4c0.5,0.1,1.2,0.1,2.1-0.1c0.4-0.1,0.8-0.2,1.2-0.4l0.1-3.2c0-1.1-0.1-2-0.3-2.7c-0.2-0.7-0.6-1.2-1.3-1.6
			c-0.1-0.1-0.1-0.2,0-0.3l0.4-0.3c0,0,0.1,0,0.1,0c1,0,1.6,0.2,2,0.6c0.3,0.3,0.5,0.7,0.6,1.1c0.6,0.9,1.1,1.6,1.4,2
			c0.3,0.5,0.7,0.8,1.1,0.9c0.5,0.1,0.9,0.4,1.1,0.8c0.2,0.4,0.2,0.8,0,1.2c-0.2,0.3-0.8,0.8-1.8,1.4c-0.7,0.4-1.5,0.8-2.2,1.1v0.1
			c0.1,0.8,0.1,1.8-0.1,3.1c0,0.4-0.1,0.7-0.1,1.1c0.1,0,0.2,0.1,0.4,0.1c1,0.4,1.9,0.8,2.6,1.4c0.7,0.6,1.1,1.1,1.1,1.5
			c0,0.4-0.3,0.7-0.8,0.8c-0.5,0.1-1-0.1-1.5-0.8c-0.4-0.6-1-1.1-1.6-1.5c-0.1-0.1-0.2-0.2-0.4-0.2c-0.1,0.2-0.1,0.4-0.2,0.5
			c-0.4,0.7-0.9,1.2-1.6,1.4c-0.7,0.2-1.4,0.3-2.1,0.3c-0.7,0-1.3-0.2-1.6-0.4c-0.4-0.3-0.6-0.6-0.7-0.9c-0.1-0.4-0.1-0.8,0.2-1.2
			c0.2-0.4,0.7-0.7,1.3-1.1c0.6-0.3,1.4-0.5,2.5-0.5c0.4,0,0.8,0,1.2,0.1c0.1-0.5,0.3-1.1,0.4-1.8c0.1-0.6,0.1-1.1,0.1-1.7
			c-0.7,0.2-1.4,0.4-2,0.4c-0.8,0.1-1.5,0.1-2.1,0c-0.6-0.1-1-0.3-1.3-0.6c-0.2-0.3-0.4-0.5-0.4-0.8c0-0.2,0.1-0.5,0.2-0.9
			s0.3-0.7,0.6-0.9c-0.1,0-0.3,0.1-0.5,0.1c-0.5,0.1-1,0-1.6-0.2c-0.6-0.2-1.2-0.9-1.9-2.1C183.1,106.3,183.1,106.2,183.2,106.2z
			 M191.3,115.9c-0.5-0.1-1-0.1-1.4,0c-0.5,0.1-0.9,0.3-1.3,0.6c-0.3,0.3-0.4,0.5-0.3,0.7c0.1,0.2,0.3,0.2,0.7,0.3
			c0.4,0,0.8,0,1.1-0.1c0.3-0.1,0.6-0.3,0.8-0.6C191,116.5,191.1,116.2,191.3,115.9z M193.6,109.4c0.8-0.4,1.3-0.8,1.5-1.1
			c0.2-0.3,0.3-0.6,0.3-0.7c0-0.2-0.1-0.4-0.3-0.8c-0.1-0.2-0.6-0.7-1.2-1.4c0,0.3-0.1,0.5-0.2,0.8c-0.2,0.9-0.4,1.7-0.4,2.5
			c0,0.3,0,0.6,0,0.8C193.4,109.4,193.5,109.4,193.6,109.4z"/>
		<path class="st5" d="M205.6,103.7l0-0.3c0-0.1,0.1-0.2,0.2-0.1c1.1,0.3,1.8,0.7,2,1.1c0.1,0.2,0.1,0.5,0.1,0.8
			c0.6-0.1,1-0.1,1.3,0c0.4,0.2,0.6,0.4,0.6,0.6c0,0.2-0.2,0.3-0.4,0.6c-0.3,0.2-0.7,0.3-1.1,0.3c-0.2,0-0.5,0-0.9,0.1
			c-0.3,0.6-0.5,1.1-0.6,1.5c-0.1,0.2-0.1,0.4-0.1,0.5c0.2-0.1,0.7-0.4,1.4-0.9c0.7-0.5,1.5-0.9,2.3-1.2c0.9-0.3,1.6-0.3,2.2-0.1
			c0.6,0.2,1.1,0.4,1.5,0.7c0.5,0.3,0.7,0.6,0.7,0.9c0,0.3-0.2,0.5-0.4,0.8s-0.6,0.3-1.1,0.3c-0.4,0-0.9,0.1-1.5,0.3
			c-0.6,0.3-1,0.6-1.2,1c-0.3,0.4-0.4,1-0.5,1.7c-0.1,0.8,0,2,0.3,3.8c1.5,0.6,2.5,1.2,3,1.9c0.6,0.7,0.8,1.2,0.6,1.4
			c-0.1,0.1-0.2,0.2-0.4,0.3c-0.1,0.1-0.3,0.1-0.5,0.1c-0.4,0-0.8-0.2-1.1-0.7c-0.3-0.3-0.9-0.8-1.8-1.5c-0.1,0.8-0.4,1.4-0.9,1.8
			c-0.3,0.2-0.6,0.4-0.9,0.5c-0.3,0.1-0.6,0.2-1,0.2c-0.7,0.1-1.3,0-1.8-0.2s-0.8-0.4-1-0.8c-0.2-0.4-0.3-0.9-0.2-1.5
			c0.1-0.6,0.3-1.1,0.9-1.4c0.5-0.3,1.1-0.5,1.8-0.6c0.6,0,1.1,0,1.7,0.1c-0.1-1.8-0.2-3-0.1-3.6c0.1-0.6,0.2-1.1,0.5-1.7
			s0.6-1.1,1-1.5c0.4-0.4,0.8-0.8,1.1-1.1c0.1-0.1,0.1-0.1,0.2-0.2c-0.1,0-0.2-0.1-0.4-0.1c-0.5-0.1-1.1,0.1-1.8,0.5
			c-0.7,0.4-1.4,0.9-2.2,1.5c-0.7,0.6-1.2,1.1-1.5,1.4c-0.2,0.3-0.6,0.8-1,1.6c-0.4,0.8-0.9,1.5-1.6,2.3c-0.7,0.8-1.3,1.1-1.7,0.7
			c-0.4-0.3-0.5-0.7-0.5-1.2c0.1-0.5,0.5-1,1.2-1.6c0.7-0.5,1.4-1.2,2-2.1s1.1-1.8,1.3-2.7c0.1-0.3,0.1-0.5,0.1-0.8
			c-0.6,0.2-1.2,0.2-1.6,0.3c-0.6,0.1-1.1,0-1.5-0.3c-0.3-0.3-0.6-0.8-0.8-1.5c0-0.1,0-0.1,0.1-0.2l0.4-0.3c0.1-0.1,0.1-0.1,0.2,0
			c0.8,0.5,1.4,0.8,1.7,0.9c0.3,0,0.8,0,1.3-0.1c0.2,0,0.4-0.1,0.6-0.1l0-0.1C206.1,105,206,104.4,205.6,103.7
			C205.6,103.7,205.6,103.7,205.6,103.7z M208.5,116.7c-0.4-0.2-0.9-0.3-1.2-0.2c-0.4,0.1-0.8,0.2-1.1,0.4c-0.3,0.2-0.5,0.4-0.5,0.7
			c0,0.3,0.1,0.6,0.2,0.9c0.1,0.2,0.2,0.3,0.3,0.4s0.3,0.1,0.5,0.2c0.4,0,0.8-0.1,1.1-0.4C208.3,118.3,208.5,117.6,208.5,116.7z"/>
		<path class="st5" d="M220.4,109.2l0.4-0.3c0.1-0.1,0.2-0.1,0.2,0.1c0.3,0.5,0.6,0.8,0.8,1c0.1,0.1,0.4,0.1,0.7,0
			c0.4-0.2,0.9-0.4,1.7-0.7c0.8-0.3,1.4-0.4,1.7-0.4c0.4,0.1,0.7,0.3,0.8,0.6c0.1,0.3,0,0.6-0.2,0.9c-0.2,0.3-0.5,0.7-0.9,0.9
			c-0.4,0.3-0.9,0.4-1.4,0.5c-0.4,0-0.8,0.2-1,0.4c-0.3,0.3-0.8,0.8-1.5,1.6c-0.7,0.8-1.2,1.4-1.4,1.9c-0.1,0.2-0.2,0.5-0.2,0.8
			s-0.1,0.5-0.1,0.8c0,0.6,0.2,1.1,0.5,1.6c0.3,0.5,0.8,0.8,1.3,0.9c0.5,0.1,1.2,0.1,2-0.1c0.8-0.2,1.5-0.5,2.2-0.9
			c0.6-0.4,1.3-1,1.9-1.7c0.6-0.7,1.1-1.5,1.5-2.4s0.6-1.6,0.7-2.1s0.1-1,0-1.7c-0.1-0.7-0.2-1.1-0.4-1.4c-0.2-0.3-0.3-0.5-0.3-0.7
			c0-0.2,0.2-0.3,0.6-0.3c0.2,0,0.4,0,0.6,0c0.3-0.1,0.6,0,0.8,0.2c0.3,0.2,0.4,0.6,0.2,1.1l-0.3,1.3c-0.1,0.4,0,1.1,0.3,2.1
			c0.3,1,0.6,2,1.1,3.1c0.5,1.1,0.8,2,1.1,2.6c0.2,0.7,0.3,1.2,0.1,1.5c-0.2,0.4-0.5,0.6-0.9,0.7c-0.4,0.1-0.8,0-1.1-0.2
			c-0.4-0.2-0.6-0.5-0.6-0.9c0-0.4-0.1-0.8-0.1-1.4c0-0.6,0-1.3-0.1-2.1c-0.1-0.6-0.2-1.3-0.4-2.1c-0.5,1.3-0.9,2.2-1.3,2.8
			c-0.5,0.7-1,1.4-1.6,2c-0.6,0.6-1.2,1.1-1.9,1.4c-0.7,0.3-1.4,0.6-2.2,0.6c-0.4,0-0.8,0-1.1,0c-0.4,0-0.7-0.1-1-0.1
			c-0.6-0.1-1.1-0.3-1.5-0.7c-0.4-0.3-0.8-0.7-1-1.3c-0.3-0.5-0.4-1.2-0.4-1.9c0-0.7,0.1-1.4,0.4-2.2c0.3-0.8,0.6-1.4,1.1-1.9
			c0.4-0.4,0.9-1,1.7-1.7c-0.8-0.2-1.2-0.5-1.4-0.9c-0.2-0.4-0.2-0.8-0.1-1.3C220.3,109.3,220.3,109.2,220.4,109.2z M232,109.7
			l0.4-0.3c0.1,0,0.1,0,0.2,0c1.1,0.4,1.8,1,2.1,1.7c0.2,0.7,0.3,1.2,0.1,1.5c-0.2,0.4-0.5,0.5-0.9,0.4s-0.7-0.3-0.9-0.8
			c-0.2-0.4-0.2-0.8-0.1-1.2c0.1-0.3-0.2-0.7-0.7-1.2C231.9,109.9,231.9,109.8,232,109.7z M233.5,109l0.4-0.3c0.1,0,0.1,0,0.2,0
			c1.1,0.4,1.8,0.9,2.1,1.5c0.3,0.6,0.3,1,0.1,1.4c-0.2,0.4-0.5,0.5-0.9,0.4c-0.4-0.1-0.7-0.3-0.9-0.7c-0.2-0.4-0.3-0.8-0.3-1.2
			c0-0.3-0.2-0.6-0.6-0.9C233.4,109.2,233.4,109.1,233.5,109z"/>
		<path class="st5" d="M246.6,111.8l0.4-0.3c0,0,0.1,0,0.1,0c0.5,0.1,0.9,0.4,1.1,0.8c0.3,0.4,0.4,0.9,0.4,1.4s-0.1,0.9-0.3,1.2
			c-0.2,0.3-0.5,0.8-0.9,1.5c-0.4,0.7-0.7,1.4-1,2c-0.3,0.6-0.5,1.3-0.8,1.9c-0.3,0.6-0.4,1.1-0.4,1.6c0,0.3,0,0.6,0.1,0.7
			c0.1-0.1,0.2-0.3,0.4-0.6c0.4-0.6,1.1-1.6,2.1-3c0,0,0,0,0-0.1c0,0,0.1,0,0.1,0c0.1,0,0.1,0,0.2,0.1l0.3,0.4c0,0.1,0,0.1,0,0.2
			c-0.7,1-1.2,1.7-1.4,2.3c-0.2,0.5-0.5,1.1-0.8,1.7c-0.2,0.6-0.3,1.2-0.1,1.8c0,0.1,0.1,0.2,0.1,0.3c0.1,0.3,0.1,0.5,0,0.6
			c0,0.2-0.1,0.3-0.3,0.4c-0.3,0.1-0.6,0-1-0.2c-0.3-0.2-0.6-0.5-0.8-0.8c-0.2-0.3-0.3-0.7-0.4-1.4c-0.1-0.6-0.1-1.4,0-2.3
			s0.3-1.8,0.6-2.7c0.3-0.8,0.7-1.6,1.1-2.4c0.4-0.7,0.8-1.4,1.2-2.2c0.4-0.7,0.6-1.2,0.5-1.5c0-0.3-0.3-0.8-0.8-1.3
			C246.5,112,246.5,111.9,246.6,111.8z M251.7,114c0.6-0.1,0.9-0.1,1.1,0.1c0.1,0.1,0.2,0.3,0.4,0.6c0.1,0.2,0.5,0.4,1.1,0.6
			c0.6,0.2,1.1,0.2,1.3,0.1c0.3-0.1,0.6,0,0.9,0.2c0.3,0.2,0.7,0.5,1.1,0.8c0.5,0.4,0.6,0.7,0.6,1c-0.1,0.3-0.2,0.5-0.4,0.6
			s-0.5,0.1-0.8,0c-0.3-0.1-0.8-0.1-1.3-0.1c-0.6,0-1.1,0.1-1.8,0.4c-0.6,0.3-1.2,0.7-1.6,1.3c-0.5,0.6-0.8,1.1-0.9,1.6
			c-0.1,0.5-0.1,1,0.1,1.5s0.6,0.9,1.2,1.2c0.6,0.4,1.4,0.7,2.3,1.1c1,0.4,1.6,0.6,1.8,0.8c0.2,0.2,0.4,0.5,0.4,0.9
			c0,0.4-0.2,0.8-0.8,0.9c-0.5,0.1-1.3-0.1-2.4-0.6c-1.1-0.5-1.9-1.1-2.6-1.7c-0.7-0.7-1.1-1.4-1.1-2.1c-0.1-0.7,0-1.4,0.1-1.9
			c0.1-0.6,0.4-1.1,0.7-1.6c0.4-0.5,0.8-0.9,1.2-1.3s0.9-0.7,1.4-0.9c0.4-0.2,0.6-0.3,0.7-0.4c-0.1-0.1-0.3-0.3-0.6-0.5
			c-0.5-0.3-1-0.6-1.4-0.8c-0.4-0.2-0.8-0.6-0.9-1.2c0,0,0-0.1,0-0.1l0.1-0.3C251.6,114.1,251.7,114.1,251.7,114z"/>
		<path class="st5" d="M266.8,131.3l-0.2-0.1c0,0,0,0,0,0l-0.2-0.2c0,0,0-0.1,0-0.1c-0.4-1.9-0.6-3.1-0.9-3.7l-0.1-0.4l0,0l-0.2,0.2
			c-0.4,0.7-0.8,1.3-1.2,1.8c0,0,0,0,0,0c-0.6,0.4-1.2,0.7-2,0.9c0,0,0,0,0,0c-0.4,0-0.6-0.1-0.8-0.3c-0.1-0.2-0.1-0.5-0.1-0.9
			c0,0,0,0,0,0c0.4-0.7,0.9-1.3,1.6-1.8c0.2-0.2,0.4-0.3,0.6-0.5c0.2-0.2,0.4-0.3,0.5-0.4c0.1-0.1,0.2-0.2,0.4-0.3s0.2-0.2,0.2-0.2
			c0.3-0.2,0.5-0.5,0.8-0.7c0.2-0.2,0.5-0.5,0.9-0.7c0.3-0.2,0.6-0.5,0.9-0.7c0.2-0.2,0.4-0.4,0.5-0.6c0-0.1,0-0.2,0-0.2
			c-0.1-0.1-0.4,0-0.7,0.1c-0.4,0.1-0.6,0.2-0.8,0.2c-0.2,0.1-0.5,0-0.7,0c-0.3-0.1-0.5-0.3-0.6-0.6c-0.1-0.3-0.2-0.5-0.3-0.6
			c-0.1-0.2-0.2-0.4-0.1-0.7c0.1-0.3,0.2-0.5,0.3-0.6c0.1-0.1,0.3-0.1,0.5-0.1c0.1,0,0.4,0.2,0.6,0.4c0.2,0.2,0.7,0.3,1.5,0.5
			c0.5,0,0.9-0.1,1.3-0.3c0.1-0.2,0.2-0.4,0.3-0.6l-0.1-0.3c0-0.3-0.2-0.6-0.5-1.1c-0.2-0.3-0.2-0.6-0.2-0.9c0-0.1,0-0.1,0.1-0.1
			l0.3-0.1l0,0c0.3,0,0.6,0,0.8,0c0,0,0,0,0.1,0c0.2,0.2,0.5,0.5,0.7,0.7c0.2,0.2,0.4,0.4,0.7,0.6c0.4,0.2,0.5,0.5,0.5,0.8
			c0,0,0,0.1,0,0.1c-0.1,0.2-0.3,0.5-0.5,0.8l0.2,0.2l0.2,0v0c0.3,0,0.7,0.1,1,0.2c0.5,0.1,0.8,0.4,1.1,0.7l0.3,0.4c0,0,0,0,0,0.1
			c0.1,0.4,0,0.9-0.2,1.4v0c-0.8,1.4-1.4,2.6-1.7,3.6c-0.4,1-0.7,1.8-1,2.4c-0.3,0.6-0.7,1.1-1.2,1.4c-0.2,0.1-0.4,0.3-0.6,0.4
			c-0.1,0-0.2,0.1-0.3,0.1c-0.1,0-0.2,0-0.3,0.1C267.3,131.4,267,131.4,266.8,131.3C266.8,131.3,266.8,131.3,266.8,131.3z
			 M268.2,128.7c0.3-0.1,0.5-0.3,0.7-0.5c0.8-0.8,1.4-1.8,1.7-3.1c0.2-0.8,0.4-1.4,0.5-1.8c0.1-0.4,0.1-0.7,0-0.9
			c0-0.2-0.5-0.3-1.3-0.4c-0.1,0-0.3,0-0.5,0c-0.4,0.4-0.7,0.7-1,1c-0.2,0.3-0.5,0.7-0.9,1.3c-0.4,0.6-0.9,1.3-1.7,2.2l0,0.1
			c0,0,0,0,0,0.1l0.2,0.4l0.7,0.9c0.2,0.2,0.5,0.5,0.8,0.7l0.2,0.1L268.2,128.7z M274.4,129.1c0-0.3,0.1-0.5,0.4-0.6
			c0.2,0,0.5-0.1,1-0.2c0.5-0.1,1-0.3,1.5-0.6c0.5-0.3,0.8-0.7,0.9-1.3c0.1-0.7-0.1-1.3-0.5-1.9c-0.4-0.6-0.9-1.1-1.3-1.5
			c-0.5-0.4-1.1-0.8-1.9-1.4c-0.1,0-0.1-0.1-0.1-0.2c0-0.2,0.1-0.3,0.3-0.3c0.1-0.1,0.3,0,0.5,0.1c1.8,0.6,3.1,1.4,3.9,2.4
			c0.7,1,1.2,1.8,1.4,2.2c0.2,0.5,0.3,0.9,0.4,1.3c0.1,0.4,0,0.8-0.1,1.3c-0.2,0.4-0.4,0.8-0.7,0.9c-0.3,0.2-0.6,0.2-0.9,0.1h0
			l-1.2-0.4c-0.8,0.2-1.4,0.2-2,0.3c-0.5,0-1,0-1.4-0.1C274.4,129.3,274.4,129.2,274.4,129.1z"/>
		<path class="st5" d="M288.4,121.1l0.4-0.3c0,0,0,0,0.1,0c0.8-0.1,1.4,0.2,1.9,1.1c0.5,0.8,0.4,1.8-0.1,2.8
			c-0.1,0.2-0.2,0.4-0.3,0.6c0.1,0.1,0.1,0.1,0.2,0.2c0.6-0.3,1.1-0.5,1.6-0.6c0.6-0.1,1.3-0.2,2-0.2c0.7,0,1.4,0.2,2.1,0.6
			c0.6,0.4,1.2,0.9,1.7,1.6c0.5,0.7,0.8,1.4,0.9,2.1c0.1,0.7,0,1.4-0.2,2.1c-0.2,0.7-0.6,1.3-1,1.9c-0.5,0.6-1,1.1-1.7,1.5
			c-0.6,0.4-1.3,0.6-1.9,0.9s-1.2,0.4-1.9,0.5c-0.6,0.1-1.5,0.2-2.6,0.2c-0.1,0-0.1,0-0.1-0.1l-0.3-0.4c-0.1-0.1-0.1-0.1,0-0.2
			c0-0.1,0.1-0.1,0.2-0.1c0.9-0.1,1.6-0.2,2.1-0.3c0.5-0.1,1.1-0.4,1.8-0.7c0.7-0.3,1.3-0.7,1.7-1c0.4-0.4,0.8-0.7,1-1.1
			c0.3-0.4,0.5-0.9,0.8-1.5c0.2-0.6,0.3-1.3,0.2-2c-0.1-0.7-0.4-1.3-0.8-1.8c-0.5-0.5-0.9-0.8-1.5-0.9c-0.5-0.1-1.1-0.1-1.7-0.1
			c-0.5,0-1.3,0.3-2.1,0.8c-0.4,0.2-0.8,0.5-1.1,0.8c-0.2,0.7-0.4,1.5-0.4,2.4c-0.1,1-0.1,1.8-0.1,2.4c0,0.6,0,1.3,0,2.1
			c0,0.4-0.1,0.8-0.1,1c0,0.2-0.1,0.4-0.2,0.6c-0.2,0.2-0.4,0.4-0.7,0.3s-0.5-0.2-0.7-0.5c-0.2-0.3-0.3-0.8-0.2-1.4
			c0.1-0.5,0.1-1.1,0.1-1.7c0-0.5-0.3-1.1-0.8-1.8l-0.1-0.1c-0.4,0.5-0.7,1-0.9,1.5c-0.4,0.8-0.7,1.2-1,1.3c-0.3,0.1-0.6,0-0.8-0.1
			c-0.2-0.2-0.4-0.5-0.5-0.9c0-0.4,0.2-0.9,0.6-1.4c0.4-0.5,1-1,1.8-1.6c-0.1-0.2-0.2-0.5-0.3-0.7c-0.2-0.7-0.3-1.2-0.1-1.7
			c0.2-0.4,1-1,2.3-1.6c0.7-0.3,1.3-0.5,1.8-0.6v0c0.3-0.5,0.4-1.1,0.3-1.7c-0.1-0.7-0.4-1.3-1-1.8
			C288.2,121.3,288.3,121.2,288.4,121.1z M287.7,126.6c-0.3,0.1-0.7,0.2-1,0.5c-0.3,0.2-0.5,0.5-0.5,0.8c0,0.2,0.1,0.5,0.2,0.8
			c0.5-0.4,0.9-0.8,1.3-1.2c0.1-0.1,0.2-0.2,0.4-0.3l0.1-0.2l0.1-0.2C288,126.6,287.9,126.6,287.7,126.6z M287.3,130.2
			c0.1,0.1,0.1,0.2,0.2,0.2l0,0c0,0,0-0.1,0.1-0.2s0.1-0.3,0.1-0.6c0-0.2,0-0.4,0-0.6c-0.2,0.3-0.5,0.5-0.7,0.8
			C287.1,129.9,287.2,130,287.3,130.2z"/>
		<path class="st5" d="M308.5,137.9c0.1,0,0.2-0.1,0.3-0.1c0.5-0.2,0.9-0.3,1.2-0.5c0.3-0.2,0.6-0.5,0.9-1c0.3-0.5,0.5-1.2,0.6-1.9
			c0.1-0.8,0-1.4-0.3-1.8c-0.3-0.4-0.6-0.8-1-0.9s-0.9-0.2-1.4-0.2c-0.5,0-1.1,0.2-1.7,0.4c-0.6,0.2-1,0.6-1.4,1
			c-0.4,0.4-0.7,0.8-1,1.2c-0.3,0.4-0.6,0.8-1,1.1c-0.4,0.3-0.8,0.5-1,0.4c-0.3,0-0.5-0.2-0.6-0.5c-0.1-0.3-0.1-0.6-0.1-1.1
			c0.1-0.5,0.4-1,0.9-1.5c0.5-0.5,1.3-1.1,2.3-1.8c1-0.7,2-1.5,3-2.5c1-1,1.5-1.6,1.5-1.7c0,0,0-0.1,0-0.1c0,0-0.1,0-0.1,0
			s-0.2,0-0.3,0c-0.4,0.1-0.9,0.2-1.3,0.5c-0.5,0.3-1,0.5-1.3,0.6c-0.4,0.1-0.8,0-1.1-0.1c-0.4-0.2-0.6-0.5-0.7-0.9
			c-0.1-0.4-0.1-0.8,0-1.3c0-0.1,0-0.1,0.1-0.1l0.4-0.3c0.1-0.1,0.2-0.1,0.3,0.1c0.1,0.4,0.3,0.7,0.5,0.9s0.5,0.2,0.9,0.1
			c0.5-0.1,1.1-0.2,2.1-0.6c1-0.3,1.6-0.5,2-0.4c0.4,0.1,0.8,0.2,1.1,0.5c0.3,0.3,0.5,0.7,0.4,1.1s-0.6,0.9-1.6,1.5
			c-1,0.5-1.8,1.2-2.4,1.9c-0.4,0.5-0.7,0.9-0.9,1.1c1-0.1,1.8-0.1,2.3,0c0.6,0.1,1.2,0.3,1.9,0.6c0.7,0.3,1.2,0.8,1.5,1.4
			c0.3,0.6,0.4,1.4,0.3,2.3c-0.1,0.9-0.5,1.7-1.2,2.4c-0.7,0.6-1.4,1.1-2.3,1.3c-0.4,0.1-0.8,0.2-1.2,0.2s-0.8,0-1.1,0
			c-0.7-0.1-1.3-0.3-1.9-0.6c-0.6-0.3-1-0.6-1.2-0.9c-0.2-0.3-0.3-0.6-0.2-1c0-0.4,0.3-0.7,0.7-0.9c0.4-0.2,0.8-0.3,1.3-0.2
			c0.5,0.1,0.9,0.2,1.4,0.5c0.5,0.3,0.7,0.7,0.8,1.3C308.7,137.5,308.6,137.7,308.5,137.9z M307.4,137.9c-0.1-0.1-0.1-0.3-0.1-0.5
			c-0.1-0.4-0.2-0.7-0.5-1c-0.3-0.2-0.5-0.4-0.5-0.4c-0.1,0-0.2,0.1-0.4,0.2c-0.2,0.2-0.3,0.3-0.3,0.3s0.1,0.2,0.2,0.4
			c0.2,0.2,0.5,0.4,0.9,0.6C306.9,137.8,307.1,137.9,307.4,137.9z"/>
		<path class="st5" d="M320.9,123.3c0.3,0,0.6,0,0.8,0.1c0.2,0.1,0.3,0.1,0.3,0.1c0,0,0.1,0.1,0.3,0.1c0.2,0.1,0.4,0.2,0.5,0.2
			c0.1,0.1,0.1,0.2,0.2,0.3c0,0.1,0,0.2,0,0.3c0,0.2-0.1,0.4-0.3,0.8c-0.1,0.2-0.2,0.7-0.2,1.4s-0.1,1.2,0,1.3
			c0,0.1,0.1,0.2,0.3,0.2c0.1,0,0.2,0,0.2,0c0.1-0.1,0.2-0.2,0.3-0.4c0,0,0.1-0.1,0.2-0.2c0.1-0.1,0.2-0.1,0.4-0.1
			c0.2,0,0.4,0.1,0.6,0.2c0.1,0.1,0.2,0.2,0.2,0.3c0,0.1,0.1,0.2,0.1,0.3c0.1,0.2,0.1,0.4,0.1,0.5c0,0.1-0.1,0.2-0.2,0.3
			c-0.1,0.1-0.4,0.1-0.9,0c-0.2,0-0.3,0-0.4,0s-0.2,0-0.2,0c-0.1,0-0.2,0.1-0.4,0.2c0,0-0.1,0.1-0.1,0.2s-0.1,0.2-0.1,0.3
			c0,0-0.1,0.1-0.1,0.2c0,0.1,0,0.2,0,0.3c0,0.2,0,0.6,0,1.1l0,0.3l-0.1,0.2c-0.1,0.2-0.1,0.6-0.1,1c0,0.2,0,0.3,0,0.5
			s0.1,0.2,0.1,0.3s0.1,0.1,0.1,0.3s0.1,0.3,0.2,0.4c0.1,0.2,0.3,0.2,0.6,0.2s0.4-0.1,0.5-0.2c0.1-0.1,0.3-0.2,0.5-0.3
			c0.1,0,0.2-0.1,0.4,0c0.1,0,0.2,0,0.3,0.1c0,0.1,0.1,0.1,0.1-0.1c0,0,0,0,0-0.1c0-0.3,0.1-0.5,0.2-0.6c0.2-0.2,0.3-0.5,0.2-0.7
			c0-0.1-0.1-0.2-0.2-0.3s-0.3-0.1-0.6-0.2c-0.3,0-0.4-0.1-0.5-0.1c-0.1,0-0.2-0.1-0.4-0.1c-0.2,0-0.3,0-0.4-0.1
			c-0.1-0.1-0.1-0.1,0-0.2c0,0,0.1-0.1,0.3,0c0.2,0,0.4,0,0.6,0s0.5,0,0.9,0s0.6,0,0.7,0c0.1,0,0.3,0,0.4,0.1c0.1,0,0.1,0.1,0.2,0.1
			s0.1,0,0.1,0.1s0.1,0,0.1,0s0.1,0,0.2,0.1c0.1,0.1,0.2,0.1,0.4,0c0.1,0,0.3,0,0.5,0c0.7,0,1.2,0,1.4,0.1c0.2,0,0.5,0.1,1,0.1
			c0.4,0,0.6,0,0.7,0c0.1,0,0.2-0.1,0.4-0.2c0.1-0.1,0.2-0.1,0.2-0.1c0.2,0,0.3-0.1,0.4-0.2c0-0.1,0.1-0.1,0.1-0.2s0-0.1,0-0.2
			c-0.1-0.1-0.3-0.1-0.6-0.1c-0.3,0-0.4,0-0.5,0c-0.1,0-0.1-0.1-0.3-0.1c-0.1-0.1-0.3-0.2-0.5-0.4c-0.2-0.1-0.3-0.2-0.5-0.3
			c-0.1,0-0.4-0.1-0.6-0.1c-0.2,0-0.4,0-0.6,0s-0.5,0-0.5,0c-0.1,0-0.1,0-0.2,0s-0.1,0-0.1,0c-0.1,0-0.2,0.1-0.3,0.4
			c-0.2,0.3-0.4,0.5-0.8,0.5c-0.1,0-0.2,0-0.2,0.1c-0.1,0-0.1,0-0.2-0.1c-0.1-0.1-0.1-0.2-0.1-0.2c0-0.1,0-0.2,0-0.5
			c0-0.3,0-0.5,0-0.7c0-0.2,0-0.5,0-0.8c0-0.1,0-0.4,0-0.7c0-0.4,0-0.7,0.1-1c0-0.2,0-0.4,0-0.7c0-0.2,0-0.5,0-0.9s0-0.6,0-0.8
			c0-0.1,0-0.3,0-0.6c0-0.2,0-0.4,0.1-0.5c0-0.1,0.1-0.2,0.2-0.2s0.2,0,0.4,0c0.3,0.1,0.5,0.1,0.6,0.2c0.3,0.2,0.5,0.4,0.6,0.4
			c0,0,0.2,0.1,0.3,0.1s0.3,0.1,0.3,0.1c0.1,0,0.2,0,0.5,0c0.7,0,1.2-0.1,1.4-0.3c0.1-0.1,0.3-0.2,0.5-0.3c0.2-0.1,0.3-0.1,0.3-0.1
			s0.2,0,0.4,0.1c0.2,0.1,0.4,0.2,0.4,0.2c0,0,0.1,0.1,0.1,0.1s0.1,0.1,0.2,0.2c0.1,0.1,0.2,0.2,0.2,0.3c0,0.1,0.1,0.1,0.1,0.2
			c0.1,0.1,0.2,0.3,0.2,0.6c0,0.2,0,0.4-0.1,0.7c-0.1,0.3-0.1,0.8-0.2,1.3c0,0.6-0.1,1.6-0.2,3.1c0,0.2,0.1,0.4,0.2,0.5
			c0.1,0,0.1,0.1,0.2,0.1c0,0.1,0.1,0.1,0.2,0.2s0.2,0.1,0.2,0.1s0.1,0,0.2-0.1c0.1-0.1,0.2-0.1,0.2-0.1c0.1,0,0.2,0.1,0.5,0.4
			c0.2,0.2,0.3,0.4,0.3,0.5c0,0.1,0,0.2-0.1,0.4c-0.1,0.2-0.4,0.3-0.7,0.3c-0.1,0-0.2,0-0.4,0c-0.2,0-0.3,0-0.5-0.1
			c-0.2-0.1-0.6-0.1-1-0.1c-0.1,0-0.3,0-0.5-0.1c-0.2,0-0.3,0-0.5,0s-0.5,0-1.2,0c-0.7,0-1.1,0-1.1,0c-0.1,0.1-0.2,0.2-0.4,0.5
			c0,0.1-0.1,0.2-0.1,0.3s-0.1,0.1-0.2,0.1c-0.1,0-0.1,0-0.1,0.1c0,0,0,0-0.1,0.1c-0.1,0-0.1,0.1-0.1,0.2c-0.1,0.2-0.1,0.3-0.1,0.4
			s0.1,0.1,0.2,0.1c0.2,0.1,0.4,0.1,0.6,0.1c0.1,0,0.2,0,0.3,0.1c0.1,0.1,0.2,0.1,0.2,0.1c0.1-0.1,0.5-0.1,1-0.1
			c0.3,0,0.5,0,0.6,0.1c0.1,0,0.3,0.1,0.4,0.1c0.4,0,0.6-0.1,0.8-0.2c0,0,0.1-0.1,0.3-0.2c0.2-0.1,0.3-0.2,0.4-0.3
			c0.1,0,0.2,0,0.3,0c0.5,0.2,0.8,0.3,0.9,0.4c0,0.1,0.1,0.1,0.2,0.3c0.1,0.1,0.1,0.3,0.1,0.5c0,0.4-0.1,0.7-0.2,1.1
			c-0.1,0.1-0.1,0.2-0.1,0.3s0,0.2-0.1,0.3s-0.1,0.2-0.1,0.4s-0.1,0.4-0.1,0.7s-0.1,0.6-0.1,0.7c0,0.2,0,0.3-0.1,0.3
			s-0.1,0.1-0.1,0.1c0,0.1-0.1,0.1-0.1,0.3s-0.1,0.2-0.2,0.4c-0.1,0.1-0.1,0.2-0.2,0.4s-0.1,0.3-0.2,0.4c-0.1,0.1-0.1,0.2-0.1,0.3
			c0,0.1-0.1,0.2-0.2,0.3c-0.1,0.1-0.2,0.3-0.4,0.4c-0.2,0.2-0.5,0.3-0.7,0.3c-0.2,0-0.4,0.1-0.6,0.2c-0.1,0-0.2,0.1-0.4,0.1
			c-0.4,0-0.6,0-0.7-0.2c-0.1-0.1-0.1-0.3-0.1-0.7c0-0.3-0.1-0.5-0.2-0.7c-0.1-0.1-0.2-0.2-0.2-0.4c0-0.1,0.1-0.2,0.2-0.3
			c0.2-0.1,0.4-0.1,0.6,0c0.4,0.1,0.7,0.1,0.9,0c0.1-0.1,0.2-0.1,0.3-0.3c0.1-0.1,0.2-0.3,0.2-0.4c0-0.2,0.1-0.3,0.2-0.4
			c0.1,0,0.1-0.1,0.2-0.2c0.1-0.1,0.1-0.3,0-0.4s-0.1-0.2-0.1-0.3s0-0.2,0-0.4c0-0.2,0-0.4,0-0.4s-0.1-0.1-0.1-0.1
			c-0.1,0-0.2,0.1-0.5,0.3c-0.1,0.1-0.2,0.2-0.3,0.2c-0.1,0-0.3,0.2-0.6,0.5c-0.1,0.1-0.2,0.2-0.2,0.3s-0.1,0.1-0.1,0.2
			c0,0,0,0.1-0.1,0.1c0,0-0.1,0.1-0.2,0.2c-0.1,0.1-0.2,0.2-0.3,0.2c-0.1,0.1-0.1,0.1-0.2,0.1c-0.1,0.1-0.2,0.2-0.5,0.4
			c-0.1,0.1-0.2,0.1-0.3,0.2c-0.1,0-0.2,0.1-0.2,0.1s-0.1,0.1-0.3,0.1s-0.3,0.1-0.4,0.2c-0.3,0.3-0.6,0.4-0.9,0.5
			c-0.2,0-0.4,0.1-0.6,0.3c-0.1,0.1-0.2,0.1-0.3,0.1c0,0-0.1,0-0.2,0.1s-0.2,0.1-0.2,0.1s-0.1,0.1-0.3,0.1c-0.1,0.1-0.2,0.1-0.3,0.1
			c-0.1,0.1-0.3,0.1-0.6,0.2c-0.2,0-0.6,0.1-1,0.3c-0.1,0.1-0.2,0.1-0.4,0c-0.3,0-0.5-0.1-0.6-0.1c-0.1-0.1-0.1-0.2,0-0.3
			c0-0.1,0.1-0.1,0.2-0.2s0.1-0.1,0.2-0.1c0,0,0.1,0,0.2,0c0.1,0,0.2-0.1,0.4-0.2s0.3-0.1,0.4-0.2c0.1-0.1,0.4-0.2,0.7-0.2
			c0.1,0,0.3-0.1,0.7-0.3c0.3-0.1,0.5-0.2,0.8-0.3c0.1,0,0.2-0.1,0.4-0.2c0.1-0.1,0.2-0.2,0.2-0.2c0.1-0.1,0.2-0.2,0.5-0.3
			c0.2-0.1,0.4-0.2,0.6-0.4c0.4-0.3,0.6-0.5,0.6-0.5c0,0,0.1,0,0.1-0.1c0,0,0.1-0.1,0.1-0.1c0.2-0.1,0.3-0.3,0.5-0.6
			c0.2-0.3,0.4-0.5,0.5-0.7c0.2-0.2,0.3-0.3,0.4-0.3c0.1-0.1,0.3-0.3,0.4-0.6c0-0.1,0.1-0.3,0.1-0.4s0-0.2,0-0.2
			c0,0-0.1-0.1-0.2-0.2c-0.1-0.1-0.2-0.1-0.2-0.2c-0.1,0-0.1-0.1-0.2-0.1c-0.1-0.1-0.1-0.1-0.1-0.1c-0.1,0-0.1,0.2-0.2,0.4
			c0,0.2-0.1,0.4-0.3,0.4c-0.1,0.1-0.1,0.1-0.2,0.1c-0.1,0.1-0.2,0.2-0.2,0.4c0,0,0,0.1-0.1,0.2s-0.1,0.2-0.1,0.2s-0.2,0.1-0.3,0.2
			c-0.3,0.3-0.5,0.5-0.6,0.5c-0.1,0-0.2,0.1-0.2,0.2c-0.1,0.2-0.2,0.3-0.3,0.3c-0.1,0-0.2,0-0.4,0.1c-0.1,0.1-0.2,0.2-0.3,0.3
			c-0.1,0.1-0.1,0.1-0.2,0.1c-0.1,0-0.1,0.1-0.1,0.1c0,0.1-0.2,0.2-0.6,0.4c-0.1,0.1-0.1,0.1-0.1,0.1s0,0.1-0.1,0.1
			c-0.1,0.1-0.1,0.1-0.2,0.1c-0.3,0.3-0.5,0.4-0.6,0.4c-0.1,0-0.2,0.1-0.4,0.1c-0.2,0.1-0.3,0.1-0.3,0.2c-0.2,0.1-0.5,0.2-0.8,0.3
			c-0.2,0-0.3,0-0.3,0c-0.1-0.1-0.1-0.2,0-0.3c0-0.1,0.1-0.1,0.1-0.1c0.3-0.1,0.5-0.2,0.7-0.4c0.2-0.2,0.3-0.3,0.3-0.3
			c0,0,0.1-0.1,0.2-0.1c0.2-0.1,0.3-0.2,0.5-0.2c0.1,0,0.3-0.2,0.5-0.4c0.3-0.3,0.5-0.5,0.6-0.5c0,0,0.1,0,0.1-0.1
			c0,0,0.1-0.1,0.2-0.1c0.1-0.1,0.2-0.1,0.3-0.2s0.1-0.1,0.2-0.1c0,0,0.1-0.1,0.3-0.1s0.2-0.1,0.2-0.2c0-0.1,0-0.2-0.1-0.3
			c-0.1-0.1-0.1-0.2-0.1-0.2s0-0.1-0.1-0.1c0-0.1-0.1-0.1-0.2-0.1c-0.4,0-0.7,0-0.8,0c0,0-0.1,0.1-0.3,0.2c-0.1,0.1-0.3,0.2-0.4,0.4
			c-0.2,0.2-0.5,0.4-0.6,0.4c-0.1,0-0.2,0.1-0.3,0.2c-0.1,0.1-0.2,0.2-0.3,0.3s-0.1,0.1-0.1,0.1c0,0-0.1,0.1-0.2,0.2
			s-0.3,0.2-0.4,0.2c-0.1,0.1-0.3,0.1-0.4,0.2s-0.2,0.2-0.2,0.2c0,0-0.1,0-0.2,0.1c-0.1,0.1-0.2,0.1-0.2,0.1
			c-0.1,0.1-0.3,0.2-0.5,0.3c-0.1,0-0.2,0.1-0.3,0.1c-0.1,0.1-0.3,0.1-0.4,0.1c0,0-0.1-0.1-0.1-0.1s0,0,0-0.1c0,0,0-0.1,0.1-0.2
			c0.1-0.1,0.2-0.2,0.2-0.2c0.2-0.2,0.3-0.3,0.5-0.3c0.1,0,0.3-0.1,0.5-0.3c0.5-0.5,0.8-0.7,1-0.8c0.1-0.1,0.2-0.1,0.2-0.1
			c0.1,0,0.2-0.1,0.3-0.4c0.1-0.1,0.2-0.2,0.2-0.3s0.1-0.2,0.3-0.4c0.1-0.2,0.2-0.3,0.3-0.4c0.1-0.1,0.2-0.2,0.2-0.3
			c0.1-0.2,0.1-0.3,0.1-0.3c0,0-0.1,0-0.4,0c-0.2,0-0.3,0-0.4,0s-0.1,0.1-0.2,0.2c-0.1,0.2-0.2,0.3-0.3,0.4c0,0-0.1,0.1-0.2,0.1
			c-0.1,0-0.1,0.1-0.2,0.1c-0.2,0.1-0.4,0.2-0.7,0.4c-0.1,0.1-0.2,0.1-0.3,0.2c-0.5,0.2-0.8,0.4-1,0.6c0,0-0.1,0.1-0.2,0.1
			c-0.1,0.1-0.4,0.2-0.7,0.4c-0.1,0.1-0.3,0.1-0.5,0c-0.3-0.1-0.5-0.2-0.6-0.4c-0.1-0.2-0.2-0.4-0.2-0.5c0,0,0-0.1-0.1-0.2
			s-0.1-0.2-0.1-0.3c0,0,0-0.1-0.1-0.2c-0.1-0.1-0.1-0.3-0.1-0.4c0-0.1,0.1-0.3,0.1-0.4c0.1-0.1,0.1-0.2,0.3-0.2
			c0.2-0.1,0.5-0.1,0.8-0.1c0.2,0,0.4,0,0.5,0c0.1,0,0.2,0,0.3,0s0.2,0,0.3-0.1c0.1,0,0.2-0.1,0.3-0.1c0.2,0,0.3-0.1,0.4-0.2
			c0-0.1,0.1-0.5,0.1-1.4s0.1-1.4,0.1-1.5c0-0.1,0-0.4,0-1s0-0.9,0-0.9c0-0.1-0.1-0.2-0.2-0.3c0,0-0.2-0.1-0.3-0.1
			c-0.3-0.1-0.7,0-1,0.1c-0.1,0-0.3,0-0.4,0c-0.2,0-0.3-0.1-0.5-0.1c-0.1-0.1-0.2-0.1-0.2-0.1c0,0,0-0.1-0.1-0.1
			c-0.1-0.2-0.1-0.5,0-0.7c0.1-0.1,0.2-0.2,0.3-0.2c0.1,0,0.3,0,0.6,0c0.3,0.1,0.6,0.1,0.9,0.1s0.4,0,0.5,0c0.2,0,0.3-0.1,0.4-0.2
			c0-0.1,0.1-0.5,0.1-1.2s0-1.2,0-1.3c0-0.2-0.1-0.6,0-1.2c0-0.3,0-0.5,0.1-0.6c0-0.1,0.1-0.2,0.1-0.2S320.8,123.3,320.9,123.3z
			 M329.5,127.9c-0.2,0-0.4,0-0.5,0c-0.2,0-0.4,0-0.7,0c-0.3,0-0.5,0.1-0.6,0.2c-0.1,0-0.1,0.1-0.1,0.1c-0.1,0.1-0.2,0.3-0.2,0.8
			c0,0.3,0.1,0.4,0.2,0.5c0.1,0,0.2,0.1,0.3,0.2c0.2,0.1,0.3,0.2,0.5,0.1c0.1,0,0.2,0,0.3,0c0.2,0.1,0.4,0.1,0.5,0
			c0.1,0,0.2,0,0.5,0s0.4,0,0.5-0.1c0.1-0.1,0.2-0.1,0.2-0.1c0,0,0-0.1,0.1-0.2c0.1-0.2,0.1-0.4,0-0.6c0-0.1,0-0.2,0-0.2
			c0-0.1,0-0.2,0-0.2c0,0-0.1-0.1-0.2-0.2c-0.1-0.1-0.2-0.1-0.2-0.2C329.8,128,329.7,128,329.5,127.9z M329.7,125.6
			c-0.1-0.1-0.5-0.1-1-0.1c-0.3,0-0.5,0-0.6,0s-0.2,0.1-0.3,0.2c-0.1,0.1-0.1,0.1-0.2,0.1c-0.2,0-0.2,0.2-0.2,0.7c0,0.2,0,0.3,0,0.4
			c0,0.1,0.1,0.2,0.2,0.2c0.1,0.1,0.2,0.1,0.3,0.1s0.3,0.1,0.6,0.1c0.4,0,0.7,0.1,0.9,0.1c0.2,0,0.3,0,0.4,0
			c0.2-0.1,0.4-0.2,0.4-0.3c0-0.1,0-0.2,0-0.3c0-0.2-0.1-0.4-0.1-0.6c-0.1-0.2-0.1-0.3-0.2-0.4C329.9,125.7,329.8,125.6,329.7,125.6
			z"/>
		<path class="st5" d="M341.5,142.9l-0.1-0.1l-0.1-1.5l0.1,0l0-0.2l0.4-0.1l0-0.2l0.7-0.1l0-0.3l0.3,0l0-0.3l0.3-0.1l0-0.7l0.3-0.1
			l0-0.1l0.3,0l0-0.2l0.3-0.1l0-0.3l0.4-0.1l0-0.3l0.3-0.1l0-0.2l0.1,0l0-0.1l0.1,0l0-0.4l0.1,0l0-0.3l0.1,0l-0.1-0.9l0.3-0.1l0-0.3
			l0.3-0.1l0-0.1l0.1,0l0-0.2l0.1,0l0-0.7l0.1,0l0-0.5l-0.1,0l-0.1-1l0.1,0l0-0.2l0.1,0l0-0.2l0.1,0l0-0.2l-0.1,0l-0.1-1h0.1l0-0.1
			h-0.1l-0.3-5.1c-0.3-0.1-0.6-0.1-1-0.1c-0.3,0-0.7,0-1,0.1l-0.5,0.2l0,0.4l-0.1,0l0,0.1l-0.3,0.1l-0.3,0l-1.6,0.2l0.1,1.5l0.1,0
			l0,0.1l0.1,0l0,0.5l0.4,0l0.7-0.1l0-0.2l0.3-0.1l0-0.3l0.3,0l0-0.2l0.6-0.1l0.1,0.1v0.1l0.3,0l0,0.2l0.3,0l0,0.1l0.3,0.1l0,0.3
			l0.3,0.1l0.1,1.2l-0.1,0l0,0.2l-0.1,0l0.3,4.7l-0.1,0l0,0.1l-0.8,0l-0.3,0l-0.8,0.1l0-0.3l-0.1,0l0-0.2l0.1,0l0-0.3l-0.1,0l0-0.4
			h-1l-0.5,0.1l0.1,1.1l-0.1,0l0,0.1l-0.3,0l0,0.4l-0.1,0l0,0.8l-0.3,0l0,0.2l-0.1,0l0,0.1l-0.3,0l0,0.4l0.1,0l0,0.3l-0.1,0l0,0.7
			l-0.3,0.1l0,0.3l-0.3,0l0,0.3l-0.3,0l0,0.6l-0.3,0.1l0,0.2l-0.3,0l0,0.1l-0.1,0l0,0.2l-0.1,0l0,0.2l-0.1,0l0,0.1l-0.1,0l0,0.3
			l-0.1,0l0,0.2l0.1,0l0,0.1l-0.1,0l0,0.1l-1,0.1l-0.1-0.1l-0.1-1.4l0.3,0l0-0.1l0.1,0l0-0.1l0.4-0.1l0-0.2h-0.1l0.2-0.1l0-0.5
			l0.3-0.1l0-0.1l0.1,0l0-0.1l0.1,0l0-0.3l0.1,0l0-0.7l0.1,0l0-0.8l0.3,0l0-0.2l0.1,0l0-0.5l0.1,0l-0.1-1.7l0.3,0l0-0.1l0.3-0.1
			l-0.2-3.7h-0.1h0.1l0-0.7h-0.1l0-0.1h0.1l0-0.6H339h0.1l-0.1-1.8h-0.1v-0.1h0.1l0-0.3l-0.1,0l0-0.6l0.1,0l0-0.4h-0.1h0.1l0-0.2
			l-0.1,0l0-0.5l0.1,0l0-0.4l0.3,0l0-0.1l0.2,0l0.1,0.1l0,0.2l0.1,0l0.4-0.1l0,0.2l0.1,0l0,0.3l1.2-0.1l0-0.2l0.1,0l0-0.1l0.5-0.2
			l0-0.1l0.1,0l0-0.1l0.3,0l0-0.6l0.3-0.1l0,0.1l0.1,0l0.3-0.1v0.1l0.1,0l0.5-0.1l0,0.6l0.1,0l0,0.3l0.3,0v0.1l0.5,0.1l0.6-0.1
			l0,0.1l0.6,0v-0.1h0.1v0.1l0.1,0l0,0.2l0.1,0l0,0.2l0.7,0.1l0.2-0.1v-0.1h0.1l0,0.2l0.2,0l0-0.1h0.1l0,0.1l0.4,0l0.5-0.2l0-0.1
			l1-0.1l0-0.2l0.4-0.2l0-0.1l0.4-0.2l0-0.1l0.4,0l0-0.6l0.1,0l0-0.2l0.4,0l0.5,0l0,0.1l0.6,0.2l0,0.5l0.1,0l0,0.1l0.1,0l0,0.2
			l0.3,0.1l0,0.2l0.3,0l0,0.1l0.1,0l0,0.1l0.1,0l0,0.1l0.1,0l0.1,1.2l-0.4,0.1l0,0.1l-0.2,0l-0.2-0.1v0.1h-0.1v-0.1l-0.1,0l-0.4,0.1
			l0-0.1l-0.6,0l0,0.1l-0.2,0l-0.1-0.1l0-0.1l-0.6,0l0,0.1l-0.1,0v0.1l-0.2,0.1l-0.4,0l0,0.1h-0.1l0-0.1l-1.9,0.1l-0.2,0.1l0,0.1
			l-0.3,0.1l0,0.2l-0.3,0.1l0.2,2.6l0.3,0.1l0,0.2l0.1,0l0.3-0.1l0,0.2l0.3,0l0.2-0.1v-0.1l0.9-0.1h1.1l0,0.4l0.1,0l0,0.1l0.5,0
			l0-0.5l0.1,0l0-0.1l0.1,0l0-0.1l0.3-0.1l0-0.1l0.1,0l0-0.1l0.1,0l0-0.1l0.1,0l0-0.1l0.1,0l0-0.1l0.1,0l0-0.4l0.2,0l0,0.1l0.6,0.1
			l0,0.3l0.3,0l0,0.1l0.1,0l0,0.2l0.6,0l0,0.3l0.1,0l0,0.1l0.1,0l0,0.5l0.1,0l0,0.1l-0.1,0l0,0.3l0.1,0l0,0.6l-0.1,0l0,0.1l-0.3,0
			v0.1h-0.1l0-0.1l-0.2,0l0,0.1h-0.1v-0.1l-0.2,0l0,0.1l-0.2,0v-0.1l-0.3,0v0.1H353l0-0.1l-0.8,0l-0.2,0.1l0,0.1l-0.1,0l0,0.3
			l-0.1,0l0,0.2l-0.1,0l0.3,5h0.1v0.1h-0.1l0.1,2.1h0.1h-0.1l0,0.3l0.1,0l0,0.3l-0.1,0l0,0.6h0.1v0.1h-0.1l0,0.3l-0.1,0v0.1l-0.6,0
			l0,0.1l-0.1,0l0,0.3l-0.4,0.1l0,0.1l-0.2,0l0-0.3l-0.4,0l0,0.1l-0.2,0l-0.4-0.1l0-0.3l-0.1,0l0-0.3h-0.1V141h0.1l0-0.3h-0.1h0.1
			l0-0.3l0.1,0l0-0.5l-0.1,0l0-0.2l0.1,0l-0.1-1.2l0.3-0.1l-0.1-1.8l-0.1,0l0-0.1l0.1,0l-0.1-1.3l0.5-0.2l0-0.8H350h0.1l0-0.3
			l-0.1,0l0-0.3l0.1,0l-0.1-0.9l-0.1,0l0-0.2l-0.1,0l-0.3,0.1l0-0.1l-0.1,0l0-0.9l-0.2,0l0,0.1H349l0-0.2l-1.4,0.1l-0.2,0.1l0,0.4
			l-0.1,0l0,0.7h-0.1l0,0.1h0.1l0,0.3l-0.1,0l0,0.7l-0.3,0.1l0,0.1l-0.1,0l0,0.3l0.1,0l0.1,1l-0.1,0l0,0.4l-0.3,0.1l0,0.1l-0.1,0
			l0,0.2l-0.1,0l0,0.1l-0.1,0l0,0.3l-0.1,0l0,0.6l-0.1,0l0,0.1l-0.1,0l0,0.3l-0.5,0.2l0,0.2h-0.1l0,0.1h0.1l0,0.3l-0.1,0l0,0.1
			l-0.1,0l0,0.1l-0.1,0l0,0.3l-0.3,0l0,0.2l-0.1,0l0,0.2l-0.5,0.2l0,0.1l-0.4,0.1l0,0.5l-0.1,0l0,0.2l-0.1,0l0,0.2l-0.3,0.1l0,0.1
			l-0.1,0l0,0.1l-0.1,0l0,0.3l-0.3,0.1l0,0.2l-0.1,0l0,0.1l-0.1,0l0,0.1l-0.1,0l0,0.1l-0.7,0.2l0,0.1L341.5,142.9z M342.7,133.7
			L342.7,133.7L342.7,133.7L342.7,133.7l0.3,0l-0.2-2.8l-0.1,0l0-0.1h0.1l0-0.5l-0.6,0l0-0.2l-0.4-0.1l0-0.1l-0.1,0l0-0.2l-0.3,0
			l-0.3,0.1l0,0.5l-0.1,0l0,0.2l-0.1,0l0.2,3.2l0.7,0l0,0.1l0.3,0L342.7,133.7z"/>
	</g>
</g>
</svg>
