<?xml version="1.0" encoding="utf-8"?>
<!-- Generator: Adobe Illustrator 23.1.1, SVG Export Plug-In . SVG Version: 6.00 Build 0)  -->
<svg version="1.1" id="レイヤー_1" xmlns="http://www.w3.org/2000/svg" xmlns:xlink="http://www.w3.org/1999/xlink" x="0px"
	 y="0px" viewBox="0 0 841.9 595.3" style="enable-background:new 0 0 841.9 595.3;" xml:space="preserve">
<style type="text/css">
	.st0{fill:#CA9B3F;}
	.st1{fill:#88796F;}
	.st2{fill:#807165;}
	.st3{fill:#604D3F;}
	.st4{fill:#CFCAC5;}
</style>
<g id="のせもの">
	<g>
		<path class="st0" d="M724.9,130.3c-0.7,0.9-1.8,1.2-2.5,2.1c-0.3,0.3-0.6,0.7-0.8,1l0,0c-0.4-1.1-0.6-2.2-0.4-3.3
			c0.1-0.8,0.4-1.2,0.9-1.7c0.2-0.2,0.3-0.3,0.4-0.5c0,0,0,0,0.1,0c0.3-0.5,1.6-0.3,2-0.1c0.2,0.1,0.5,0.3,0.7,0.5
			c0.2,0.2,0.3,0.5,0.5,0.8c0,0.1,0,0.2,0.1,0.3c0.2,0.2,0.5-0.1,0.7,0s-0.2,0.7-0.5,1.1c-0.5,0.3-0.9,0.6-1.5,0.7
			c0.3-0.2,0.7-0.5,0.9-0.8C725.5,130.2,725,130.1,724.9,130.3z"/>
		<path class="st0" d="M726.1,129c-0.1-0.2-0.2-0.4-0.3-0.6c0,0,0,0,0-0.1c0-0.2,0-0.3,0.2-0.4s0.5,0,0.6,0.2c0,0,0,0.1,0.1,0.1
			C726.6,128.5,726.4,128.7,726.1,129z"/>
		<path class="st1" d="M796,157.9c-0.8-0.1-4-0.5-4.8-0.8c-2.6-1.1-5.5-1.9-5.6-1.9c-0.2-0.1-0.9-0.1-0.6,0c1.8,0.7,3.4,1.2,5.2,1.8
			c1.3,0.5,8.4,3.1,4.9,2.9c-3.7-0.2-9.4-2.6-12.9-4c-0.2-0.1-0.6,0.1-0.3,0.2c1.3,0.6,2.6,1.2,3.8,1.7c0.9,0.4,8,3.2,6.9,4.1
			c-0.7,0.5-11.3-4.9-12.7-5.4c-0.2-0.1-0.6,0.1-0.3,0.2c1.8,0.9,3.6,1.9,5.4,2.8c0.7,0.3,2.4,0.9,3,1.3c1.7,0.9,4,3.7-0.1,1.7
			c-4-1.9-7.1-5.9-10-5.8c-0.1,0-0.4,0-0.2,0.1c1,0.8,6.9,4.6,6.9,5.7s-4.9-2.6-6.6-4.2l-2.2-2.3c-5.7-5.4-13.1-7.6-19.3-12.3
			c-7.5-5.6-15.6-10.8-23.7-15.4c-0.2-0.1-0.5,0.1-0.3,0.2c0.1,0.1,0.2,0.1,0.3,0.2c-1.2,0.5-2.9,0.6-4.2,0.9
			c-0.6,0.1-1.1,0.3-1.7,0.5c0.2-0.3,0.3-0.6,0.3-0.8c-0.1-0.2-0.3-0.3-0.6-0.2c0.3-0.3,0.7-0.6,0.5-1.1l0,0v-0.1
			c-0.1-0.2-0.1-0.3-0.3-0.4s-0.4-0.1-0.6-0.1c-0.3,0.1-0.5,0.2-0.6,0.4c-0.2-0.2-0.5-0.3-0.7-0.4c-0.6-0.3-1.4-0.2-2.1,0
			c0.1-1.3,0.5-2.3,1.8-2.8c0.6-0.3,1.1-0.5,1.6-0.9c0.7-0.5,1.4-1.1,2.1-1.6c0.4-0.3,0.9-1.1,1.5-1.2c0.3-0.1,0-0.3-0.2-0.2
			c-0.7,0.2-1.1,0.8-1.6,1.2c-0.9,0.7-1.8,1.5-2.7,2c-0.2,0.2-0.5,0.3-0.8,0.4c-3.2-2.3-4.8-5.6-8.5-7.3c-2.7-1.2-5.3-2.5-8-3.7
			c-5.5-2.5-9.5-5.5-14.3-9c-6.4-4.6-12.9-7.4-19.9-10.8c-1.5-0.7-3.6-1.6-5-2.6c-2.4-1.7,0.3-1,1.7-0.3c3.2,1.5,6.1,2.9,9.2,4.6
			c0.6,0.4,1.2,0.8,1.6,0.9c0.1,0.1,0.2,0.1,0.3,0.2c0.2,0.1,0.7,0.3,0.4,0.1c-3.8-2.5-7.5-4.8-11.2-7.5c-0.2-0.2-3-2.5-3-2.6
			c0.4-0.4,5.6,2.4,6,2.7c2.9,1.8,5.8,3.9,8.6,5.9c0.1,0.1,0.4,0.1,0.2,0c-2.7-2.3-4.7-3.9-7.3-6.3c-1.2-1.1-4.2-3.8-0.7-2.3
			c1,0.4,2.2,1.3,3.1,1.9c1.8,1.2,3.3,2.7,4.8,4.2c0.2,0.2,0.3,0.3,0.5,0.4c0.1,0.1,0.2,0.2,0.2,0.2c0.1,0.1,0.4,0.2,0.2,0
			c-1.2-1.5-3.6-3.5-4.3-5.3c-1.1-2.8,2.1-0.5,3.2,0.5c1.3,1.2,2.2,2.8,3.5,4c0.1,0.1,0.4,0.2,0.2,0c-0.7-1.1-2.2-3-2.2-4.3
			c0.1-3.3,4.3,1.7,5,2.6c0.1,0.1,0.4,0.2,0.3,0c-0.5-1-2.5-3.5,0.1-2.9c0.8,0.2,2.5,2.4,3.1,3c0.1,0.1,0.3,0.2,0.3,0
			c-0.7-2.5,3.3-0.2,4.4,0.4c0.1,0.1,0.5,0.1,0.5-0.1c0-1.2,2.3,1.1,2.8,1.3c0.7,0.3,1.8,0.3,2.5,0.5c3,0.9,5,2.4,8,3.4
			c3.3,1.1,6.7,0.8,10.1,2.8c2.2,1.2,4.5,3.1,6.6,4.4c4.4,2.9,5.7,8,9.6,11.2c-0.5,0.5-1,0.9-0.9,1.1c0-0.2-0.4-0.1-0.4,0
			s0,0.1,0,0.2c0,0.2,0.3,0.2,0.4,0.1c1.6-0.7,2.7-2.4,4.4-3.1c2.4-1,5-1.4,7.5-2.5c0.3-0.1-0.1-0.4-0.3-0.3c-2.3,1-4.7,1.3-7,2.2
			c-0.3,0.1-0.6,0.2-0.9,0.4c-0.1-1.3-0.6-2.5-0.8-3.8c-0.1-0.4-0.6-1.8-0.1-2.1c0.4-0.3,1.7,0.1,2.2,0.2c-0.1,1,0,2,0.2,3
			c0,0.2,0.4,0.2,0.4,0c-0.1-0.7-0.2-1.3-0.2-2c0-0.4,0-0.7,0.1-1.1c0-0.3,0-0.6,0.4-0.7s0.9,0.3,1.2,0.4c0.7,0.3,1.4,0.7,2,1.2h0.1
			c-0.2,0.3-0.3,0.7-0.5,1c-0.1,0.1,0.3,0.2,0.4,0.1c0.4-0.5,0.6-1.1,0.9-1.6c0.9-1.3,2.3-0.6,3.1,0.3c-0.2,0.3-0.4,0.6-0.5,0.8
			c-0.2,0.2,0.3,0.3,0.4,0.1c0.7-0.9,0.9-1.5,2.1-1.6c1.2-0.1,2.3,0.2,3,1.2c0,0,0,0.1,0.1,0.1c-0.1,0.1,0,0.3,0.2,0.2
			c2-0.3,4.5-0.9,5.5,1.3c-0.2,0-0.5,0.1-0.7,0.1c-0.3,0-0.3,0.3,0,0.3c1.3,0,2.6-0.5,3.9-0.3c0.9,0.2,2.2,1.2,2.3,2.2
			c-0.8,0.1-1.6,0.4-2.2,0.5c-0.3,0-0.1,0.3,0.1,0.2c0.9-0.1,3.2-1,3.2,0.5c0,0.8-0.9,1.4-1.5,1.8c-0.1,0-0.2,0-0.4,0
			c-0.7,0-1.3,0-2,0c-0.3,0-0.3,0.3,0,0.3c0.8,0,1.6,0,2.3,0c0.1,0,0.2,0,0.2,0c0.3,0,0.6,0,0.9-0.1c0.8-0.1,1.7,0.2,1.5,1.2
			c-0.2,0.6-0.9,1-1.5,1.2l0,0c0,0-0.1,0-0.2,0c-1.3,0-2.6-0.1-4,0c-0.3,0-0.3,0.3,0,0.3c1.2-0.1,2.5,0,3.8,0c0.6,0,1.8,0,1.5,0.8
			c-0.2,0.5-0.8,0.9-1.3,1.1c-1.2-1-3.8-0.3-4.9-0.3c-0.3,0-0.3,0.3,0,0.3s0.6,0,1,0c1-0.1,3.3-0.3,3.8,0.8c0.6,1.2-4.5,1.3-4.9,1.3
			c-2.9,0.1-5.7,0.5-8.3-1.1l0,0c0.3-0.3,0.7-0.6,1-1c0.8-0.9,1.9-1.3,2.9-1.9c0.2-0.2-0.2-0.3-0.4-0.2c-0.8,0.5-1.8,0.8-2.5,1.5
			c-0.5,0.4-0.8,1-1.3,1.5c-0.5,0.4-1.1,0.7-1.7,1.1c-0.1-0.1-0.2-0.1-0.3-0.2c-0.2-0.1-0.7,0.1-0.4,0.2c5.2,3.1,11.4,3.7,16.6,6.9
			c3.5,2.1,6.6,4.9,10,7.1c1.8,1.2,3.6,1.9,5.4,2.9c1.1,0.6,6.1,3.8,2,4.1c-0.2,0-0.4,0.2-0.1,0.3c0.5,0.2,4,1.2,2.4,2.4
			c-0.1,0.1-0.1,0.2,0.1,0.3c0.2,0.1,3.7,1.3,1.9,2.1c-0.2,0.1,0.4,0.2,0.6,0.3c0.1,0,3.9,1.5,2.3,1.8c-0.2,0-1.1,0.3-0.8,0.4
			c0.5,0.2,4.6,1.8,4.6,2.1c0,0.8-4.8-0.2-5.6-0.3c-0.2,0-0.6,0-0.3,0.1c1.2,0.5,2.2,0.8,3.5,1.2c0.9,0.3,5.4,1.8,4.2,2.2
			c-0.7,0.2-2,0.1-3,0c-0.5-0.1-1.4-0.4-1.9-0.4c-1.8-0.5-3.3-1.1-4.5-1.4c-0.2-0.1,2.7,0.8,3,0.9
			C789.8,154.7,801.4,158.5,796,157.9z"/>
		<path class="st2" d="M787.1,154L787.1,154C787.1,154,787.1,154.1,787.1,154C787.2,154.1,787.1,154,787.1,154z"/>
		<path class="st3" d="M726.2,128.1c-0.2,0-0.2,0.4,0,0.4S726.4,128.1,726.2,128.1z"/>
		<path class="st4" d="M720.7,121.1c1.5-1.4,0.1-4.3-1.6-5.8c-1.7-1.5-5.1-4-10.6-6.8s-10.2-5.7-10.2-5.7s-7.2-2.7-11.8-2.9
			c2.3,1.3,4.6,2.8,6.9,4.4c4.8,3.5,8.8,6.6,14.3,9c2.7,1.2,5.3,2.5,8,3.7C717.9,118.1,719.3,119.6,720.7,121.1z"/>
		<path class="st4" d="M759.5,140.4c-4-1.9-11.1-10-15.3-10.6c-3.3-0.5-5.2,0.2-6.5,1.5c6.5,3.8,12.8,8,18.8,12.5
			c5.5,4.1,12,6.4,17.4,10.6c0.1-1,0-2.4-0.8-3.6C771.4,148.3,763.6,142.3,759.5,140.4z"/>
		<path class="st4" d="M741.2,107c0,0.4,0,0.7-0.1,1.1c0,0.7,0,1.3,0.2,2c0,0.2-0.4,0.2-0.4,0c-0.2-0.9-0.3-2-0.2-3
			c-0.5-0.1-1.8-0.5-2.2-0.2s0,1.7,0.1,2.1c0.1,0.7,0.3,1.3,0.5,2c1.1,0,2.3-0.1,3.2-0.4c1.9-0.8,6.4-2.3,11.3,0s5.7,5.9,5.5,7.2
			c-0.1,0.8,0.5,2.8,1,4.4c0.2,0,0.5,0,0.8,0c0.4,0,5.5-0.2,4.9-1.3c-0.5-1.1-2.9-0.9-3.8-0.8c-0.3,0-0.6,0-1,0
			c-0.3,0-0.3-0.2,0-0.3c1.1-0.1,3.7-0.7,4.9,0.3c0.5-0.2,1.1-0.6,1.3-1.1c0.3-0.8-1-0.8-1.5-0.8c-1.2,0-2.5-0.1-3.8,0
			c-0.3,0-0.3-0.3,0-0.3c1.3-0.1,2.6,0,4,0c0,0,0.1,0,0.2,0l0,0c0.5-0.2,1.3-0.6,1.5-1.2c0.2-1-0.7-1.2-1.5-1.2
			c-0.3,0-0.6,0-0.9,0.1c-0.1,0-0.2,0-0.2,0c-0.8,0-1.6,0-2.3,0c-0.3,0-0.3-0.3,0-0.3c0.7,0,1.3,0,2,0c0.1,0,0.2,0,0.4,0
			c0.6-0.4,1.5-1.1,1.5-1.8c0-1.5-2.4-0.6-3.2-0.5c-0.2,0-0.4-0.2-0.1-0.2c0.6-0.1,1.4-0.4,2.2-0.5c-0.1-1-1.4-2-2.3-2.2
			c-1.3-0.2-2.6,0.3-3.9,0.3c-0.3,0-0.3-0.3,0-0.3c0.2,0,0.5,0,0.7-0.1c-1-2.2-3.5-1.7-5.5-1.3c-0.2,0-0.4-0.1-0.2-0.2
			c0,0-0.1,0-0.1-0.1c-0.7-1-1.8-1.4-3-1.2c-1.2,0.2-1.4,0.8-2.1,1.6c-0.1,0.1-0.6,0.1-0.4-0.1c0.2-0.2,0.3-0.5,0.5-0.8
			c-0.9-0.9-2.2-1.6-3.1-0.3c-0.3,0.5-0.5,1.1-0.9,1.6c-0.1,0.1-0.5,0-0.4-0.1c0.2-0.3,0.4-0.6,0.5-1h-0.1c-0.6-0.5-1.3-0.9-2-1.2
			c-0.3-0.1-0.9-0.4-1.2-0.4C741.2,106.4,741.2,106.7,741.2,107z"/>
		<g>
			<g>
				<g>
					<path class="st3" d="M732.5,128.6c7.9,4.6,15.9,9.5,23.2,15.1c2.2,1.6,4.1,3.4,6.6,4.5c4.8,2.2,9.2,4.4,13.1,8.1
						c0.2,0.1,0.7,0,0.5-0.2c-5.6-5.4-13-7.5-19.1-12.1c-7.5-5.7-15.7-10.8-24-15.5C732.6,128.3,732.2,128.5,732.5,128.6
						L732.5,128.6z"/>
				</g>
			</g>
			<g>
				<g>
					<path class="st3" d="M775.4,156.2c2.9,2.7,5.9,5.3,9.5,7.1c0.1,0.1,0.5,0.1,0.4-0.1c-0.2-1.6-1.9-2.3-3.1-3.2
						c-0.2-0.2-7.2-4.9-2.4-2.2c1.1,0.6,2.2,1.4,3.4,2.1c1.6,1,5.8,4.6,8,3.6c0.1,0,0.1-0.1,0-0.2c-1.5-2-3.8-3-6-4.1
						c-1.3-0.6-2.5-1.4-3.8-2c-0.4-0.1-2.2-1-0.9-0.1c2.9,1.9,7.1,3,10.2,4.4c1.1,0.5,2.4,1.3,3.7,1c0.1,0,0.2-0.1,0.2-0.2
						c-0.3-1.8-3.5-2.6-5-3.3c-1.7-0.7-3.4-1.4-5.1-2.2c-0.5-0.2-3.3-1.2-1.8-0.5c2.5,1.2,5.5,1.8,8.1,2.7c1.7,0.5,3.8,1.5,5.6,1.1
						c0.1,0,0.2-0.1,0.2-0.2c-0.8-2.1-8.9-4.3-10.9-4.8c-1.4-0.3-0.4,0.1,0.4,0.4c1.3,0.5,2.8,0.8,4.1,1.2c2.2,0.6,4.5,1.5,6.9,1.4
						c0.1,0,0.2,0,0.3-0.1c0-0.1,0.1-0.2,0.2-0.4c0-0.1,0-0.1-0.1-0.2c-1.9-1.3-4.3-1.8-6.5-2.5c-0.8-0.2-5.9-1.9-2.8-0.7
						c1.3,0.5,7.9,2.7,9.1,1.2c0.1-0.1,0-0.2,0-0.2c-1.4-0.8-2.8-1.4-4.3-1.8c-1-0.3-2.2-0.8-3.3-1c-0.5-0.1-1.6-0.1-0.2,0.2
						c1.1,0.2,5.1,1.4,5.8-0.1c0-0.1,0-0.1-0.1-0.2c-0.7-0.5-4.4-1.5-4.5-2c0,0,0.7-0.1,1.1-0.7c0-0.1,0-0.1-0.1-0.2
						c-0.5-0.4-2.7-1.1-2.9-1.4c-0.2-0.4,1.4-0.3,0.7-1.1c-0.5-0.6-1.7-0.6-2.2-1.1c-0.6-0.6,0.2-0.3,0.2-1.2c0-0.1,0-0.1-0.1-0.1
						c-5-2.4-2.1,0-0.6-2c0,0,0.1-0.1,0-0.1c-1.2-2-3.2-3.1-5.2-4.1c-4.5-2.2-8.3-5.3-12.4-8.2c-5.8-4.1-12.9-4.9-18.9-8.4
						c-0.2-0.1-0.7,0.1-0.4,0.2c5.5,3.2,12.1,3.8,17.5,7.4c3.4,2.2,6.5,4.9,9.9,7c1.5,1,3.2,1.6,4.8,2.5c0.8,0.4,6.2,3.8,2,4
						c-0.2,0-0.4,0.2-0.2,0.3c0.5,0.2,3.9,1.2,2.4,2.3c-0.1,0.1-0.1,0.2,0.1,0.3c0.2,0.1,3.7,1.3,1.9,2.1c-0.2,0.1-0.2,0.2,0,0.3
						c0.7,0.3,4.5,1.4,1.9,2c-0.2,0-0.3,0.2-0.1,0.3c0.4,0.2,4.5,1.7,4.5,1.9c-0.3,1-4.9-0.2-5.8-0.3c-0.2,0-0.6,0.2-0.2,0.3
						c1.2,0.4,2.5,0.9,3.7,1.2c0.6,0.2,4.8,1.3,3.9,1.8c-1.7,0.9-7.1-1.4-8.8-1.8c-0.2-0.1-0.7,0.2-0.3,0.3c1.6,0.6,3.3,1.1,4.9,1.6
						c1,0.3,2,0.5,3,0.9c3.8,1.5,0.6,1.1-0.7,0.9c-3-0.4-6.1-1.7-9-2.6c-0.2-0.1-0.7,0.1-0.3,0.3c1.8,0.7,3.5,1.3,5.3,1.9
						c0.9,0.3,1.7,0.6,2.6,1c0.7,0.3,4.4,1.4,2.1,1.5c-3.9,0.2-8.9-2.6-12.5-3.8c-0.2-0.1-0.6,0.1-0.3,0.3c1.1,0.5,2.2,1,3.3,1.5
						s8,3.3,7,4.1c-0.5,0.4-10.9-4.7-12.2-5.2c-0.2-0.1-0.6,0.1-0.3,0.3c1.7,0.9,3.4,1.8,5.1,2.6c2.2,1.1,8.8,5.8,2.2,2.4
						c-2.6-1.3-6.2-5.3-9.2-5.2c-0.1,0-0.4,0.1-0.2,0.2c0.7,0.6,6.7,4.9,6.6,5.2c-0.2,1.3-2.3-0.9-2.9-1.3c-1.9-1.4-3.7-3-5.5-4.6
						C775.7,156,775.2,156.1,775.4,156.2L775.4,156.2z"/>
				</g>
			</g>
			<g>
				<g>
					<path class="st3" d="M724.4,124.4c-3.3-2.3-4.9-5.6-8.7-7.4c-2.6-1.2-5.2-2.5-7.8-3.6c-5.6-2.5-9.5-5.6-14.4-9.1
						c-6.2-4.5-12.5-7.5-19.4-10.8c-1.6-0.8-3.7-1.5-5.1-2.6c-2.6-2,0.3-0.6,2,0.2c3.6,1.7,7.2,3.5,10.7,5.4
						c0.2,0.1,0.7-0.1,0.4-0.2c-3.7-2.4-7.5-4.8-11-7.4c-0.5-0.4-2.8-2.6-3.2-2.5c1.3-0.3,5.3,2.7,6.5,3.4c2.8,1.7,5.4,3.6,8.1,5.4
						c0.1,0.1,0.7,0,0.5-0.2c-2.7-2.3-5.3-4.6-8-7c-4.3-3.9,0.8-1,2.7,0.3c2,1.4,3.7,3.3,5.5,5c0.2,0.1,0.7,0.1,0.5-0.2
						c-1.2-1.5-3.7-3.6-4.3-5.4c-1-2.9,2.5,0.4,3.3,1.2c1.1,1.2,2,2.5,3.2,3.6c0.1,0.1,0.7,0.1,0.5-0.1c-0.6-0.9-2.5-3.2-2.5-4.3
						c0-2.9,4,1.6,4.8,2.8c0.1,0.2,0.7,0.1,0.5-0.1c-0.5-1.1-2.3-3.7,0.6-2.5c0.9,0.4,1.8,2.1,2.6,2.8c0.1,0.1,0.6,0.1,0.5-0.1
						c-0.7-2.5,2.9-0.2,4,0.4c0.1,0.1,0.5,0.1,0.5-0.1c0-1.2,2.2,1.2,2.7,1.4c0.5,0.2,2.3,0.1,2.4,0.1c2.9,1,5.7,3,8.6,4.1
						c0.5,0.2,1,0,1.5,0.1c3,0.5,5.4,0.6,8.2,2.2c2.1,1.2,3.9,2.7,5.9,3.9c4.7,2.9,6.1,8.2,10.1,11.6c0.2,0.1,0.7,0,0.5-0.2
						c-3.9-3.2-5.2-8.3-9.4-11.2c-3.9-2.6-7.8-5.7-12.5-6.5c0.1,0-2.5-0.2-2.5-0.2c-1.8-0.3-3-1.6-4.5-2.2s-3-0.7-4.6-1.3
						c-0.9-0.4-2-0.7-2.8-1c-1.4-0.6-2.2-1.3-3.5-2.1c-0.1-0.1-0.3-0.1-0.4,0c-1.1,0.8,0.5,0.8-1,0.4c-1.3-0.3-2.1-1.6-3.5-1.8
						c-0.1,0-0.3,0-0.4,0.1c-1.1,1.7,1.4,3-1.2,0.4c-1.1-1.1-1.9-2.2-3.5-2.3c-0.1,0-0.3,0.1-0.3,0.2c-0.5,2.5,3.2,5.2,0.1,1.5
						c-1.2-1.4-2.6-2.6-4.6-2.6c-0.1,0-0.2,0-0.3,0.1c-0.5,1.1,1,2.9,1.5,3.8c1.6,2.9,2.3,2.8-0.1,0c-1-1.2-4.8-5.7-6.7-4.1
						c0,0-0.1,0.1,0,0.1c1,1.6,2.3,3.1,3.5,4.5c0.6,0.8,1.4,2.2,2.2,2.7c0.6,0.4-1.1-1.6-1.4-1.9c-2.7-2.5-5.7-5.1-9.3-6
						c-0.1,0-0.3,0-0.4,0.2c-0.2,1.3,4.3,4.4,5.4,5.4c1.2,1.1,2.4,2.3,3.7,3.3c0.7,0.5,2.3,1.8,0.9,0.3c-1.6-1.6-13-9.8-14.8-8.2
						c-0.1,0.1,0,0.1,0,0.2c1.7,1.9,4.2,3.4,6.3,4.8c2.4,1.6,5.3,4.4,8.1,5.3c0.8,0.3-0.1-0.5-0.3-0.6c-1-0.8-2.6-1.4-3.8-2
						c-2.2-1.1-4.4-2.2-6.6-3.2c-1-0.5-3.2-2.1-4.3-1.2c-0.1,0-0.1,0.1-0.1,0.2c0.5,1.2,2.5,1.8,3.5,2.4c3,1.6,6,2.9,9.1,4.3
						c6.6,2.9,12.6,6.9,18.2,11.4c3.1,2.5,6.2,4.2,10,5.8c2.3,1.1,4.6,2.2,7,3.3c4.3,1.9,6.2,5.3,9.8,7.9
						C724.2,124.8,724.6,124.6,724.4,124.4L724.4,124.4z"/>
				</g>
			</g>
			<g>
				<g>
					<path class="st3" d="M729.4,120.7c-0.7,0.2-1.1,0.8-1.6,1.2c-0.9,0.7-1.8,1.5-2.7,2c-0.8,0.5-1.8,0.6-2.3,1.3
						c-0.5,0.6-0.6,1.5-0.7,2.3c0,0.2,0.6,0.2,0.6,0c0.1-1.3,0.5-2.3,1.8-2.9c0.6-0.3,1.1-0.5,1.6-0.9c0.7-0.5,1.4-1.1,2.1-1.6
						c0.4-0.3,0.9-1.1,1.4-1.2C729.8,120.9,729.5,120.7,729.4,120.7L729.4,120.7z"/>
				</g>
			</g>
			<g>
				<g>
					<path class="st3" d="M722,127.6c-0.1,0.6-0.6,0.8-0.9,1.2c-0.3,0.5-0.5,1-0.5,1.6c-0.2,1.2,0.1,2.5,0.6,3.6
						c0.1,0.2,0.7,0.1,0.6-0.1c-0.5-1.1-0.8-2.5-0.5-3.7c0.1-0.7,0.4-1.2,0.9-1.7c0.3-0.4,0.4-0.4,0.5-0.8
						C722.7,127.4,722.1,127.3,722,127.6L722,127.6z"/>
				</g>
			</g>
			<g>
				<g>
					<path class="st3" d="M721.7,134.8c0-0.3,0.2-1,0.4-1.3c0.3-0.4,0.6-0.9,1-1.2c0.7-0.7,1.7-1,2.3-1.8c0.2-0.2-0.4-0.4-0.5-0.2
						c-0.4,0.5-1,0.8-1.5,1.2c-0.4,0.3-0.8,0.7-1.1,1.1c-0.3,0.3-0.6,0.7-0.8,1.1c-0.2,0.6,0,0.6,0,1.2
						C721.5,134.9,721.7,134.9,721.7,134.8L721.7,134.8z"/>
				</g>
			</g>
			<g>
				<g>
					<path class="st3" d="M723.9,131.5c1.5,0.2,2.9-1,4.3-1.4c1.7-0.4,3.6-0.4,5.2-1.2c0.3-0.1-0.2-0.3-0.4-0.2
						c-1.3,0.6-3,0.6-4.3,1c-0.8,0.2-1.7,0.4-2.5,0.8c-0.7,0.3-1.2,0.8-2.1,0.8C723.8,131.3,723.6,131.4,723.9,131.5L723.9,131.5z"
						/>
				</g>
			</g>
			<g>
				<g>
					<path class="st3" d="M735.4,115.8c0,0.1,0,0.1,0,0.2c0,0.2,0.3,0.2,0.4,0.1c1.5-0.7,2.6-2.3,4.2-3c2.5-1.1,5.2-1.5,7.8-2.6
						c0.3-0.2-0.1-0.4-0.3-0.3c-2.3,1-4.8,1.3-7,2.2c-0.8,0.3-1.8,0.7-2.4,1.2c-0.4,0.3-2.2,1.8-2.1,2.2
						C735.8,115.6,735.4,115.6,735.4,115.8L735.4,115.8z"/>
				</g>
			</g>
			<g>
				<g>
					<path class="st3" d="M739.5,113.1c0-1.4-0.6-2.7-0.9-4.1c-0.1-0.4-0.6-1.8-0.1-2.1c0.4-0.3,1.8,0.1,2.3,0.2
						c0.3,0.1,0.5-0.2,0.2-0.3c-0.6-0.2-2.7-0.7-3.2,0.1c-0.3,0.6,0.2,2,0.4,2.6c0.3,1.2,0.8,2.3,0.8,3.6
						C738.9,113.4,739.5,113.4,739.5,113.1L739.5,113.1z"/>
				</g>
			</g>
			<g>
				<g>
					<path class="st3" d="M741.3,110.1c-0.1-0.7-0.2-1.3-0.2-2c0-0.4,0-0.7,0.1-1.1c0-0.3,0-0.6,0.3-0.6s0.9,0.3,1.2,0.4
						c0.7,0.3,1.4,0.7,2,1.2c0.2,0.1,0.7,0,0.5-0.2c-0.6-0.5-1.3-1-2.1-1.3c-0.5-0.2-1.3-0.6-1.9-0.6c-0.5,0-0.5,0.4-0.6,0.8
						c-0.2,1.1-0.1,2.3,0.1,3.4C740.9,110.3,741.3,110.3,741.3,110.1L741.3,110.1z"/>
				</g>
			</g>
			<g>
				<g>
					<path class="st3" d="M744.8,109.2c0.4-0.5,0.6-1.1,0.9-1.6c0.9-1.3,2.2-0.5,3.1,0.3c0.2,0.2,0.7,0,0.5-0.2
						c-0.8-0.8-1.7-1.4-2.9-1.1s-1.4,1.6-2,2.5C744.2,109.2,744.7,109.3,744.8,109.2L744.8,109.2z"/>
				</g>
			</g>
			<g>
				<g>
					<path class="st3" d="M748.7,108.8c0.7-0.9,0.9-1.5,2.1-1.6c1.2-0.1,2.3,0.2,3,1.2c0.1,0.2,0.7,0.1,0.6-0.1
						c-0.7-1.1-1.8-1.5-3.1-1.5c-0.5,0-1.2-0.1-1.6,0.1c-0.6,0.3-1,1.2-1.4,1.7C748.1,108.8,748.6,108.9,748.7,108.8L748.7,108.8z"
						/>
				</g>
			</g>
			<g>
				<g>
					<path class="st3" d="M754.2,108.7c2-0.4,4.5-0.9,5.5,1.4c0.1,0.2,0.7,0.1,0.6-0.1c-1.1-2.5-4-2.1-6.2-1.6
						C753.7,108.4,753.9,108.7,754.2,108.7L754.2,108.7z"/>
				</g>
			</g>
			<g>
				<g>
					<path class="st3" d="M759,110.4c1.3,0,2.6-0.5,3.9-0.3c0.9,0.2,2.2,1.2,2.3,2.2c0,0.2,0.5,0.2,0.6,0c0.1-1-1.3-2.1-2.2-2.4
						c-1.4-0.6-3.1,0.2-4.6,0.2C758.6,110.1,758.6,110.4,759,110.4L759,110.4z"/>
				</g>
			</g>
			<g>
				<g>
					<path class="st3" d="M763.1,113c0.9-0.1,3.2-1,3.2,0.5c0,0.8-1,1.5-1.6,1.9c-0.2,0.2,0.2,0.3,0.3,0.2c0.9-0.5,2.2-1.4,1.7-2.6
						c-0.6-1.4-2.7-0.3-3.8-0.2C762.7,112.7,762.9,113,763.1,113L763.1,113z"/>
				</g>
			</g>
			<g>
				<g>
					<path class="st3" d="M762.5,115.6c1.2,0,2.4,0,3.5-0.1c0.7-0.1,1.7,0.2,1.5,1.2c-0.2,0.6-0.9,1-1.5,1.2
						c-0.3,0.1,0.1,0.4,0.3,0.3c1.1-0.4,2.4-1.3,1.5-2.5c-0.4-0.5-0.8-0.7-1.4-0.6c-0.7,0.1-1.2,0.3-1.9,0.3s-1.3,0-2,0
						C762.2,115.3,762.2,115.6,762.5,115.6L762.5,115.6z"/>
				</g>
			</g>
			<g>
				<g>
					<path class="st3" d="M761.9,118.2c1.2-0.1,2.5,0,3.8,0c0.6,0,1.7-0.1,1.5,0.8c-0.1,0.5-1,1-1.5,1.1c-0.4,0.1,0.1,0.4,0.3,0.3
						c0.7-0.2,2.6-1.4,1.6-2.3c-0.4-0.4-1.2-0.3-1.7-0.2c-1.3,0-2.6-0.1-4,0C761.6,117.9,761.6,118.2,761.9,118.2L761.9,118.2z"/>
				</g>
			</g>
			<g>
				<g>
					<path class="st3" d="M761,120.1c0.3,0,0.6,0,1,0c1-0.1,3.3-0.3,3.8,0.8c0.6,1.2-4.5,1.3-4.9,1.3c-2.9,0.1-5.7,0.5-8.3-1.1
						c-0.2-0.1-0.7,0.1-0.4,0.2c1.6,1,3.6,1.4,5.5,1.4c1.7,0,3.5-0.1,5.2-0.2c0.8,0,2.4,0.1,3-0.5c0.6-0.5,0.7-1.1,0.1-1.8
						c-1.1-1.2-3.9-0.5-5.1-0.4C760.7,119.8,760.7,120.1,761,120.1L761,120.1z"/>
				</g>
			</g>
			<g>
				<g>
					<path class="st3" d="M756.1,117.9c-0.9,0.5-1.8,0.8-2.6,1.5c-0.5,0.4-0.8,1-1.3,1.5c-0.5,0.4-1.2,0.8-1.7,1.1
						c-0.3,0.2,0.2,0.3,0.4,0.2c1.1-0.6,1.8-1.2,2.7-2.2c0.8-0.9,1.9-1.3,2.9-1.9C756.8,118,756.3,117.8,756.1,117.9L756.1,117.9z"
						/>
				</g>
			</g>
			<g>
				<g>
					<path class="st3" d="M722.5,127.9c0.4-0.5,1.5-0.3,2-0.1c0.2,0.1,0.5,0.3,0.7,0.5s0.3,0.5,0.5,0.8c0,0.1,0,0.2,0.1,0.3
						c0.2,0.2,0.5-0.1,0.7,0s-0.6,1.2-0.7,1.4c-0.1,0.2,0.5,0.3,0.6,0.1c0.2-0.4,1.1-1.1,0.9-1.6c-0.2-0.4-0.8-0.2-1.1-0.2
						c0.1,0,0.2,0.1,0.3,0.1c-0.2-0.3-0.2-0.7-0.5-1s-0.7-0.7-1.1-0.8c-0.8-0.3-1.8-0.2-2.5,0.2
						C722.3,127.6,722.3,127.7,722.5,127.9C722.4,127.8,722.4,127.8,722.5,127.9C722.3,128,722.5,128,722.5,127.9L722.5,127.9z"/>
				</g>
			</g>
			<g>
				<g>
					<path class="st3" d="M725.8,128.3c0-0.4,0.6-0.6,0.8-0.2c0.1,0.2,0.6,0.1,0.4-0.1c-0.1-0.1-0.1-0.2-0.2-0.3
						c-0.2-0.1-0.4-0.2-0.6-0.2c-0.5,0-0.9,0.3-0.8,0.8C725.3,128.5,725.8,128.5,725.8,128.3L725.8,128.3z"/>
				</g>
			</g>
			<g>
				<g>
					<path class="st3" d="M726.8,128.1c0.1,0,0.1-0.1,0-0.1S726.7,128.1,726.8,128.1L726.8,128.1z"/>
				</g>
			</g>
			<g>
				<g>
					<path class="st3" d="M726.6,128.1c0,0.5-0.4,0.7-0.7,1c-0.2,0.2,0.3,0.3,0.5,0.2c0.4-0.3,0.9-0.7,0.6-1.2
						C727,127.9,726.6,127.9,726.6,128.1L726.6,128.1z"/>
				</g>
			</g>
		</g>
		<g>
			<g>
				<path class="st3" d="M693.6,103.7c0,0.4,0,0.8,0,1.2c0,0.2,0.5,0.2,0.5,0c0-0.4,0-0.8,0-1.2
					C694.2,103.5,693.6,103.5,693.6,103.7L693.6,103.7z"/>
			</g>
		</g>
		<g>
			<g>
				<path class="st3" d="M695,104.6c0,0.3-0.1,0.6-0.1,0.9c0,0.2,0.5,0.2,0.5,0c0.1-0.3,0.1-0.6,0.2-0.9
					C695.5,104.4,695,104.4,695,104.6L695,104.6z"/>
			</g>
		</g>
		<g>
			<g>
				<path class="st3" d="M696.2,105.2c0,0.3,0,0.5-0.2,0.7c-0.1,0.2,0.5,0.3,0.5,0.1c0.1-0.3,0.2-0.5,0.2-0.8
					C696.7,105,696.2,105,696.2,105.2L696.2,105.2z"/>
			</g>
		</g>
		<g>
			<g>
				<path class="st3" d="M699,108.7c0.1-0.8,0.4-1.3,0.9-1.9c0.2-0.2-0.3-0.3-0.5-0.2c-0.5,0.6-1,1.2-0.9,2.1
					C698.5,108.9,699,108.9,699,108.7L699,108.7z"/>
			</g>
		</g>
		<g>
			<g>
				<path class="st3" d="M701.6,108.5c-0.5,0.4-0.5,1-0.6,1.6c0,0.2,0.6,0.2,0.6,0c0-0.5,0-1.1,0.4-1.4
					C702.2,108.5,701.7,108.4,701.6,108.5L701.6,108.5z"/>
			</g>
		</g>
		<g>
			<g>
				<path class="st3" d="M702.2,109.4c-0.1,0.3-0.2,0.7-0.3,1.1c-0.1,0.3,0.5,0.3,0.6,0.1c0.1-0.3,0.2-0.7,0.3-1
					C702.8,109.3,702.3,109.2,702.2,109.4L702.2,109.4z"/>
			</g>
		</g>
		<g>
			<g>
				<path class="st3" d="M708.4,112.2c-0.1,0.3-0.3,1-0.6,1.1s0,0.3,0.2,0.2c0.5-0.2,0.5-0.9,0.6-1.3
					C708.7,112.1,708.5,112.1,708.4,112.2L708.4,112.2z"/>
			</g>
		</g>
		<g>
			<g>
				<path class="st3" d="M710.2,112c-0.5,0.6-1,1.4-1,2.2c0,0.2,0.5,0.2,0.6,0c0-0.8,0.3-1.5,0.8-2.1
					C710.7,111.9,710.3,111.9,710.2,112L710.2,112z"/>
			</g>
		</g>
		<g>
			<g>
				<path class="st3" d="M710.8,113.5C710.9,113.5,710.9,113.5,710.8,113.5c0-0.1,0-0.2-0.1-0.2c-0.3,0.3-0.4,0.6-0.6,1
					c-0.1,0.2,0.5,0.3,0.5,0.1c0.1-0.3,0.3-0.6,0.5-0.9c0.2-0.2-0.2-0.2-0.3-0.2h-0.1C710.5,113.4,710.7,113.5,710.8,113.5
					L710.8,113.5z"/>
			</g>
		</g>
		<g>
			<g>
				<path class="st3" d="M712.1,113.8c-0.2,0.4-0.4,0.8-0.5,1.2c-0.1,0.3,0.5,0.3,0.5,0c0.1-0.4,0.3-0.8,0.4-1.2
					C712.7,113.7,712.2,113.7,712.1,113.8L712.1,113.8z"/>
			</g>
		</g>
		<g>
			<g>
				<path class="st3" d="M714.9,115.3c-0.2,0.2-0.3,0.4-0.4,0.7c0,0.2,0.5,0.2,0.5,0s0.1-0.4,0.2-0.5
					C715.5,115.3,715,115.2,714.9,115.3L714.9,115.3z"/>
			</g>
		</g>
		<g>
			<g>
				<path class="st3" d="M719.6,118.2c-0.3,0.2-1,0.7-0.9,1.1c0,0.2,0.3,0.1,0.4,0.1c0.2-0.2,0.3-0.4,0.4-0.6
					c0.2-0.2,0.3-0.3,0.5-0.5C720.1,118.1,719.7,118.1,719.6,118.2L719.6,118.2z"/>
			</g>
		</g>
		<g>
			<g>
				<path class="st3" d="M720.7,118.2c-0.1,0.4-0.4,0.6-0.6,1c-0.2,0.3-0.3,0.7-0.4,1c0,0.2,0.6,0.2,0.6,0c-0.1-0.8,0.6-1.2,0.8-1.9
					C721.1,118.1,720.7,118.1,720.7,118.2L720.7,118.2z"/>
			</g>
		</g>
		<g>
			<g>
				<path class="st3" d="M721.1,120.2c-0.2,0.3-0.3,0.7-0.4,1c0.1,0,0.1-0.1,0.2-0.1h-0.1c-0.3,0.1-0.1,0.3,0.1,0.3h0.1
					c0.1,0,0.2-0.1,0.2-0.2c0.1-0.3,0.2-0.7,0.3-1C721.5,120.1,721.2,120.1,721.1,120.2L721.1,120.2z"/>
			</g>
		</g>
		<g>
			<g>
				<path class="st3" d="M722.1,121.5c-0.2,0.2-0.3,0.5-0.4,0.8c0,0.2,0.3,0.2,0.4,0.1c0.3-0.2,0.3-0.5,0.5-0.8
					C722.8,121.4,722.2,121.4,722.1,121.5L722.1,121.5z"/>
			</g>
		</g>
		<g>
			<g>
				<path class="st3" d="M721.3,129.8c0.4,0,0.8,0.1,1.1-0.2c0.3-0.2-0.3-0.4-0.5-0.2c-0.2,0.1-0.5,0.1-0.7,0.1
					C721,129.4,721,129.7,721.3,129.8L721.3,129.8z"/>
			</g>
		</g>
		<g>
			<g>
				<path class="st3" d="M721,130.3c0.4,0.1,0.7,0.2,1.1,0.2c0.4,0,0.5-0.4,0.1-0.3c-0.3,0-0.7-0.1-1-0.1
					C721,130,720.7,130.3,721,130.3L721,130.3z"/>
			</g>
		</g>
		<g>
			<g>
				<path class="st3" d="M721.4,131.7c0.3-0.1,0.5-0.2,0.7-0.4s-0.3-0.3-0.5-0.2s-0.3,0.2-0.5,0.2
					C720.8,131.6,721.2,131.8,721.4,131.7L721.4,131.7z"/>
			</g>
		</g>
		<g>
			<g>
				<path class="st3" d="M722.8,126.6c0.4-0.1,0.7-0.3,1.1-0.3c0.2,0,0.4-0.2,0.1-0.3c-0.5-0.1-1,0.2-1.4,0.3
					C722.2,126.4,722.6,126.6,722.8,126.6L722.8,126.6z"/>
			</g>
		</g>
		<g>
			<g>
				<path class="st3" d="M723.3,125.4c0.3,0,0.5,0.1,0.8,0.2s0.6-0.2,0.2-0.3c-0.3-0.1-0.6-0.1-1-0.1
					C723,125.1,723,125.4,723.3,125.4L723.3,125.4z"/>
			</g>
		</g>
		<g>
			<g>
				<path class="st3" d="M725.4,124.4c0.5,0,0.8,0.1,1.2,0.3c0.1,0.1,0.4,0,0.3-0.1C726.6,124.1,725.8,124.2,725.4,124.4
					C725.2,124.3,725.3,124.4,725.4,124.4L725.4,124.4z"/>
			</g>
		</g>
		<g>
			<g>
				<path class="st3" d="M726.2,123.8c0.2,0.1,0.5,0.1,0.8,0.2s0.5-0.2,0.2-0.3c-0.3-0.1-0.5-0.1-0.8-0.1
					C726.1,123.5,725.9,123.8,726.2,123.8L726.2,123.8z"/>
			</g>
		</g>
		<g>
			<g>
				<path class="st3" d="M727.5,122.6c0.2,0,0.5,0,0.8,0s0.3-0.3,0-0.3c-0.2,0-0.5,0-0.8,0C727.2,122.4,727.2,122.6,727.5,122.6
					L727.5,122.6z"/>
			</g>
		</g>
		<g>
			<g>
				<path class="st3" d="M735.4,128.7c-0.1,0.4-0.3,1-0.1,1.4c0,0.1,0.3,0.1,0.4,0c0.2-0.4,0.2-1,0.2-1.4
					C736,128.5,735.5,128.5,735.4,128.7L735.4,128.7z"/>
			</g>
		</g>
		<g>
			<g>
				<path class="st3" d="M737.7,128.3c-0.7,0.6-1.2,1.5-1.3,2.5c0,0.2,0.6,0.2,0.6,0c0-0.9,0.5-1.7,1.1-2.4
					C738.4,128.3,737.9,128.2,737.7,128.3L737.7,128.3z"/>
			</g>
		</g>
		<g>
			<g>
				<path class="st3" d="M737.8,130.1c0,0.4-0.3,0.9-0.1,1.2c0,0.1,0.4,0.1,0.4,0c0.1-0.4,0.2-0.9,0.2-1.2
					C738.3,129.9,737.9,129.9,737.8,130.1L737.8,130.1z"/>
			</g>
		</g>
		<g>
			<g>
				<path class="st3" d="M746,112.6c0.2-0.2,0.5-0.8,0.8-0.9c0.2,0,0.2-0.2,0-0.2c-0.6-0.1-0.9,0.6-1.2,0.9
					C745.5,112.6,745.9,112.7,746,112.6L746,112.6z"/>
			</g>
		</g>
		<g>
			<g>
				<path class="st3" d="M747.5,112.4c0.2-0.2,0.5-0.4,0.8-0.4c0.2,0,0.3-0.2,0.1-0.3c-0.5-0.1-0.8,0.2-1.2,0.5
					C747,112.4,747.4,112.5,747.5,112.4L747.5,112.4z"/>
			</g>
		</g>
		<g>
			<g>
				<path class="st3" d="M748.2,112.8c0.2,0,0.4,0,0.6-0.1c0.2-0.1,0.3-0.3,0.5-0.3c0.4-0.1-0.1-0.4-0.3-0.3
					c-0.3,0.2-0.4,0.4-0.8,0.4C747.9,112.6,748,112.8,748.2,112.8L748.2,112.8z"/>
			</g>
		</g>
		<g>
			<g>
				<path class="st3" d="M749.2,113.7c0.6-0.2,1.2-0.4,1.8-0.8c0.3-0.1-0.2-0.3-0.4-0.2c-0.5,0.3-1.1,0.5-1.6,0.8
					C748.8,113.6,749.2,113.7,749.2,113.7L749.2,113.7z"/>
			</g>
		</g>
		<g>
			<g>
				<path class="st3" d="M751.1,114c0.4-0.1,0.8-0.2,1.2-0.3c0.2,0,0.2-0.2,0-0.2c-0.5-0.1-0.9,0.1-1.4,0.3
					C750.6,113.8,750.9,114,751.1,114L751.1,114z"/>
			</g>
		</g>
		<g>
			<g>
				<path class="st3" d="M751.7,114.6L751.7,114.6c-0.3,0.2,0.1,0.3,0.2,0.3c0.2,0,0.4-0.2,0.7-0.2c-0.1-0.1-0.2-0.2-0.3-0.2
					c-0.2,0.2-0.4,0.3-0.6,0.4c-0.2,0.2,0.3,0.3,0.5,0.2c0.2-0.2,0.4-0.3,0.6-0.4c0.2-0.2-0.3-0.3-0.4-0.2
					C752.1,114.4,751.9,114.6,751.7,114.6c0,0.1,0.2,0.2,0.3,0.2c0-0.1,0-0.1,0-0.1C752.1,114.5,751.8,114.5,751.7,114.6
					L751.7,114.6z"/>
			</g>
		</g>
		<g>
			<g>
				<path class="st3" d="M751.8,116.2c0.1-0.1,0.2-0.2,0.3-0.2c-0.2-0.1-0.3-0.1-0.5-0.2c0,0,0,0.1-0.1,0.1
					c-0.1,0.2,0.4,0.3,0.5,0.1c0,0,0-0.1,0.1-0.1c0.1-0.2-0.4-0.2-0.5-0.2c-0.2,0.1-0.3,0.2-0.4,0.3
					C751.2,116.2,751.7,116.3,751.8,116.2L751.8,116.2z"/>
			</g>
		</g>
		<g>
			<g>
				<path class="st3" d="M749.5,131.3c0.1,0.1,0.2,0.3,0.3,0.4c0.1,0.2,0.6,0.1,0.5-0.1c-0.1-0.1-0.2-0.3-0.3-0.4
					S749.4,131.1,749.5,131.3L749.5,131.3z"/>
			</g>
		</g>
		<g>
			<g>
				<path class="st3" d="M751.3,131.9c0,0.2,0,0.5,0,0.8c0,0.2,0.6,0.2,0.6,0s0-0.5,0-0.8C751.9,131.7,751.3,131.6,751.3,131.9
					L751.3,131.9z"/>
			</g>
		</g>
		<g>
			<g>
				<path class="st3" d="M752.4,132.3c0,0.3-0.1,0.6,0,0.9c0,0.1,0.1,0.1,0.2,0.1h0.1c0.3,0.1,0.5-0.2,0.1-0.3h-0.1
					c0.1,0,0.1,0.1,0.2,0.1c-0.1-0.3,0-0.6-0.1-0.8C752.8,132.1,752.5,132.2,752.4,132.3L752.4,132.3z"/>
			</g>
		</g>
		<g>
			<g>
				<path class="st3" d="M753.1,132.8c0,0.2,0,0.4,0.2,0.6c0.1,0.2,0.7,0.1,0.5-0.1c-0.1-0.2-0.1-0.4-0.2-0.6
					C753.7,132.6,753.1,132.6,753.1,132.8L753.1,132.8z"/>
			</g>
		</g>
		<g>
			<g>
				<path class="st3" d="M745.4,134.6c0,0.2,0,0.5,0,0.8c0,0.2,0.5,0.2,0.5,0s0-0.5,0-0.8C745.9,134.4,745.4,134.4,745.4,134.6
					L745.4,134.6z"/>
			</g>
		</g>
		<g>
			<g>
				<path class="st3" d="M747.4,135c-0.2,0.5-0.5,1-0.5,1.6c0,0.2,0.6,0.2,0.6,0c-0.1-0.5,0.2-1,0.4-1.5
					C748,134.9,747.5,134.9,747.4,135L747.4,135z"/>
			</g>
		</g>
		<g>
			<g>
				<path class="st3" d="M748.2,136.1c-0.4,0.3-0.6,0.9-0.5,1.4c0,0.2,0.6,0.2,0.5,0c0-0.4,0-1,0.4-1.3
					C748.8,136,748.3,135.9,748.2,136.1L748.2,136.1z"/>
			</g>
		</g>
		<g>
			<g>
				<path class="st3" d="M748.8,137c-0.1,0.2-0.2,0.4-0.2,0.6c0,0.2,0.5,0.2,0.5,0s0-0.4,0.1-0.6C749.3,136.9,748.8,136.8,748.8,137
					L748.8,137z"/>
			</g>
		</g>
		<g>
			<g>
				<path class="st3" d="M753.1,139.6c0,0.4-0.4,0.8-0.5,1.2c0,0.2,0.5,0.2,0.5,0c0.2-0.4,0.4-0.8,0.5-1.2
					C753.7,139.4,753.2,139.4,753.1,139.6L753.1,139.6z"/>
			</g>
		</g>
		<g>
			<g>
				<path class="st3" d="M754.2,140.3c-0.1,0.3-0.2,0.6-0.4,0.9c-0.2,0.2,0.3,0.3,0.5,0.2c0.2-0.3,0.3-0.6,0.5-0.9
					C754.8,140.2,754.3,140.1,754.2,140.3L754.2,140.3z"/>
			</g>
		</g>
		<g>
			<g>
				<path class="st3" d="M755.5,140.8c-0.1,0.2-0.2,0.5-0.3,0.7s-0.2,0.4-0.3,0.7c0,0.1,0.2,0.1,0.3,0.1c0.5-0.3,0.5-0.9,0.7-1.4
					C756,140.7,755.5,140.6,755.5,140.8L755.5,140.8z"/>
			</g>
		</g>
		<g>
			<g>
				<path class="st3" d="M757.4,142c-0.3,0.7-0.8,1.2-1,2c0,0.2,0.5,0.2,0.5,0c0.1-0.7,0.6-1.2,0.8-1.9
					C757.9,141.9,757.5,141.8,757.4,142L757.4,142z"/>
			</g>
		</g>
		<g>
			<g>
				<path class="st3" d="M760.9,144.3c-0.3,0.4-0.5,0.9-0.8,1.4c-0.1,0.2,0.4,0.3,0.5,0.1c0.2-0.5,0.5-0.9,0.7-1.4
					C761.5,144.1,761,144.1,760.9,144.3L760.9,144.3z"/>
			</g>
		</g>
		<g>
			<g>
				<path class="st3" d="M761.8,145.7c-0.2,0.3-0.5,0.6-0.7,0.9c-0.1,0.2,0.4,0.2,0.5,0.1c0.2-0.3,0.3-0.6,0.6-0.9
					C762.4,145.7,761.9,145.6,761.8,145.7L761.8,145.7z"/>
			</g>
		</g>
		<g>
			<g>
				<path class="st3" d="M762.9,146.3c-0.2,0.3-0.4,0.5-0.7,0.7s0.2,0.3,0.4,0.2c0.3-0.2,0.5-0.5,0.8-0.8
					C763.5,146.3,763,146.2,762.9,146.3L762.9,146.3z"/>
			</g>
		</g>
		<g>
			<g>
				<path class="st3" d="M763.9,147.4c-0.1,0.2-0.2,0.4-0.3,0.6c-0.1,0.2,0.4,0.3,0.5,0.1s0.2-0.4,0.3-0.6
					C764.5,147.3,764,147.3,763.9,147.4L763.9,147.4z"/>
			</g>
		</g>
		<g>
			<g>
				<path class="st3" d="M767.7,149.1c0,0.2,0,0.5-0.1,0.7c-0.2,0.2,0.4,0.3,0.5,0.2c0.2-0.2,0.2-0.5,0.2-0.8
					C768.2,148.9,767.6,148.9,767.7,149.1L767.7,149.1z"/>
			</g>
		</g>
		<g>
			<g>
				<path class="st3" d="M769.5,149.7c-0.1,0.3-0.3,0.6-0.3,0.9c-0.1,0.2,0.5,0.3,0.5,0c0.1-0.3,0.3-0.6,0.3-0.9
					C770,149.6,769.6,149.6,769.5,149.7L769.5,149.7z"/>
			</g>
		</g>
		<g>
			<g>
				<path class="st3" d="M771,151.1c0.4,0,0.4-0.4,0-0.4S770.6,151.1,771,151.1L771,151.1z"/>
			</g>
		</g>
		<g>
			<g>
				<path class="st3" d="M771.1,141.8c0.5,0,0.9,0,1.4,0c0.2,0,0.2-0.2,0-0.2c-0.5,0-0.9,0-1.4,0
					C770.9,141.6,770.9,141.8,771.1,141.8L771.1,141.8z"/>
			</g>
		</g>
		<g>
			<g>
				<path class="st3" d="M772.3,142.6c0.7,0,1.3,0,2,0c0.3,0,0.3-0.3,0-0.3c-0.7,0-1.3,0-2,0C772.1,142.4,772.1,142.6,772.3,142.6
					L772.3,142.6z"/>
			</g>
		</g>
		<g>
			<g>
				<path class="st3" d="M773.6,143.5c0.4,0.1,0.9,0.4,1.4,0.3c0.2-0.1,0.2-0.2,0-0.3c-0.4-0.1-0.8-0.2-1.2-0.3
					C773.6,143.2,773.3,143.4,773.6,143.5L773.6,143.5z"/>
			</g>
		</g>
		<g>
			<g>
				<path class="st3" d="M775,144.3c0.3,0,0.6,0.2,0.9,0.1c0.1,0,0.2-0.1,0-0.2c-0.3-0.1-0.6-0.2-0.9-0.2
					C774.8,144,774.7,144.3,775,144.3L775,144.3z"/>
			</g>
		</g>
		<g>
			<g>
				<path class="st3" d="M775.2,146.1c0.3,0,0.3-0.3,0-0.3S774.9,146.1,775.2,146.1L775.2,146.1z"/>
			</g>
		</g>
		<g>
			<g>
				<path class="st3" d="M692.2,98c0.4,0.2,0.8,0.4,1.2,0.6c0.2,0.1,0.6-0.1,0.3-0.2c-0.4-0.2-0.8-0.4-1.2-0.6
					C692.4,97.8,692,97.9,692.2,98L692.2,98z"/>
			</g>
		</g>
		<g>
			<g>
				<path class="st3" d="M694.4,98.2c0.3,0.3,0.6,0.6,0.9,0.9c0.1,0.1,0.6,0.1,0.4-0.2c-0.3-0.3-0.6-0.6-0.9-0.9
					C694.7,97.9,694.3,98,694.4,98.2L694.4,98.2z"/>
			</g>
		</g>
		<g>
			<g>
				<path class="st3" d="M695.9,98.5c0.3,0.4,0.5,0.9,1.1,1c0.1,0,0.4-0.1,0.3-0.2c-0.3-0.3-0.6-0.6-0.9-0.9
					C696.3,98.2,695.7,98.3,695.9,98.5L695.9,98.5z"/>
			</g>
		</g>
		<g>
			<g>
				<path class="st3" d="M696.6,98.3c0.4,0.2,0.9,0.4,1.3,0.6c0.2,0.1,0.6-0.1,0.3-0.2c-0.5-0.2-0.9-0.4-1.4-0.6
					C696.7,98.1,696.4,98.2,696.6,98.3L696.6,98.3z"/>
			</g>
		</g>
		<g>
			<g>
				<path class="st3" d="M703.6,100.3c0.1,0.1,0.2,0.1,0.3,0.2s0.5-0.1,0.3-0.2c-0.1-0.1-0.2-0.1-0.3-0.2
					C703.7,100.1,703.4,100.2,703.6,100.3L703.6,100.3z"/>
			</g>
		</g>
		<g>
			<g>
				<path class="st3" d="M706.5,99.8c0.3,0.1,0.4,0.3,0.7,0.4c0.1,0,0.5,0,0.3-0.2c-0.3-0.2-0.5-0.4-0.9-0.5
					C706.4,99.4,706.2,99.7,706.5,99.8L706.5,99.8z"/>
			</g>
		</g>
		<g>
			<g>
				<path class="st3" d="M707.3,98.8c0.4,0.4,1,0.8,1.5,0.6c0.2-0.1,0.1-0.2,0-0.2c-0.4-0.1-0.7-0.3-1-0.6
					C707.6,98.5,707.1,98.6,707.3,98.8L707.3,98.8z"/>
			</g>
		</g>
		<g>
			<g>
				<path class="st3" d="M708.9,98.1c0.4,0.1,0.6,0.5,1,0.7c0.1,0.1,0.3,0.1,0.4,0c0,0,0.1-0.1,0.2-0.1c0.3-0.2-0.2-0.4-0.4-0.2
					c0,0-0.1,0.1-0.2,0.1c0.1,0,0.3,0,0.4,0c-0.4-0.2-0.7-0.6-1.1-0.7C708.9,97.7,708.5,98,708.9,98.1L708.9,98.1z"/>
			</g>
		</g>
		<g>
			<g>
				<path class="st3" d="M710.1,97.4c0.3,0.4,0.6,0.8,0.8,1.4c0,0.2,0.6,0.2,0.5,0c0-0.5-0.5-1-0.8-1.4
					C710.5,97.1,710,97.2,710.1,97.4L710.1,97.4z"/>
			</g>
		</g>
		<g>
			<g>
				<path class="st3" d="M754.4,121.5c0.1-0.2,0.3-0.4,0.5-0.5c0.3-0.2-0.2-0.3-0.4-0.2c-0.3,0.2-0.5,0.4-0.7,0.7
					C753.8,121.6,754.3,121.7,754.4,121.5L754.4,121.5z"/>
			</g>
		</g>
		<g>
			<g>
				<path class="st3" d="M754.7,121.8c0.3-0.1,0.5-0.2,0.7-0.4c0.2-0.2,0.5-0.3,0.5-0.6c0-0.2-0.3-0.1-0.4,0
					c-0.1,0.2-0.3,0.2-0.4,0.4c-0.2,0.2-0.3,0.4-0.5,0.5C754.3,121.7,754.5,121.9,754.7,121.8L754.7,121.8z"/>
			</g>
		</g>
		<g>
			<g>
				<path class="st3" d="M756.3,121.1c-0.1,0.3-0.2,0.5-0.3,0.8c-0.1,0.2,0.5,0.3,0.6,0.1c0.1-0.2,0.2-0.5,0.3-0.8
					C756.9,120.9,756.4,120.9,756.3,121.1L756.3,121.1z"/>
			</g>
		</g>
		<g>
			<g>
				<path class="st3" d="M758.2,121.4c0,0.1,0,0.2,0,0.3c0,0.2,0.5,0.2,0.5,0c0-0.1,0-0.2,0-0.3
					C758.6,121.2,758.2,121.2,758.2,121.4L758.2,121.4z"/>
			</g>
		</g>
	</g>
</g>
</svg>
