<?xml version="1.0" encoding="utf-8"?>
<!-- Generator: Adobe Illustrator 23.1.1, SVG Export Plug-In . SVG Version: 6.00 Build 0)  -->
<svg version="1.1" id="レイヤー_1" xmlns="http://www.w3.org/2000/svg" xmlns:xlink="http://www.w3.org/1999/xlink" x="0px"
	 y="0px" viewBox="0 0 841.9 595.3" style="enable-background:new 0 0 841.9 595.3;" xml:space="preserve">
<style type="text/css">
	.st0{fill:url(#SVGID_1_);stroke:#604D3F;stroke-linecap:round;stroke-linejoin:round;stroke-miterlimit:10;}
	.st1{fill:#807165;}
	.st2{fill:url(#SVGID_2_);stroke:#604D3F;stroke-width:0.7322;stroke-linecap:round;stroke-linejoin:round;stroke-miterlimit:10;}
	.st3{fill:none;stroke:#807165;stroke-width:0.5;stroke-linecap:round;stroke-linejoin:round;stroke-miterlimit:10;}
	.st4{fill:#604D3F;stroke:#604D3F;stroke-width:0.9525;stroke-linecap:round;stroke-linejoin:round;stroke-miterlimit:10;}
	.st5{fill:#B6716C;stroke:#604D3F;stroke-width:0.9525;stroke-linecap:round;stroke-linejoin:round;stroke-miterlimit:10;}
	.st6{fill:#6EA16C;stroke:#604D3F;stroke-linecap:round;stroke-linejoin:round;stroke-miterlimit:10;}
	.st7{fill:url(#SVGID_3_);stroke:#604D3F;stroke-linecap:round;stroke-linejoin:round;stroke-miterlimit:10;}
	.st8{fill:#604D3F;}
</style>
<g id="のせもの">
	<g>
		<g>
			
				<image style="overflow:visible;enable-background:new    ;" width="771" height="771" xlink:href="FD2CB96A2674031C.png"  transform="matrix(0.2381 0 0 0.2381 668.2657 409.3017)">
			</image>
		</g>
		
			<radialGradient id="SVGID_1_" cx="760.12" cy="100.5356" r="55.77" gradientTransform="matrix(1 0 0 -1 0 595.2756)" gradientUnits="userSpaceOnUse">
			<stop  offset="0" style="stop-color:#E3D3C0"/>
			<stop  offset="0.3383" style="stop-color:#E2D1BD"/>
			<stop  offset="0.5601" style="stop-color:#DECBB4"/>
			<stop  offset="0.7486" style="stop-color:#D7C0A5"/>
			<stop  offset="0.9174" style="stop-color:#CEB190"/>
			<stop  offset="1" style="stop-color:#C8A883"/>
		</radialGradient>
		<circle class="st0" cx="760.1" cy="494.7" r="55.8"/>
		<g>
			<g>
				<g>
					<path class="st1" d="M745.6,443.3c4.9,17.3,9.7,34.7,14.5,52c2.3,8.4,4.6,16.8,6.6,25.2c2.1,8.8,5.1,17.3,7.1,26.1
						c0,0.2,0.4,0.1,0.4,0c-3.8-16.8-8.9-33.3-13.3-49.9c-4.6-17.9-9.8-35.7-14.9-53.5C745.9,443.2,745.5,443.2,745.6,443.3
						L745.6,443.3z"/>
				</g>
			</g>
			<g>
				<g>
					<path class="st1" d="M736.8,446.6c7.9,16.4,15.9,32.9,23.6,49.4c3.8,8.2,7.3,16.5,11.2,24.6c3.6,7.7,7.6,15.1,10.8,22.9
						c0.1,0.1,0.5,0.1,0.4-0.1c-3.3-7.9-7.2-15.3-10.8-22.9c-3.8-8.1-7.4-16.5-11.2-24.6c-7.7-16.5-15.7-33-23.7-49.4
						C737.1,446.4,736.8,446.5,736.8,446.6L736.8,446.6z"/>
				</g>
			</g>
			<g>
				<g>
					<path class="st1" d="M728.8,451.3c10.8,15,21.7,30,32.2,45.2c9.8,14.1,20.3,27.9,29.5,42.4c0.1,0.1,0.5,0.1,0.4-0.1
						c-4.3-6.8-9-13.1-13.8-19.5c-2.7-3.6-4.8-7.7-7.4-11.4c-3-4.3-6.2-8.5-9.2-12.8c-10.5-14.7-20.9-29.4-31.5-44
						C729,451.1,728.7,451.2,728.8,451.3L728.8,451.3z"/>
				</g>
			</g>
			<g>
				<g>
					<path class="st1" d="M721.7,457.4c13.1,12.7,26.2,25.5,39.1,38.4c6.4,6.4,12.5,13,18.9,19.3c6,6,12.3,11.6,18,17.8
						c0.1,0.1,0.5,0,0.3-0.1c-5.8-6.3-12-11.9-18-17.8c-6.4-6.3-12.5-12.9-18.9-19.3c-12.9-12.9-26-25.6-39.1-38.4
						C721.9,457.2,721.5,457.3,721.7,457.4L721.7,457.4z"/>
				</g>
			</g>
			<g>
				<g>
					<path class="st1" d="M715.7,464.6c14.9,10.1,29.7,20.4,44.5,30.6c7.2,4.9,14.3,9.9,21.3,15.1c7.2,5.4,15,10,22.2,15.5
						c0.1,0.1,0.5,0,0.3-0.1c-13.7-10.5-28.2-19.7-42.3-29.7c-15-10.7-30.5-21-45.8-31.4C715.9,464.4,715.6,464.5,715.7,464.6
						L715.7,464.6z"/>
				</g>
			</g>
			<g>
				<g>
					<path class="st1" d="M711.2,472.8c16.8,7.6,33.8,15.1,50.5,23c15.5,7.4,31.5,14,46.8,21.9c0.1,0.1,0.5-0.1,0.3-0.2
						c-7.1-3.7-14.3-6.9-21.7-10c-4.2-1.8-8-4.2-12.1-6.1c-4.7-2.2-9.6-4.3-14.3-6.4c-16.4-7.5-32.8-15-49.2-22.4
						C711.2,472.5,711,472.7,711.2,472.8L711.2,472.8z"/>
				</g>
			</g>
			<g>
				<g>
					<path class="st1" d="M708,481.6c17.7,4.5,35.4,9,53,13.7c8.7,2.3,17.3,5,26.1,7.2c8.2,2.2,16.4,3.9,24.5,6.4
						c0.2,0,0.5-0.1,0.2-0.2c-8.1-2.5-16.3-4.3-24.5-6.4c-8.7-2.3-17.3-4.9-26.1-7.2c-17.6-4.7-35.4-9.2-53.1-13.7
						C708.1,481.4,707.8,481.5,708,481.6L708,481.6z"/>
				</g>
			</g>
			<g>
				<g>
					<path class="st1" d="M708.4,509.3c17.3-4.9,34.7-9.7,52.1-14.5c8.9-2.5,18-4.5,26.9-6.9c8.2-2.2,16.2-4.9,24.5-6.7
						c0.3-0.1,0.1-0.3-0.1-0.2c-16.8,3.8-33.3,8.9-50,13.3c-17.9,4.6-35.7,9.8-53.5,14.9C708,509.2,708.3,509.4,708.4,509.3
						L708.4,509.3z"/>
				</g>
			</g>
			<g>
				<g>
					<path class="st1" d="M711.7,518c16.4-7.9,32.9-15.9,49.5-23.6c8.2-3.8,16.5-7.4,24.6-11.2c7.7-3.6,15.1-7.6,22.9-10.9
						c0.2-0.1,0-0.3-0.2-0.2c-16.1,6.7-31.8,14.7-47.6,22c-16.5,7.7-33,15.7-49.4,23.6C711.3,518,711.6,518.1,711.7,518L711.7,518z"
						/>
				</g>
			</g>
			<g>
				<g>
					<path class="st1" d="M716.4,526.1c14.8-10.7,29.7-21.3,44.6-31.8c7.4-5.2,15-10.1,22.3-15.3c6.9-4.9,13.5-10.1,20.7-14.7
						c0.2-0.1-0.2-0.2-0.3-0.2c-7.2,4.6-13.8,9.8-20.7,14.7c-7.3,5.2-14.9,10.1-22.3,15.3c-14.9,10.5-29.8,21.2-44.6,31.9
						C716,526.1,716.3,526.2,716.4,526.1L716.4,526.1z"/>
				</g>
			</g>
			<g>
				<g>
					<path class="st1" d="M722.5,533.2c12.7-13.1,25.5-26.2,38.4-39.1c6.4-6.4,13-12.5,19.3-18.9c6-6,11.6-12.3,17.8-18
						c0.1-0.1-0.2-0.2-0.3-0.1c-6.3,5.8-11.9,12-17.8,18c-6.3,6.4-13,12.5-19.3,18.9c-12.9,12.9-25.6,26-38.3,39.1
						C722.1,533.2,722.4,533.3,722.5,533.2L722.5,533.2z"/>
				</g>
			</g>
			<g>
				<g>
					<path class="st1" d="M729.7,539.1c10.3-15.1,20.6-30.2,31-45.2c5.2-7.4,10.6-14.6,15.7-22c4.8-7,9.3-14.1,14.4-20.9
						c0.1-0.2-0.2-0.2-0.3-0.1c-10.6,13.9-20.2,28.6-30.2,42.9c-10.5,14.9-20.7,30.1-31,45.2C729.3,539.2,729.7,539.2,729.7,539.1
						L729.7,539.1z"/>
				</g>
			</g>
			<g>
				<g>
					<path class="st1" d="M737.9,543.7c7.5-16.6,15-33.3,22.7-49.9c3.8-8.2,7.9-16.2,11.7-24.4c3.5-7.7,6.7-15.5,10.6-23
						c0.1-0.1-0.3-0.2-0.4-0.1c-3.9,7.5-7,15.3-10.6,23c-3.8,8.2-7.9,16.2-11.7,24.4c-7.7,16.5-15.2,33.2-22.7,49.9
						C737.5,543.8,737.8,543.9,737.9,543.7L737.9,543.7z"/>
				</g>
			</g>
			<g>
				<g>
					<path class="st1" d="M746.7,546.9c4.5-17.7,9.1-35.4,13.7-53c2.3-8.7,5-17.4,7.2-26.1c2.2-8.2,3.9-16.4,6.4-24.5
						c0-0.2-0.3-0.2-0.4-0.1c-2.5,8.1-4.3,16.3-6.4,24.5c-2.3,8.7-4.9,17.4-7.2,26.1c-4.7,17.6-9.2,35.4-13.7,53
						C746.3,547,746.6,547,746.7,546.9L746.7,546.9z"/>
				</g>
			</g>
		</g>
		<g>
			<g>
				<g>
					<path class="st1" d="M750.7,446.3c3.2,16.8,6.3,33.6,9.3,50.5c2.8,15.6,6.1,31.3,8.2,47c0,0.3,0.8,0.3,0.8,0
						c-2.1-15.8-5.5-31.3-8.2-47c-2.9-16.8-6.2-33.7-9.4-50.5C751.3,446,750.6,446,750.7,446.3L750.7,446.3z"/>
				</g>
			</g>
			<g>
				<g>
					<path class="st1" d="M742.4,448.6c6,16,12.2,32,17.9,48.1c5.4,15,11.4,29.7,16.2,44.9c0.1,0.3,0.9,0.2,0.8-0.1
						c-4.8-15.1-10.8-29.9-16.2-44.9c-5.8-16.1-11.9-32.1-18-48C743,448.3,742.3,448.3,742.4,448.6L742.4,448.6z"/>
				</g>
			</g>
			<g>
				<g>
					<path class="st1" d="M734.6,452.3c8.6,14.5,17.2,29,25.6,43.5c8.1,14,16.7,27.8,24.2,42.1c0.1,0.3,0.9,0.2,0.8-0.1
						c-7.5-14.3-16.1-28.1-24.2-42.1c-8.4-14.5-17.1-29-25.7-43.5C735.1,452,734.4,452.1,734.6,452.3L734.6,452.3z"/>
				</g>
			</g>
			<g>
				<g>
					<path class="st1" d="M727.6,457.4c11,12.8,22,25.5,32.8,38.4c10.4,12.4,21.3,24.4,31.1,37.2c0.2,0.2,0.9,0.1,0.7-0.2
						c-9.8-12.8-20.7-24.9-31.1-37.2c-10.8-12.9-21.8-25.6-32.9-38.4C728,457,727.4,457.1,727.6,457.4L727.6,457.4z"/>
				</g>
			</g>
			<g>
				<g>
					<path class="st1" d="M721.5,463.5c13,10.6,26,21.4,38.9,32.1c6.5,5.4,12.7,10.9,19.1,16.3c6,5.1,12.2,9.7,18,15
						c0.2,0.2,1,0,0.7-0.2c-11.9-10.9-24.7-20.9-37.1-31.3c-12.9-10.8-26-21.5-39-32.1C721.9,463.2,721.3,463.3,721.5,463.5
						L721.5,463.5z"/>
				</g>
			</g>
			<g>
				<g>
					<path class="st1" d="M716.7,470.7c14.7,8.2,29.4,16.5,43.9,24.9c14,8.1,28.3,15.7,42,24.4c0.2,0.2,1-0.1,0.6-0.3
						c-13.6-8.7-28-16.3-42-24.4c-14.6-8.4-29.3-16.6-44-24.8C717,470.3,716.3,470.5,716.7,470.7L716.7,470.7z"/>
				</g>
			</g>
			<g>
				<g>
					<path class="st1" d="M713.2,478.6c15.9,5.5,31.8,11.1,47.6,16.9c15.2,5.5,30.6,10.5,45.6,16.7c0.3,0.1,0.9-0.2,0.4-0.4
						c-14.9-6.2-30.4-11.2-45.6-16.7c-15.8-5.7-31.7-11.3-47.6-16.8C713.2,478.1,712.8,478.4,713.2,478.6L713.2,478.6z"/>
				</g>
			</g>
			<g>
				<g>
					<path class="st1" d="M711.1,486.9c16.6,2.7,33.2,5.4,49.8,8.3c15.9,2.8,32,5.1,47.8,8.5c0.4,0.1,0.7-0.3,0.2-0.5
						c-15.8-3.5-31.9-5.8-47.8-8.5c-16.6-2.9-33.2-5.6-49.8-8.3C710.9,486.5,710.6,486.9,711.1,486.9L711.1,486.9z"/>
				</g>
			</g>
			<g>
				<g>
					<path class="st1" d="M711.4,504.1c16.8-3.2,33.6-6.4,50.5-9.3c15.7-2.7,31.3-6.1,47-8.2c0.5-0.1,0.2-0.5-0.2-0.5
						c-15.8,2.1-31.3,5.5-47,8.2c-16.8,2.9-33.7,6.2-50.4,9.4C710.8,503.8,711,504.2,711.4,504.1L711.4,504.1z"/>
				</g>
			</g>
			<g>
				<g>
					<path class="st1" d="M713.8,512.4c16-6,32-12.2,48.1-18c15-5.4,29.7-11.4,44.9-16.2c0.5-0.2-0.1-0.5-0.4-0.4
						c-15.1,4.8-29.9,10.8-44.9,16.2c-16.1,5.8-32.1,11.9-48,18C713,512.2,713.5,512.5,713.8,512.4L713.8,512.4z"/>
				</g>
			</g>
			<g>
				<g>
					<path class="st1" d="M717.5,520.2c14.5-8.6,29-17.2,43.5-25.6c14-8.1,27.8-16.7,42.1-24.2c0.4-0.2-0.3-0.5-0.6-0.3
						c-14.3,7.5-28.1,16.1-42.1,24.2c-14.5,8.4-29,17-43.4,25.7C716.7,520.1,717.3,520.3,717.5,520.2L717.5,520.2z"/>
				</g>
			</g>
			<g>
				<g>
					<path class="st1" d="M722.6,527.2c12.8-11,25.5-22,38.4-32.8c12.4-10.4,24.5-21.3,37.3-31.1c0.3-0.2-0.5-0.4-0.7-0.2
						c-12.8,9.9-24.9,20.7-37.2,31.1C747.5,505,734.7,516,722,527C721.8,527.2,722.4,527.3,722.6,527.2L722.6,527.2z"/>
				</g>
			</g>
			<g>
				<g>
					<path class="st1" d="M728.7,533.2c10.7-13,21.3-26.1,32.1-39c10.4-12.4,20.4-25.2,31.3-37.1c0.3-0.3-0.5-0.5-0.7-0.2
						c-10.9,11.9-20.9,24.7-31.3,37.1c-10.8,12.9-21.4,25.9-32,39C727.9,533.3,728.6,533.4,728.7,533.2L728.7,533.2z"/>
				</g>
			</g>
			<g>
				<g>
					<path class="st1" d="M735.9,538.1c8.2-14.7,16.5-29.4,24.9-43.9c8.1-14,15.7-28.4,24.4-42c0.2-0.3-0.6-0.4-0.8-0.1
						c-8.7,13.6-16.3,28-24.4,42c-8.4,14.6-16.6,29.3-24.8,44C735.1,538.2,735.8,538.3,735.9,538.1L735.9,538.1z"/>
				</g>
			</g>
			<g>
				<g>
					<path class="st1" d="M743.7,541.7c5.6-15.9,11.2-31.8,16.9-47.6c5.5-15.2,10.5-30.6,16.7-45.6c0.1-0.3-0.7-0.4-0.8-0.1
						c-6.2,14.9-11.2,30.4-16.7,45.6c-5.7,15.8-11.3,31.7-16.8,47.6C743,541.9,743.6,541.9,743.7,541.7L743.7,541.7z"/>
				</g>
			</g>
			<g>
				<g>
					<path class="st1" d="M752.1,543.8c2.7-16.6,5.5-33.2,8.4-49.8c2.8-15.9,5.1-32,8.5-47.8c0.1-0.3-0.7-0.3-0.8,0
						c-3.5,15.8-5.8,31.9-8.5,47.8c-2.9,16.5-5.6,33.2-8.2,49.8C751.4,544,752,544.1,752.1,543.8L752.1,543.8z"/>
				</g>
			</g>
		</g>
		
			<radialGradient id="SVGID_2_" cx="760.12" cy="100.5356" r="40.83" gradientTransform="matrix(1 0 0 -1 0 595.2756)" gradientUnits="userSpaceOnUse">
			<stop  offset="0" style="stop-color:#E3D3C0"/>
			<stop  offset="0.3383" style="stop-color:#E2D1BD"/>
			<stop  offset="0.5601" style="stop-color:#DECBB4"/>
			<stop  offset="0.7486" style="stop-color:#D7C0A5"/>
			<stop  offset="0.9174" style="stop-color:#CEB190"/>
			<stop  offset="1" style="stop-color:#C8A883"/>
		</radialGradient>
		<circle class="st2" cx="760.1" cy="494.7" r="40.8"/>
		<g>
			<path class="st3" d="M767.5,458.8c2.4,0.5,4.7,1.2,6.9,2.1c2.2,0.9,4.3,2.1,6.2,3.4c2,1.3,3.8,2.8,5.4,4.5s3.2,3.5,4.5,5.4
				c1.3,2,2.5,4,3.4,6.2c0.9,2.2,1.7,4.5,2.1,6.9"/>
			<path class="st3" d="M724.2,487.4c0.5-2.4,1.2-4.7,2.1-6.9s2.1-4.3,3.4-6.2s2.8-3.8,4.5-5.4s3.5-3.2,5.4-4.5s4-2.5,6.2-3.4
				c2.2-0.9,4.5-1.6,6.9-2.1"/>
			<path class="st3" d="M752.7,530.7c-2.4-0.5-4.7-1.2-6.9-2.1s-4.3-2.1-6.2-3.4c-2-1.3-3.8-2.8-5.4-4.5s-3.2-3.5-4.5-5.4
				s-2.5-4-3.4-6.2c-0.9-2.2-1.7-4.5-2.1-6.9"/>
			<path class="st3" d="M796.1,502.1c-0.5,2.4-1.2,4.7-2.1,6.9s-2.1,4.3-3.4,6.2c-1.3,2-2.8,3.8-4.5,5.4s-3.5,3.2-5.4,4.5
				s-4,2.5-6.2,3.4c-2.2,0.9-4.5,1.7-6.9,2.1"/>
		</g>
		<g>
			<polygon class="st4" points="760.1,494.7 772.3,489.7 784.6,470.3 784.6,470.3 			"/>
			<path class="st5" d="M760.1,494.7L760.1,494.7L760.1,494.7z"/>
			<polygon class="st5" points="760.1,494.7 799.2,494.7 772.3,489.7 772.3,489.7 			"/>
			<path class="st5" d="M760.1,494.7L760.1,494.7L760.1,494.7z"/>
			<polygon class="st4" points="760.1,494.7 772.3,499.8 799.2,494.7 			"/>
			<path class="st5" d="M760.1,494.7L760.1,494.7L760.1,494.7z"/>
			<path class="st5" d="M760.1,494.7L760.1,494.7L760.1,494.7z"/>
			<path class="st5" d="M760.1,494.7L760.1,494.7L760.1,494.7z"/>
			<path class="st5" d="M760.1,494.7L760.1,494.7L760.1,494.7z"/>
			<path class="st5" d="M760.1,494.7L760.1,494.7L760.1,494.7z"/>
			<path class="st5" d="M760.1,494.7L760.1,494.7L760.1,494.7z"/>
			<path class="st5" d="M760.1,494.7L760.1,494.7L760.1,494.7z"/>
			<path class="st5" d="M760.1,494.7L760.1,494.7L760.1,494.7z"/>
			<polygon class="st4" points="755.1,482.5 735.7,470.3 760.1,494.7 			"/>
			<polygon class="st4" points="755.1,507 755.1,507 760.1,533.9 760.1,494.7 			"/>
			<polygon class="st5" points="760.1,533.9 765.2,507 760.1,494.7 			"/>
			<polygon class="st5" points="760.1,494.7 735.7,519.2 735.7,519.2 755.1,507 			"/>
			<polygon class="st5" points="760.1,494.7 760.1,494.7 784.6,519.2 772.3,499.8 772.3,499.8 			"/>
			<polygon class="st4" points="760.1,494.7 765.2,507 765.2,507 784.6,519.2 			"/>
			<polygon class="st4" points="760.1,494.7 747.9,499.8 747.9,499.8 735.7,519.2 			"/>
			<polygon class="st5" points="760.1,494.7 721,494.7 747.9,499.8 			"/>
			<polygon class="st4" points="760.1,494.7 765.2,482.5 760.1,455.6 			"/>
			<polygon class="st5" points="760.1,494.7 760.1,455.6 755.1,482.5 755.1,482.5 			"/>
			<polygon class="st5" points="784.6,470.3 765.2,482.5 765.2,482.5 760.1,494.7 			"/>
			<polygon class="st5" points="760.1,494.7 735.7,470.3 747.9,489.7 			"/>
			<polygon class="st4" points="760.1,494.7 747.9,489.7 747.9,489.7 721,494.7 			"/>
		</g>
		<polygon class="st6" points="750.4,468.1 760.4,488.5 772.1,469 764.8,490.5 786.8,485 766.4,495 785.8,506.7 764.4,499.4 
			769.8,521.4 759.8,501 748.1,520.5 755.5,499 733.4,504.5 753.8,494.5 734.4,482.7 755.9,490.1 		"/>
		
			<radialGradient id="SVGID_3_" cx="759.93" cy="100.5056" r="14.87" gradientTransform="matrix(1 0 0 -1 0 595.2756)" gradientUnits="userSpaceOnUse">
			<stop  offset="0" style="stop-color:#E3D3C0"/>
			<stop  offset="0.3383" style="stop-color:#E2D1BD"/>
			<stop  offset="0.5601" style="stop-color:#DECBB4"/>
			<stop  offset="0.7486" style="stop-color:#D7C0A5"/>
			<stop  offset="0.9174" style="stop-color:#CEB190"/>
			<stop  offset="1" style="stop-color:#C8A883"/>
		</radialGradient>
		<circle class="st7" cx="759.9" cy="494.8" r="14.9"/>
		<g>
			<path class="st8" d="M765.6,442.8c0,0.1-0.1,0.2-0.3,0.3c-0.2,0.1-0.3,0.1-0.4,0.1c-0.4,0-1,0-1.8,0c-0.8,0-1.4-0.1-1.8-0.1
				c-0.6,0-0.9,0.2-0.9,0.7c0,0.2,0,0.4,0.1,0.4c0.1,0.1,0.3,0.1,0.5,0.1c0.5,0,0.9,0,1.3,0.1c0.7,0,1.3,0.1,1.6,0.3
				c0.5,0.2,0.8,0.5,0.8,0.8c0,0.7,0,1.2-0.1,1.5c-0.1,0.1-0.1,0.3-0.2,0.6c0.2,0.2,0.3,0.4,0.3,0.5c0,0.2,0,0.5,0,0.9
				c0,0.4,0,0.7,0,0.9c0,1.1-0.5,1.6-1.7,1.6c-0.1,0-0.2,0-0.3-0.2c-0.1-0.1-0.1-0.2-0.1-0.3c0-0.1,0.1-0.2,0.3-0.3
				c0.3-0.1,0.6-0.1,0.6-0.2c0.2-0.1,0.3-0.4,0.3-0.7c0-0.2,0-0.4,0-0.7c0-0.3,0-0.6,0-0.8s0-0.3,0.1-0.5c0.1-0.2,0.1-0.3,0.1-0.3
				c0,0,0-0.1-0.1-0.2c-0.1-0.1-0.1-0.2-0.1-0.3c0-0.3,0-0.6-0.1-0.9c0-0.3-0.1-0.6-0.2-0.7c-0.2-0.2-0.5-0.3-0.9-0.3
				c-0.3,0-0.6,0.1-0.8,0.4c-0.4,0.4-0.5,0.7-0.5,0.8c0,0.2,0.2,0.3,0.7,0.3c0.1,0,0.2,0,0.3,0c0.1,0,0.2,0,0.2,0
				c0.5,0,0.8,0.1,0.8,0.4c0,0.3-0.3,0.4-1,0.4c-0.1,0-0.3,0-0.5,0c-0.2,0-0.4,0-0.5,0c-0.3,0-0.5,0-0.6,0.1
				c-0.1,0.1-0.2,0.3-0.2,0.5c0,0.3,0.2,0.4,0.5,0.4c0.1,0,0.2,0,0.3,0c0.1,0,0.2,0,0.2,0c1.1,0,1.6,0.1,1.6,0.5
				c0,0.3-0.2,0.4-0.7,0.4c-0.1,0-0.3,0-0.6,0c-0.3,0-0.5,0-0.6,0c-0.4,0-0.6,0.2-0.6,0.5c0,0.1,0,0.1,0,0.3c0,0.1,0,0.2,0,0.3
				c0,0.4,0,0.6,0,0.7c0,0.3-0.2,0.4-0.4,0.4c-0.3,0-0.5-0.3-0.5-0.8c0-0.1,0-0.3,0-0.5c0-0.2,0-0.3,0-0.4c0-0.4-0.2-0.6-0.6-0.6
				c-0.1,0-0.2,0-0.3,0c-0.1,0-0.2,0-0.3,0c-0.1,0-0.2,0-0.3-0.1c-0.1-0.1-0.1-0.1-0.2-0.1c0,0-0.2,0-0.4,0.1
				c-0.2,0.1-0.4,0.1-0.5,0.1c-0.1,0-0.2,0-0.3-0.1s-0.1-0.2-0.1-0.3c0-0.1,0.1-0.2,0.2-0.3c0.1-0.1,0.3-0.1,0.4-0.1s0.3,0,0.4,0.1
				c0.1,0.1,0.2,0.1,0.2,0.1c0,0,0.1,0,0.2-0.1c0.1-0.1,0.1-0.1,0.1-0.1c0.2-0.1,0.5-0.1,0.9-0.1c0.3,0,0.4-0.2,0.4-0.5
				c0-0.3-0.1-0.5-0.4-0.5c-0.2,0-0.5-0.1-0.7-0.1c0,0-0.1,0-0.2-0.1s-0.1-0.1-0.1-0.1l-0.3,0.2c-0.2,0.1-0.4,0.2-0.7,0.2
				c-0.3,0-0.5-0.1-0.5-0.3c0-0.3,0.1-0.5,0.4-0.5c0,0,0.1,0,0.2,0c0.1,0,0.1,0,0.2,0c0.1,0,0.2,0,0.4,0.1c0.1,0.1,0.2,0.1,0.3,0.1
				c0.1,0,0.2,0,0.3-0.1c0.1-0.1,0.2-0.2,0.2-0.3c0-0.2-0.1-0.4-0.3-0.7c-0.2-0.3-0.4-0.4-0.5-0.5c-0.1,0-0.3,0-0.4,0
				c-0.5,0-0.8,0.1-1,0.4c-0.1,0.2-0.2,0.6-0.2,1.1c0,0.2,0,0.3-0.1,0.4c-0.1,0.1-0.1,0.1-0.1,0.1c0,0,0,0.1,0.1,0.2
				c0.1,0.1,0.1,0.2,0.1,0.3c0,0.2,0,0.5,0,0.9c0,0.5,0,0.8,0,0.8c0,0.1,0,0.4,0,0.7c0,0.3,0,0.5,0,0.6c0,0.6-0.2,0.9-0.5,0.9
				c-0.2,0-0.4-0.3-0.4-0.8c0-0.1,0-0.4,0-1.1c0-0.5,0-0.9,0-1.2c0-0.4,0-0.7,0.1-0.9c0,0,0.1-0.1,0.2-0.2c0.1-0.1,0.1-0.2,0.1-0.2
				s0-0.1-0.1-0.3c-0.1-0.1-0.1-0.2-0.1-0.2c0-0.7,0-1.2,0.2-1.4c0.2-0.4,0.6-0.7,1.4-0.8c0.6-0.1,1.2-0.1,1.8-0.2
				c0.6-0.1,0.9-0.3,0.9-0.7c0-0.1,0-0.2-0.1-0.2c-0.1-0.1-0.3-0.2-0.4-0.3c-0.1,0-0.2,0-0.5,0c-0.1,0-0.4,0-0.6,0
				c-0.3,0-0.5,0-0.6,0s-0.3,0-0.4-0.2c-0.1-0.1-0.2-0.1-0.3-0.1c0,0-0.1,0-0.2,0.1c-0.1,0.1-0.2,0.1-0.2,0.1c0,0-0.2,0.1-0.6,0.1
				c-0.4,0-0.6,0.1-0.7,0.1c-0.3,0-0.5-0.1-0.5-0.5c0-0.4,0.4-0.5,1.2-0.5c0.1,0,0.2,0,0.3,0c0.1,0,0.2,0,0.3,0c0.1,0,0.1,0,0.3,0.2
				c0.1,0.1,0.2,0.2,0.2,0.2c0.1,0,0.1,0,0.3-0.1c0.1-0.1,0.2-0.1,0.3-0.1c0.2,0,0.5,0,0.8,0c0.4,0,0.7,0,0.8,0
				c0.4,0,0.6-0.1,0.6-0.4c0-0.1,0-0.3-0.1-0.5c0-0.2-0.1-0.4-0.1-0.5c0-0.1,0-0.2,0.1-0.3s0.2-0.1,0.4-0.1c0.2,0,0.3,0,0.4,0.1
				c0.2,0.1,0.2,0.2,0.2,0.4c0,0,0,0.1-0.1,0.3c-0.1,0.2-0.1,0.4-0.1,0.5c0,0.2,0.1,0.4,0.4,0.4c0.1,0,0.3,0.1,0.7,0.1
				c0.2,0,0.6,0,1.1,0c0.5,0,0.9,0,1.1,0C765,442.4,765.6,442.5,765.6,442.8z M761.3,445.3c0-0.2-0.3-0.4-1-0.4c-0.3,0-0.6,0-0.7,0
				c-0.3,0.1-0.5,0.2-0.5,0.4c0,0.2,0.1,0.4,0.2,0.7c0.2,0.3,0.3,0.5,0.5,0.5c0.3,0,0.4,0,0.5-0.1c0.1,0,0.3-0.2,0.4-0.4
				c0.1-0.1,0.2-0.2,0.3-0.4C761.3,445.6,761.3,445.4,761.3,445.3z"/>
		</g>
		<g>
			<path class="st8" d="M759.4,538.2c0,0.2,0,0.3-0.1,0.5c-0.1,0.2-0.1,0.3-0.1,0.3c0.1,0.6,0.2,1.2,0.2,1.7c0,0.1,0,0.2,0,0.4
				c0,0.2,0,0.3,0,0.4c0,0.6,0,1-0.1,1.2s-0.1,0.3-0.1,0.5c0,0.1,0,0.3,0.1,0.5c0.1,0.2,0.1,0.4,0.1,0.6c0,0.3,0,0.8,0,1.5
				c0,0.7-0.1,1.2-0.1,1.5c0,0.1,0,0.2-0.1,0.3c-0.1,0.1-0.2,0.1-0.3,0.1c-0.2,0-0.3-0.1-0.3-0.4c0,0,0-0.2,0-0.6c0-0.3,0-0.5,0-0.6
				c0-0.3-0.1-0.4-0.3-0.4c-0.1,0-0.3,0.1-0.6,0.3c-0.3,0.2-0.5,0.2-0.8,0.2c0,0-0.1,0-0.2,0c-0.1,0-0.1,0-0.2,0
				c0,0-0.1,0.1-0.1,0.2c-0.1,0.1-0.1,0.2-0.2,0.3c-0.3,0.2-0.5,0.3-0.7,0.3c-0.3,0-0.4-0.2-0.4-0.5c0-0.2,0.1-0.3,0.3-0.4
				c0.2-0.1,0.3-0.2,0.5-0.2c0,0,0.1,0,0.2,0c0.1,0,0.2,0,0.2,0l0.1-0.1c0.2-0.3,0.5-0.5,0.8-0.6c0.5-0.1,0.8-0.2,0.9-0.3
				c0.3-0.2,0.4-0.7,0.5-1.3c0-0.2,0.1-0.4,0.1-0.5c0.1-0.1,0.1-0.1,0.1-0.1c-0.2-0.1-0.2-0.3-0.2-0.5c0,0,0-0.2,0-0.5
				c0-0.3-0.2-0.5-0.5-0.5c-0.1,0-0.2,0-0.4,0s-0.3,0-0.4,0c-0.2,0-0.3,0-0.5-0.1s-0.3-0.1-0.3-0.1c0,0-0.1,0-0.2,0.1
				c-0.1,0.1-0.2,0.1-0.2,0.1c-0.2,0.1-0.3,0.1-0.5,0.1c-0.5,0-0.7-0.2-0.7-0.5c0-0.1,0.1-0.2,0.3-0.3c0.2,0,0.3-0.1,0.5-0.1
				s0.3,0,0.4,0.1c0.1,0.1,0.2,0.1,0.2,0.1c0.1,0,0.2,0,0.3-0.1c0.1-0.1,0.2-0.1,0.2-0.1h0.5c0.6,0,0.9-0.1,1-0.4
				c0.1-0.2,0.1-0.5,0.1-1.2c0,0,0-0.1,0.1-0.2c0-0.1,0.1-0.2,0.1-0.2c0,0,0,0,0-0.1c-0.2-0.2-0.3-0.6-0.3-1.1
				c0-0.5,0.2-0.8,0.5-0.8c0.2,0,0.3,0.2,0.4,0.5C759.4,537.7,759.4,537.9,759.4,538.2z M765.5,546.3c0,0.6-0.3,1-0.8,1.2
				c-0.3,0.1-0.8,0.2-1.5,0.2c-0.8,0-1.3,0-1.5-0.2c-0.5-0.2-0.8-0.6-0.8-1.2c0-0.9,0.1-1.5,0.2-1.8c0-0.1,0-0.1-0.1-0.2
				c-0.1-0.1-0.2-0.2-0.2-0.2c0-0.2-0.1-1.7-0.1-4.4c0-0.1,0-0.2,0.1-0.3c0.1-0.1,0.1-0.1,0.1-0.2c0-0.1,0-0.3-0.1-0.6
				c-0.1-0.3-0.1-0.6-0.1-0.8c0-0.5,0.1-0.7,0.4-0.7c0.2,0,0.3,0.1,0.4,0.2c0.1,0.1,0.2,0.3,0.2,0.4c0,0.1,0,0.2-0.1,0.2
				c0,0.3,0,0.5,0,0.6c0,0.1,0,0.2-0.1,0.4s-0.1,0.2-0.1,0.3l0.2,0.2c0.1,0.1,0.2,0.2,0.2,0.4c0,0.1,0,0.2,0,0.3c0,0.1,0,0.2,0,0.3
				c0,0.2,0.1,0.3,0.3,0.3c0.3,0.1,0.5,0.2,0.6,0.3c0,0,0,0,0.1,0s0.1,0,0.3-0.1c0.2-0.1,0.3-0.1,0.3-0.1c0.4,0,0.8-0.1,1.3-0.1
				s0.7,0.1,0.7,0.4c0,0.3-0.5,0.4-1.3,0.4c-0.1,0-0.3,0-0.5,0s-0.3,0-0.3,0c-0.1,0-0.1,0-0.2-0.1c-0.1,0-0.2-0.1-0.2-0.1
				c-0.1,0-0.1,0-0.3,0.1c-0.2,0.1-0.2,0.1-0.3,0.1c-0.2,0.1-0.4,0.4-0.5,1c0,0.1,0,0.5,0,1.2c0,0.2,0,0.4-0.1,0.4s-0.1,0.1-0.1,0.2
				c0,0.1,0.1,0.2,0.2,0.3c0.1,0.1,0.2,0.2,0.2,0.3c0,0.1,0,0.2,0,0.4c0,0.2,0,0.3,0,0.4c0,0.7,0.5,1.1,1.4,1.1c0.4,0,0.8,0,1.2-0.1
				c0.2,0,0.3-0.2,0.5-0.5c0.2-0.3,0.3-0.5,0.5-0.5c0.1,0,0.2,0,0.3,0.2C765.5,546.1,765.5,546.2,765.5,546.3z"/>
		</g>
		<g>
			<path class="st8" d="M814.1,491.3c0,0.2-0.1,0.2-0.4,0.2c-0.4,0-0.7,0-0.7,0c-0.1,0-0.4,0-0.6,0c-0.3,0-0.5,0-0.6,0
				c-0.6,0-0.9,0-1.1,0.1c-0.5,0.1-0.7,0.3-0.7,0.7c0,0.3,0,0.5,0,0.9c0,0.2,0.1,0.3,0.1,0.4c0,0,0.2,0,0.3,0c0.1,0,0.2,0,0.3,0.1
				c0.1,0.1,0.2,0.1,0.2,0.1c0.1,0,0.1,0,0.2,0c0.1,0,0.2,0,0.2,0c0.4,0,0.7,0.1,1.1,0.2c0.4,0.2,0.7,0.4,0.7,0.7
				c0.1,0.2,0.1,0.8,0.1,1.6c0,0.2,0,0.5,0,0.9c0,0.4,0,0.6,0,0.8c0,0.1,0,0.3,0,0.5c0,0.2,0,0.4,0,0.5c0,1.2-0.7,1.8-2,1.8
				c-0.3,0-0.7,0-1.2,0c-0.5,0-0.9,0-1.2,0c-0.1,0-0.3,0-0.5,0c-0.2,0-0.4,0-0.5,0c-0.3,0-0.7,0-1.2,0c-0.5,0-1,0-1.2,0
				c-0.2,0-0.4-0.1-0.6-0.2c-0.2-0.1-0.4-0.3-0.5-0.4c-0.2-0.2-0.3-0.6-0.4-1.1c0-0.2,0-0.6,0-1.2c0-0.1,0-0.3,0-0.6
				c0-0.3,0-0.5,0-0.6c0-0.7,0.1-1.3,0.2-1.7c0.2-0.5,0.7-0.8,1.2-0.8c0,0,0.1,0,0.2,0.1c0.1,0,0.2,0,0.2,0s0.1,0,0.2-0.1
				c0.1-0.1,0.2-0.1,0.2-0.1c0.6-0.1,0.8-0.3,0.8-0.7v-1.1c0-0.2-0.1-0.4-0.3-0.4c-0.1,0-0.3,0-0.5,0c-0.1,0-0.3,0-0.5-0.1
				c-0.2-0.1-0.4-0.1-0.5-0.1c-0.1,0-0.2,0-0.3,0.2c-0.2,0.1-0.3,0.1-0.3,0.1c-0.3,0.1-0.7,0.1-1,0.1c-0.4,0-0.6-0.1-0.6-0.4
				c0-0.1,0.1-0.3,0.3-0.4c0.2-0.1,0.4-0.2,0.5-0.2c0.1,0,0.2,0,0.4,0c0.2,0,0.3,0,0.4,0s0.2,0,0.3,0.1c0.1,0,0.2,0.1,0.3,0.1
				c0.1,0,0.2,0,0.4-0.1c0.2-0.1,0.3-0.1,0.4-0.1c0.4-0.1,1.4-0.1,2.9-0.1c0,0,0.1,0,0.2,0c0.1,0,0.2,0,0.2,0c0.5,0,1.8,0,3.7,0
				C813.8,490.8,814.1,490.9,814.1,491.3z M807.4,495.8c-0.2-0.2-0.3-0.5-0.3-0.9c-0.2-0.4-0.5-0.6-1-0.6c0,0-0.1,0-0.2,0.1
				c0,0.1-0.1,0.1-0.1,0.1c-0.1,0-0.2,0.1-0.3,0.1c-0.2,0-0.3,0-0.3,0c-0.4,0.1-0.6,0.7-0.6,1.8c0,0.2,0,0.4,0.1,0.5
				c0.1,0.1,0.2,0.2,0.4,0.2c0.5,0,0.9-0.1,1.2-0.4C806.6,496.6,807,496.3,807.4,495.8z M812.5,498.5c0-0.2,0-0.4-0.1-0.5
				c-0.3-0.1-0.7-0.2-1.4-0.2c-0.7,0-1.1-0.1-1.3-0.2c-0.4-0.2-0.6-0.7-0.6-1.3c0-0.1,0-0.3,0.1-0.4c0.1-0.1,0.1-0.1,0.1-0.2
				c0-0.1,0-0.1-0.1-0.2c-0.1-0.1-0.1-0.1-0.1-0.1c0-0.1-0.1-0.2-0.1-0.3v0c0-0.1,0-0.1,0-0.2c-0.1-0.2-0.2-0.3-0.2-0.3
				c-0.1-0.1-0.2-0.1-0.4-0.1c-0.3,0-0.5,0.1-0.5,0.4c0,0.3-0.1,0.5-0.1,0.8c0,0.1-0.1,0.2-0.2,0.3c0,0,0,0,0.1,0.2
				c0.1,0.1,0.1,0.2,0.1,0.4c0,0.1-0.1,0.3-0.2,0.5c-0.2,0.2-0.3,0.3-0.4,0.4c-0.4,0.2-0.9,0.4-1.4,0.6c-0.7,0.2-1,0.4-1,0.6
				c0,0.3,0,0.5,0,0.6c0,0.2,0.2,0.4,0.3,0.5c0.3,0.2,1.9,0.4,4.8,0.4c0.2,0,0.4,0,0.7,0c0.3,0,0.6-0.1,0.7-0.1
				C812.1,499.7,812.5,499.3,812.5,498.5z M809.2,492.3c0-0.3-0.1-0.5-0.2-0.6c-0.2-0.2-0.4-0.2-0.7-0.2c-0.3,0-0.4,0.3-0.5,0.9
				c0,0.3,0,0.7,0,1c0,0.2,0.2,0.4,0.7,0.4c0.3,0,0.5-0.2,0.6-0.5C809.2,493,809.2,492.7,809.2,492.3z M812.5,496.2l0-1
				c0-0.3-0.2-0.5-0.4-0.7c-0.2-0.1-0.5-0.2-0.8-0.2c0,0-0.1-0.1-0.2-0.1c-0.1-0.1-0.1-0.1-0.2-0.1c0,0-0.1,0-0.1,0.1
				c0,0.1-0.1,0.1-0.1,0.1c-0.2,0-0.5,0.1-0.8,0.1c-0.1,0-0.1,0.4-0.1,0.9c0,0.1-0.1,0.2-0.3,0.3c0.2,0.2,0.3,0.4,0.3,0.5
				c0,0.2,0.1,0.3,0.1,0.4c0.2,0.3,0.5,0.4,0.9,0.5c0.1,0,0.5,0,1,0c0.3,0,0.5-0.1,0.5-0.2C812.5,496.7,812.5,496.5,812.5,496.2z"/>
		</g>
		<g>
			<path class="st8" d="M717.8,499.5c0,0.1,0,0.3-0.1,0.4c-0.1,0.1-0.2,0.1-0.3,0.1c-0.6,0-1.1-0.2-1.6-0.5c0,0-0.1-0.1-0.1-0.2
				c0-0.1-0.1-0.1-0.2-0.2c0,0-0.1,0-0.2,0h-0.1c-0.1,0-0.2,0-0.2,0c-0.2-0.1-0.6-0.3-1.1-0.7c-0.1,0-0.2-0.2-0.6-0.5
				c-0.3-0.3-0.5-0.4-0.5-0.4c-0.1,0-0.1,0-0.1,0.1c0-0.2,0-0.1,0,0.2c0,0.2,0,0.4,0,0.6c0,0.2-0.1,0.3-0.1,0.4
				c-0.1,0.1-0.1,0.1-0.1,0.1c0,0,0,0.1,0.1,0.3c0.1,0.1,0.1,0.2,0.1,0.3c0.1,0.3,0.1,0.6,0.1,1c0,0.2,0,0.3-0.1,0.5
				c-0.1,0.2-0.2,0.3-0.4,0.3c-0.3,0-0.5-0.2-0.5-0.6c0-0.2,0-0.6,0.1-1.3c0,0,0-0.1,0.1-0.2c0.1-0.1,0.1-0.1,0.1-0.2s0-0.1-0.1-0.2
				c-0.1-0.1-0.1-0.3-0.1-0.4c0-0.1,0-0.2,0-0.3c0-0.1,0-0.2,0-0.3c0-0.1,0-0.2-0.1-0.2c-0.1,0-0.4,0.2-0.9,0.5
				c-0.5,0.4-0.8,0.5-0.9,0.5c-0.1,0-0.2,0-0.2-0.1c0,0-0.1,0-0.1,0.2c0,0.1-0.1,0.2-0.1,0.2c-0.2,0.2-0.5,0.5-1.2,0.8
				c-0.6,0.3-1,0.5-1.2,0.5c-0.1,0-0.2,0-0.3-0.1c-0.1-0.1-0.1-0.2-0.1-0.3v0c0-0.1,0.1-0.3,0.4-0.4c0.1,0,0.4-0.2,1-0.4
				c0.4-0.2,0.7-0.3,1-0.5c0.2-0.1,0.3-0.2,0.5-0.2c0.1,0,0.1,0,0.1-0.1l0.1-0.2c0.3-0.2,0.8-0.5,1.2-0.9c0,0,0,0,0-0.1
				c0-0.1-0.2-0.2-0.7-0.2c-0.1,0-0.3,0-0.6,0c-0.2,0-0.4,0-0.6,0c-0.5,0-0.8-0.1-1-0.4c-0.1-0.2-0.1-0.5-0.1-1.1c0-0.1,0-0.2,0-0.4
				c0-0.2,0-0.3,0-0.4c0-1,0.4-1.4,1.1-1.4c0,0,0.1,0,0.2,0s0.2,0,0.2,0c0.1,0,0.2,0,0.3,0.1l0.1,0.1c0.3-0.2,0.6-0.3,0.8-0.4
				c0.2,0,0.5,0,0.7-0.1c0.3,0,0.4-0.2,0.4-0.4c0-0.2-0.2-0.3-0.5-0.3c-0.1,0-0.2,0-0.3,0c-0.1,0-0.2,0-0.2,0c-0.1,0-0.2,0-0.3,0
				c-0.1,0-0.2,0-0.2,0c-0.1,0-0.2,0-0.3,0c-0.1,0-0.2,0-0.3,0c-0.1,0-0.2,0-0.4-0.1c-0.2,0-0.3-0.1-0.3-0.1c-0.1,0-0.2,0-0.3,0.1
				c-0.1,0.1-0.2,0.1-0.3,0.1c0.1,0-0.1,0-0.6,0c-0.5,0-0.7-0.1-0.7-0.4c0-0.3,0.2-0.4,0.7-0.4c0,0,0.1,0,0.2,0c0.1,0,0.2,0,0.2,0
				c0.2,0,0.3,0,0.5,0.1c0.1,0.1,0.2,0.1,0.2,0.1c0.1,0,0.2-0.1,0.5-0.2c0.1,0,0.7,0,1.7,0c0.5,0,0.7-0.2,0.7-0.5
				c0-0.2,0-0.4-0.1-0.4c0-0.1,0-0.2,0.1-0.4c0.1-0.1,0.2-0.2,0.3-0.2c0.3,0,0.5,0.1,0.5,0.4c0,0,0,0.1,0,0.3c0,0.2,0,0.3,0,0.4
				c0,0.3,0.2,0.5,0.6,0.5c0.1,0,0.2,0,0.3,0c0.1,0,0.2,0,0.3,0c0.3,0,0.6,0.1,0.8,0.2c0.2-0.1,0.5-0.2,1-0.3c0.2,0,0.5,0,1.1,0
				c0.6,0,0.9,0.2,0.9,0.5c0,0.2-0.1,0.3-0.3,0.3c0,0-0.2,0-0.5,0c-0.4,0-1,0-1.6-0.1c-0.1,0-0.2,0-0.3-0.1
				c-0.1-0.1-0.2-0.1-0.3-0.1c-0.1,0.2-0.3,0.3-0.7,0.3c-0.1,0-0.2,0-0.3,0c-0.1,0-0.2,0-0.3,0c-0.1,0-0.2,0-0.3,0.1
				c-0.2,0.1-0.3,0.1-0.3,0.1c-0.1,0-0.1,0.1-0.1,0.2c0,0,0,0.1,0,0.2c0,0.2,0.3,0.2,0.8,0.2c0.2,0,0.3,0,0.6,0c0.2,0,0.4,0,0.4,0
				c0.5,0,0.9,0.1,1.3,0.2c0.5,0.2,0.8,0.5,0.8,1c0,0.2,0,0.4,0,0.7c0,0.4,0,0.6,0,0.7c0,0.5-0.1,0.8-0.2,0.9
				c-0.2,0.2-0.5,0.3-0.9,0.3c-0.1,0-0.2,0-0.3,0c-0.1,0-0.2,0-0.3,0c-0.1,0-0.2,0-0.4-0.1c-0.1-0.1-0.2-0.1-0.2-0.1
				c0,0-0.1,0-0.3,0.1c-0.2,0-0.2,0.1-0.3,0.1c-0.2,0-0.3,0.1-0.3,0.1c0,0.1,0.3,0.4,1,0.9c0.7,0.5,1.1,0.8,1.2,0.9
				c0.1,0.1,0.1,0.1,0.1,0.2c0,0,0.1,0.1,0.2,0.1h0.2c0.3,0,0.6,0.1,1,0.2C717.5,499.2,717.8,499.3,717.8,499.5z M711.8,495.6
				c0-0.3-0.7-0.5-2-0.5c-0.2,0-0.4,0-0.7,0.1c-0.3,0.1-0.4,0.2-0.4,0.4c0,0.3,0.3,0.5,1,0.5c0.1,0,0.2,0,0.4,0c0.2,0,0.3,0,0.3,0
				c0.1,0,0.2,0,0.3,0c0.2,0,0.3,0,0.3,0C711.6,496.1,711.8,495.9,711.8,495.6z M711.8,494.1c0-0.1-0.1-0.2-0.2-0.3
				c-0.1-0.1-0.2-0.2-0.3-0.2c-0.3,0-0.7-0.1-1.3-0.2c0,0.1-0.1,0.2-0.2,0.3c-0.2,0-0.4,0.1-0.6,0.1c-0.2,0.1-0.4,0.2-0.4,0.4
				c0,0.1,0.1,0.2,0.4,0.2c0.2,0,0.4,0.1,0.5,0.1c0,0,0.1,0,0.2,0c0.2,0,0.3,0,0.5,0C711.3,494.5,711.8,494.4,711.8,494.1z
				 M715.6,494.2c0-0.4-0.4-0.5-1.2-0.6l-1.5,0c-0.1,0-0.2,0.1-0.4,0.2c-0.1,0.1-0.2,0.2-0.2,0.4c0,0.1,0.2,0.2,0.5,0.3
				c0.2,0.1,0.5,0.1,0.7,0.1c0.9,0,1.4,0,1.5,0C715.5,494.5,715.6,494.4,715.6,494.2z M715.6,495.6c0-0.3-0.3-0.4-1-0.4H713
				c-0.1,0-0.2,0.1-0.3,0.2c-0.1,0.1-0.2,0.2-0.2,0.3c0,0.4,0.2,0.6,0.5,0.6c0.1,0,0.2,0,0.2,0c0.1,0,0.2,0,0.3,0
				c0.1,0,0.2,0,0.3,0.1c0.1,0.1,0.2,0.1,0.3,0.1c0.1,0,0.2,0,0.2-0.1c0.1,0,0.3-0.1,0.5-0.1c0.3,0,0.5-0.1,0.6-0.1
				C715.5,496,715.6,495.8,715.6,495.6z"/>
		</g>
	</g>
</g>
</svg>
