<?xml version="1.0" encoding="utf-8"?>
<!-- Generator: Adobe Illustrator 23.1.1, SVG Export Plug-In . SVG Version: 6.00 Build 0)  -->
<svg version="1.1" id="レイヤー_1" xmlns="http://www.w3.org/2000/svg" xmlns:xlink="http://www.w3.org/1999/xlink" x="0px"
	 y="0px" viewBox="0 0 841.9 595.3" style="enable-background:new 0 0 841.9 595.3;" xml:space="preserve">
<style type="text/css">
	.st0{opacity:0.6;}
	.st1{fill:#DFDBD9;}
	.st2{fill:#994D3F;}
</style>
<g id="のせもの">
	<g class="st0">
		
			<image style="overflow:visible;enable-background:new    ;" width="2342" height="533" xlink:href="34029131683052D0.png"  transform="matrix(0.2395 0 0 0.2395 9.2693 1.9895)">
		</image>
	</g>
	<g>
		<path class="st1" d="M92.4,46.8c-2.3-0.9-3.9-1.3-5.1-1.3c-0.3,0-0.7,0-3.5,0.4c0-1.7-0.7-3.5-2-6c-0.1-0.1-0.1-0.2-0.2-0.3
			c-0.1-0.1-0.4-0.6-0.8-2.3c0-0.1,0-0.2-0.1-0.2c-0.3-1.1-1.2-3.9-3.9-3.9c-1.7,0-2.9,1.3-4,2.8c-0.1,0.1-0.2,0.3-0.3,0.4
			c-1.1,2.2-1.7,5-1.7,8.2c0,1.4,0.7,2.4,1.5,3.1c-2.1,0.3-3.7,0.5-4.9,0.6c-0.3-0.1-0.7-0.2-1.2-0.3c-3-0.7-3.7-0.8-4.1-0.8
			c-0.2,0-0.3,0-0.5,0c-2.6,0.5-3.6,2.4-3.6,4c0,0.9,0.3,1.9,0.9,3.1c0.3,0.7,0.5,1.3,0.6,1.9c0,3.4-0.7,7.2-2,11.2
			c-1.3,4.1-3.7,7.9-7.3,11.6c-3.5,3.2-4.7,4.9-4.7,6.6c0,0.5,0.2,2.8,3.4,3.1c0.1,0,0.2,0,0.2,0c2.9,0,5.6-0.9,8.1-2.6
			c2.6-1.3,4.9-2.9,6.7-4.8c0.6-0.7,0.9-1.6,0.8-2.5l-0.3-1.5c1.3-2.9,2.4-5.6,3.2-8.1c2.7-0.6,5-0.9,7-1.1c2.2-0.2,4.9-0.6,7.9-1.3
			c1.1,0.4,2.2,0.4,2.7,0.4c2.3,0,5.5-0.3,6.8-2.8c0.1-0.1,0.1-0.2,0.2-0.3c1.6-4.4,2.8-7.5,3.6-9.3c0.8-1.1,1.1-2,1.1-3
			C96.8,49.8,95.3,48.1,92.4,46.8z M70.1,58.2c0.8-0.3,1.7-0.6,2.7-1c2.8-0.8,5.8-1.4,8.8-2c-0.1,0.5-0.2,1.2-0.4,2.2
			c-4.7,0.8-8.4,1.3-11.3,1.8C70,58.9,70,58.5,70.1,58.2z"/>
		<path class="st1" d="M158.2,60.9c0-1.4-0.9-2.6-2.5-4.2c-0.1-0.1-0.2-0.2-0.2-0.2c-1.1-0.8-3.3-2.2-10.3-4.7
			c-2-0.8-3.7-1.8-5.2-3.3c0,0-0.1-0.1-0.1-0.1c-1.7-1.5-3.9-3.4-6.6-5.6c-0.4-0.3-0.7-0.5-1-0.8c0.5-0.7,0.9-1.5,0.9-2.5
			c0-1.7-1.3-2.6-2.6-3.5c-0.1-0.1-0.2-0.1-0.3-0.2c-1.9-1-2.7-1.3-3.6-1.3c-1.9,0-3.4,1-4,2.6c-2.3,4.1-5.5,8.3-9.6,12.6
			c0,0-0.1,0.1-0.1,0.1c-3.5,4.2-7.6,7.6-12.2,10.1c-0.9,0.5-1.5,1.5-1.5,2.5c0,0.6,0.2,3.3,4.3,3.3c3.7,0,7-0.8,9.7-2.3
			c0.1,0,0.1,0,0.1-0.1c-0.4,2.1-0.8,3.8-1.3,5.3c-1.1,3.1-3.8,6.1-8,8.8c-0.2,0.2-0.4,0.3-0.6,0.6c-0.9,1.1-1.3,2.1-1.3,3.2
			c0,1.6,1.2,3.3,3.6,3.3c1.8,0,3.6-0.2,5.2-0.7c0.1,0,0.2-0.1,0.2-0.1c1.6-0.6,3.2-1.7,4.8-3.3c0,0,0,0.1,0.1,0.1
			c1.5,3,3.5,6.2,6.4,6.4c0.1,0,0.1,0,0.2,0c0.7,0,1.5-0.2,2.4-0.7c0,0,0,0,0,0c0.3-0.1,1.5-0.4,6.3-1.2c0.9,0.4,1.7,0.5,2.6,0.5
			c0.2,0,0.5,0,0.7-0.1c1.9-0.5,2.9-2.4,3.2-3.1c2-3.9,2.8-4.9,3-5.1c0.7-0.5,2-1.4,2-3.2c0-2.5-2.2-4-3.1-4.5c-1-0.6-2-1.1-2.9-1.4
			c0.2-0.3,0.3-0.6,0.4-1c0,0,0-0.1,0-0.1c0.6-2.3,1-3.9,1.3-5c0.8,0.7,1.8,1,2.8,1.1c2.9,0.2,5.1,0.5,6.5,0.9
			c0.1,0,0.2,0.1,0.3,0.1c1.6,0.2,2.8,0.4,3.8,0.4C156.2,64.6,158.2,63.4,158.2,60.9z M126.8,37.5L126.8,37.5L126.8,37.5L126.8,37.5
			z"/>
		<path class="st1" d="M200.4,61.1c0,0-0.1,0-0.1,0c-2-0.7-4.5-1.2-7.6-1.6c0.5-0.5,0.8-0.8,1-0.9c2.5-1.3,2.9-3.1,2.9-4.2
			c0-1.3-0.6-3.2-3.5-4.5c-0.1,0-0.2-0.1-0.3-0.1c-0.2-0.1-0.6-0.2-1-0.3c0.6-0.9,0.7-1.8,0.7-2.2c0-1.7-1.1-3.1-1.9-4.1
			c-0.2-0.3-0.6-0.6-3.2-2.8c0,0-0.1,0-0.1-0.1c-1.6-1.2-1.9-1.8-1.9-1.8c-1.2-3-3.2-3.5-4.3-3.5c-2,0-3.6,1.4-4.9,4.1
			c0,0,0,0.1,0,0.1c-0.7,1.8-1.1,3.2-1.1,4.5c0,2.6,1.5,4.7,4.3,5.8c-2.6,0.4-5.2,0.6-7.8,0.6c-0.3,0-0.5,0-0.7,0
			c-0.4-0.1-0.8-0.1-1.2-0.1c0,0-0.1,0-0.1,0c-0.8,0.1-1.4,0.5-1.9,1c-0.6,0.6-1,1.3-1.2,1.6c-0.7,1.3-1,3-0.9,5
			c0.1,2.5,1.8,4.2,4.2,4.2c0.6,0,1.2-0.1,1.9-0.3c0.1,0,0.1,0,0.2-0.1c3-1.1,5.2-1.8,6.9-2.3c-0.5,0.5-1.1,1-1.7,1.6
			c-2.1,1.8-4.2,3.3-6.2,4.5c0,0-0.1,0.1-0.1,0.1c-0.3,0.2-1.5,0.7-6.4,2.8c-5.5,2.5-7.1,3.3-7.1,5.6c0,0.5,0.2,2.4,2.5,3.2
			c0,0,0.1,0,0.1,0c1.3,0.4,2.8,0.6,4.5,0.6c1.5,0,3-0.2,4.3-0.5c2.1-0.4,3.6-0.8,4.8-1c1-0.2,1.6-0.4,2-0.7
			c0.5-0.3,0.9-0.7,1.2-1.2l0.6-1.2c0.1-0.1,0.3-0.3,0.6-0.6c0,1.2,0,2.6,0,4.3c0,2.8,0,3.9-0.1,4.3c-0.5,1.4-0.5,2.6,0.1,3.6
			c0.6,1,1.7,1.6,2.9,1.7c1.6,0.2,2.9,0.3,3.8,0.4c0.2,0,0.3,0,0.5,0c1.1,0,2.1-0.4,2.8-1.3c1-1.2,0.8-2.8,0.7-3.2
			c-0.1-0.6-0.2-2.3-0.1-7.1c0.1-4.6,0.3-6.7,0.4-7.6c0.1-0.5,0.1-1,0.1-1.4c5,4.1,7,6.3,7.8,7.3c1.3,1.9,2.9,2.2,3.8,2.2
			c3,0,4.6-2.6,4.9-7.8c0.1-0.8,0.2-3.2-1.5-4.8C203.5,62.5,202.7,62,200.4,61.1z"/>
		<path class="st1" d="M242.9,40.6c-1.1-0.6-2.2-1.1-3.2-1.4c-1-0.3-1.8-0.5-2.5-0.5c-1.1,0-3.7,0.4-4.5,4.5c0,0,0,0.1,0,0.2
			c0,0.1-0.2,1.2-2.8,4.6c-2,2.8-4.2,5.2-6.6,7.1c-2.1,1.8-4.6,3.6-7.3,5.5l-5.8,3.9c-0.8,0.5-2.6,1.7-2.6,3.8
			c0,1.2,0.8,3.3,3.9,3.3c0.4,0,0.8,0,1.4-0.1c2.3-0.3,5.1-0.9,8.7-1.8c3-0.8,5-2.2,6.1-4.1c0.1,2.1,0,5.4-0.2,10.7
			c0,1.4-0.1,2.1-0.1,2.4c-0.4,0.6-0.6,1.3-0.6,2.1c0,1,0.4,2.8,2.9,3.8c1.7,0.7,3.3,1.1,4.9,1.1c2.6,0,3.6-1.6,3.9-2.3
			c0.2-0.4,0.2-0.8,0.2-1.2c0-0.1,0-0.7-0.1-1.7c0,0,0-0.1,0-0.1c-0.1-1.4-0.2-3.1-0.2-4.9c0-8.2,0.3-12,0.6-13.7
			c0.2-0.6,0.3-1.1,0.3-1.7c0-1.8-0.9-3.4-2.4-4.3c0,0-0.1,0-0.1-0.1c4.4-4.9,6-6.2,6.5-6.5c1.1-0.6,3.1-1.8,3.1-4
			C246.4,42.6,243.9,41.2,242.9,40.6z"/>
		<path class="st1" d="M298.2,58.8c-0.6-1.4-1.8-3.2-3.7-5.4c-0.9-1.2-2-1.7-3.2-1.7c-0.4,0-0.8,0.1-2.2,0.4c0,0-0.1,0-0.1,0
			c-1,0.3-2.9,0.7-6.6,0.9c0.1-0.6,0.3-1.2,0.5-1.7c0-0.1,0.1-0.2,0.1-0.3c0.1-0.5,0.2-1.1,0.2-1.5c0-0.1,0-0.1,0-0.2
			c1.3-0.2,2.8-0.2,4.2-0.2c2.1,0,3.7-1.5,3.7-3.6c0-0.8-0.2-1.5-0.6-2.3c-0.1-0.1-0.1-0.2-0.2-0.3c-1.1-1.5-2-2.6-2.8-3.3
			c-1-0.9-2.1-1.4-3.2-1.4c-0.5,0-0.8,0.1-2.4,0.6c-3.9,1.2-7.9,2.7-12.1,4.3c-5.2,2.1-8.9,4-11.3,5.7c-0.1,0.1-0.3,0.2-0.4,0.4
			c-0.8,0.8-1.1,1.7-1.1,2.6c0,1.6,1.2,3.3,3.4,3.3c0.8,0.1,1.8,0,3.2,0c-1.1,0.2-2.1,0.3-3.2,0.5c-4,0.7-4.8,0.8-4.9,0.8
			c-4.2,0-4.4,2.8-4.4,3.4c0,1,0.4,1.7,0.8,2.3c1,1.6,1.8,2.7,2.6,3.3c0,0,0.1,0.1,0.1,0.1c0.7,0.6,1.8,1.4,3.1,1.4
			c0.6,0,1-0.1,2.5-0.7c2.1-0.8,5.3-1.5,9.6-1.9c-1.1,3.8-2.1,5.6-2.8,6.4c-0.5,0.6-2.1,2.4-7.6,7.4c-1.2,1-1.4,2.2-1.4,2.8
			c0,1.1,0.5,2.1,1.3,2.7c0.5,0.4,1.2,0.8,2.2,0.8c0.3,0,0.6,0,1-0.1c5.8-1.2,10.1-3,13.2-5.5c1.6-1.2,2.4-2.6,2.4-4.2
			c0-0.3,0-0.6-0.1-1c0-0.1,0-0.2-0.1-0.3c0-0.1,0-0.2,0.1-0.4c1-3.9,1.9-7.1,2.6-9.6c3.5-0.2,5.8-0.3,6.8-0.3
			c0.5,0,1.5,0.1,3.1,0.7c0,0,0.1,0,0.2,0c2.4,0.7,3.3,0.9,4,0.9c2.4,0,4-1.6,4-3.8c0-0.6-0.1-1.2-0.4-1.8
			C298.2,58.9,298.2,58.9,298.2,58.8z M271.3,54C271.3,54,271.3,54.1,271.3,54c-0.1,0.1-0.2,0.1-0.2,0.1
			C271.1,54.1,271.2,54.1,271.3,54z"/>
		<path class="st1" d="M338,56.8c-1.8-1.4-4.1-2.1-6.8-2.1c-1.2,0-3.4,0.2-9,1.6c-0.2-1.2-0.2-1.8-0.2-2.1c0,0,0-0.1,0.1-0.4
			c0-0.1,0.1-0.2,0.1-0.3c0.2-0.7,0.3-1.3,0.3-1.8c0-0.4-0.1-3.8-4.6-3.9c-1.1,0-2.5,0.1-4.1,0.5c-3.4,0.7-3.7,2.8-3.7,3.7
			c0,0.6,0.1,1.2,0.6,2.5c0.5,1.6,1,3.1,1.4,4.6c-0.4,0.1-0.9,0.2-1.4,0.3c-1.6,0.3-2.5,0.4-2.8,0.5c-0.7-0.2-1.2-0.3-1.7-0.3
			c-1.5,0-3.4,1-3.9,3.8c0,0,0,0.1,0,0.1c-0.2,1.2-0.1,2.5,0.1,3.8c0.7,3.6,3.1,3.8,3.9,3.8c0.5,0,1.2-0.1,2-0.3
			c2.1-0.4,4.3-1.1,6.5-1.9c1.5,5.6,2.4,9.8,2.7,12.7c0,0.4,0.1,0.7,0.1,0.8c0,0.5,0.2,1,0.5,1.4c1,1.6,2.9,1.6,3.6,1.6
			c1.2,0,2.4-0.2,3.7-0.6c2.2-0.6,3-2.2,3-3.6c0-0.7-0.2-1.5-0.6-2.4c-0.6-1.7-1.2-4.1-2-7.2c1.9,0,4.8-0.5,9.4-1.8
			c2.9-0.8,4.2-1,4.8-1.1c4.1-0.4,4.3-3.4,4.3-4c0-0.9-0.3-1.8-0.8-2.6C342.1,60.2,340.5,58.5,338,56.8z"/>
		<path class="st1" d="M389,64.6c0-0.6-0.1-1.1-0.2-1.6c0,0,0,0,0-0.1c-0.6-1.7-1-2.8-1.4-3.6c-0.4-1-0.9-2-1.9-2.6
			c-1.1-0.7-2.3-0.5-3.4-0.3c-1.6,0.2-6.7,0.6-15.2,1.2c-13.2,0.8-15.5,0.9-15.9,0.9c-4.3-0.2-5,2.2-5.1,3.2c0,0.1,0,0.2,0,0.3
			c0,0.5,0.1,1.1,0.3,1.7c0,0.1,0,0.2,0.1,0.2c0.3,0.6,0.8,1.7,1.5,3.3c1.1,2.3,2.7,2.6,3.5,2.6c0.5,0,0.9-0.1,2.5-0.6
			c3.8-1.1,12-1.8,24.5-2.1c1.5,0,2.8,0.2,3.8,0.7c1,0.5,2,0.7,2.9,0.7C387.4,68.6,389,67,389,64.6z"/>
		<path class="st1" d="M490.5,62.9c-0.6-1.7-1-2.8-1.4-3.6c-0.4-1-0.9-2-1.9-2.6c-1.1-0.7-2.3-0.5-3.4-0.3
			c-1.6,0.2-6.7,0.6-15.2,1.2c-13.2,0.8-15.5,0.9-15.9,0.9c-4.3-0.2-5,2.2-5.1,3.2c0,0.1,0,0.2,0,0.3c0,0.5,0.1,1.1,0.3,1.7
			c0,0.1,0,0.2,0.1,0.2c0.3,0.6,0.8,1.7,1.5,3.4c1.1,2.3,2.7,2.6,3.5,2.6c0.5,0,0.9-0.1,2.5-0.6c3.8-1.1,12-1.8,24.5-2.1
			c1.5,0,2.8,0.2,3.8,0.7c1,0.5,2,0.7,2.9,0.7c2.3,0,4-1.7,4-4C490.8,64.1,490.7,63.5,490.5,62.9C490.5,63,490.5,63,490.5,62.9z"/>
		<path class="st1" d="M445,42c-1.6-1.5-3.6-2.3-5.9-2.3c-2.2,0-4.2,0.8-5.9,2.3c-1.6,1.5-2.5,3.5-2.5,5.7c0,2.2,0.9,4.2,2.5,5.8
			c1.7,1.5,3.6,2.2,5.9,2.2c2.2,0,4.3-0.8,5.9-2.3c1.7-1.5,2.6-3.5,2.6-5.7C447.6,45.5,446.7,43.5,445,42z M439.1,47.4
			C439.1,47.3,439.1,47.3,439.1,47.4c0.1,0,0.2,0,0.2,0c0.1,0.1,0.1,0.2,0.1,0.4c0,0.2-0.1,0.3-0.2,0.4c0,0,0,0,0,0c0,0-0.1,0-0.1,0
			c-0.1-0.1-0.1-0.3-0.1-0.4C439,47.6,439,47.4,439.1,47.4z"/>
		<path class="st1" d="M409.6,47.8c-0.9-0.2-1.5-0.3-2-0.3c-1.3,0-3.5,0.9-3.5,4.2c0,0,0,0.9-1.3,3.5c-0.9,1.8-1.7,3.2-2.4,4.2
			c-1.4,2-3.3,4-5.8,5.8c-1,0.8-2.9,2.1-5.5,3.8c-1.9,1.1-2.1,2.5-2.1,3.3c0,0.9,0.4,1.7,1,2.3c0.9,0.9,2.2,1.1,3.1,1.1
			c0.1,0,0.3,0,0.4,0c5-0.2,8.9-1,12-2.3c2.9-1.2,3.3-3.2,3.3-4.2c0-0.2,0-0.5,0.4-0.9c0,0,0.1-0.1,0.1-0.1
			c3.1-4.5,5.5-8.1,7.1-10.7c0.2-0.2,0.4-0.4,0.8-0.7c1-0.9,1.5-2,1.5-3.1c0-1.2-0.6-2.2-1.7-3.2C413.6,49.3,411.9,48.4,409.6,47.8z
			"/>
		<path class="st1" d="M425.5,49.2c-0.9-0.5-1.8-0.8-2.7-0.8c-2.5,0-3.9,1.8-3.9,3.5c0,1,0.5,2,1.3,2.8c4.3,5,7.6,10.4,9.6,16
			c1.1,3.3,3.2,3.8,4.3,3.8c2.2,0,3.6-1.8,4.5-3.2c0.5-0.8,1-1.8,1.4-2.8c0.6-1.5,0.9-2.8,0.9-3.9c0-1.9-1-3.8-2.9-5.7
			C434.9,55.5,430.6,52.2,425.5,49.2z"/>
		<path class="st1" d="M529.2,46c-1.6-0.7-3.7-1.1-6.2-1.1c-0.2,0-0.4,0-0.6,0c0-0.8-0.3-1.8-1.2-2.7c-1.3-1.5-2.5-2.5-3.7-3.1
			c-1.2-0.6-2-0.8-2.7-0.8c-2.1,0-3.1,1.9-3.9,3.4c0,0,0,0.1,0,0.1c-0.2,0.5-1.3,2.2-6.3,8.4c-5.2,6.4-6.5,8.8-7,10c0,0,0,0.1,0,0.1
			c-0.4,0.9-0.5,1.5-0.5,2.1c0,1.9,1.4,3.3,3.2,3.3c0.9,0,1.8-0.3,2.7-0.9c2.2-1.4,4.7-3.3,7.4-5.7c1.8-1.7,3.6-3.5,5.4-5.1
			c1.1,0,1.9-0.1,2.5-0.1c0.4,0,0.8,0,1.2,0.1c-0.4,1.1-1.4,3-3.5,6c-2.1,3.1-4.2,5.6-6.1,7.6c-1.9,1.9-4,3.5-6.2,4.9
			c-2.3,1.4-4.6,2.7-7,4.1c-0.8,0.4-2.7,1.5-2.7,3.6c0,0.3,0.1,3.3,4.1,3.3c1.7,0,3.8-0.2,6.5-0.7c2.7-0.5,4.8-1,6.5-1.6
			c1.7-0.6,2.8-1.3,3.4-2.3c0.1-0.1,0.1-0.2,0.2-0.3c0.3-0.6,0.6-1.3,0.9-2c0.4-0.5,1.6-2.1,5.8-7c4.1-4.7,6.9-8.4,8.6-11.2
			c1.2-2.2,2-3.1,2.2-3.3c1-1,2.3-2.3,2.3-4C534,48,530.7,46.6,529.2,46z"/>
	</g>
	<g>
		<path class="st2" d="M87.3,48.3c0.8,0,2.2,0.4,4,1.1c1.7,0.8,2.6,1.5,2.6,2.4c0,0.3-0.2,0.8-0.7,1.5c-0.8,1.8-2.1,5.1-3.8,9.8
			c-0.4,0.9-1.9,1.3-4.3,1.3c-1.2,0-1.9-0.2-2.2-0.6c-3.4,0.8-6.3,1.2-8.7,1.5c-2.5,0.2-5.5,0.7-8.9,1.5c-1,3-2.3,6.4-4,10.1
			l0.4,2.4c-1.6,1.7-3.7,3.1-6.1,4.3c-2,1.5-4.2,2.2-6.6,2.2c-0.5,0-0.7-0.1-0.7-0.2c0-0.7,1.3-2.2,3.8-4.5c4-4,6.7-8.2,8.1-12.8
			c1.4-4.4,2.1-8.4,2.1-12.2c-0.1-0.9-0.4-1.9-0.8-3c-0.4-0.8-0.6-1.5-0.6-1.9c0-0.6,0.4-1,1.2-1.1c0.4,0,1.5,0.2,3.5,0.7
			c0.6,0.2,1.1,0.3,1.5,0.4c2.3-0.1,6.4-0.7,12.3-1.8C84.1,48.7,86.7,48.3,87.3,48.3z M67.7,56c-0.3,1-0.6,2.2-0.8,3.8
			c-0.1,0.9-0.3,1.8-0.5,2.8c3.2-0.4,9-1.3,17.2-2.7c0.7-2.9,1-4.9,1-5.9c0-1.3-0.6-2-1.6-2c-3.8,0.7-7.5,1.5-11.1,2.4
			C70.2,55.2,68.7,55.7,67.7,56z M76.8,36c0.4,0,0.8,0.6,1.2,1.9c0.4,1.6,0.8,2.7,1.3,3.4c1.1,2,1.6,3.5,1.6,4.6
			c0,0.5-0.2,0.9-0.6,1.1c-0.6,0.3-1.2,0.4-1.8,0.4c-1.1,0-2.2-0.4-3.4-1.2c-0.9-0.6-1.4-1.2-1.4-1.6c0-2.7,0.5-5,1.4-6.9
			C75.9,36.6,76.5,36,76.8,36z"/>
		<path class="st2" d="M126.8,37.5c0.3,0,1,0.3,2.2,1c0.9,0.6,1.3,1,1.3,1.1c0,0.4-0.4,0.9-1.1,1.5c-0.3,0.4-0.7,0.7-1,1.1
			c0.6,0.8,1.7,1.8,3.3,3c2.6,2.1,4.8,3.9,6.4,5.4c1.7,1.8,3.8,3.1,6.2,4c5,1.7,8.2,3.1,9.6,4.2c1.1,1.1,1.6,1.8,1.6,2.1
			c0,0.6-1,0.8-3.1,0.8c-0.9,0-2-0.1-3.4-0.3c-1.7-0.5-4-0.8-7.1-1c-1.1-0.1-1.7-0.8-1.8-2.1c-0.4-1.4-5-5.9-13.9-13.5
			c-0.1-0.1-0.1-0.1-0.2-0.2c-4.3,4.5-7.5,8.4-9.7,11.5c-0.8,0.9-1.3,1.8-1.5,2.8c-0.2,0.6-1,1.3-2.6,2.2c-2.3,1.3-5.1,2-8.3,2
			c-0.9,0-1.4-0.2-1.4-0.5c4.9-2.7,9.2-6.3,13-10.8c4.3-4.6,7.7-9,10.1-13.4C125.6,37.8,126,37.5,126.8,37.5z M131.8,54.7
			c0.7,0,1.8,0.4,3.3,1.1c1.6,0.8,2.4,1.3,2.4,1.8c0,0.3-0.2,0.7-0.6,1.2c-0.5,1.1-1.2,3.7-2.2,7.8c-0.2,0.7-0.7,1.1-1.5,1.2
			c-0.6,0.2-1.2,0.3-1.6,0.3c-0.3,0-0.5,0-0.7-0.1c-2.6,0.6-4.9,0.9-6.7,1.1c-1.7,0.2-3.7,0.5-6.1,1.1c-0.7,1.9-1.6,3.8-2.6,5.6
			c0.1,0.4,0.2,0.7,0.2,0.9c-1.9,2.3-3.7,3.8-5.3,4.4c-1.3,0.4-2.8,0.6-4.4,0.6c-0.4,0-0.7-0.2-0.7-0.4c0-0.3,0.2-0.8,0.7-1.3
			c4.8-3.1,7.8-6.5,9.1-10.3c1-2.8,1.7-6.7,2.3-11.8c0.2-1.2,0.7-1.8,1.4-1.8c0.4,0.1,0.7,0.2,1,0.4c1.7-0.6,3.9-1.1,6.7-1.5
			C128.6,54.9,130.4,54.7,131.8,54.7z M117.8,73l1.4,0.2c5.6-1.1,9.7-1.7,12.4-1.8c2.1-0.3,3.2-0.4,3.3-0.4c1,0,2.2,0.4,3.5,1.2
			c1.1,0.8,1.7,1.4,1.7,2.1c0,0.2-0.3,0.5-0.9,0.8c-0.7,0.6-2,2.6-3.8,6.1c-0.4,0.9-0.8,1.5-1.3,1.6c-0.6,0-1.3-0.2-2.1-0.6
			c-4.8,0.7-7.4,1.2-8.1,1.6c-0.5,0.3-0.9,0.4-1.2,0.4c-1.1-0.1-2.5-1.7-4.1-4.8c-1.3-2.5-1.9-4.2-1.9-5.1
			C116.8,73.5,117.2,73,117.8,73z M120.3,59.7c-0.2,0.6-0.3,1.4-0.4,2.2c5.6-1.3,8.5-1.9,8.8-2c0.6,0.1,1,0.7,1,1.8
			c0,0.6-0.5,0.9-1.4,1.1c-0.9,0.1-2,0.3-3.1,0.7c-0.9,0.3-1.8,0.5-2.7,0.6c-1,0.2-2,0.4-3,0.7c-0.2,0.9-0.4,1.7-0.6,2.5
			c2.3-0.3,6.1-1,11.6-2.1c0.7-4.4,1-6.7,1-7.1c0-0.8-0.4-1.1-1.2-1.1c-3.1,0.2-5.9,0.8-8.3,1.7C121.3,59.3,120.7,59.6,120.3,59.7z
			 M124.2,80.5c0.7,0,2.7-0.3,6-0.8c0.6-0.1,1-0.4,1.3-0.8c0.6-0.9,0.9-1.9,0.9-2.9c0-1.2-0.3-1.8-1-1.8c-1.2,0-2.9,0.2-5,0.6
			c-2.7,0.6-4,1.1-4,1.6C122.4,79.1,123.1,80.5,124.2,80.5z M124.7,47.2c0.4,0.2,0.8,0.6,1.3,1.3c0.6,0.8,1.3,1.5,2.2,2.1
			c0.9,0.8,1.4,1.6,1.5,2.5c-0.1,0.6-0.5,0.8-1.2,0.8c-1.3-0.3-2.5-0.6-3.7-0.7c-1.2-0.2-1.8-0.8-1.8-2.1c0-1.3,0.2-2.3,0.6-3.2
			C124,47.6,124.3,47.3,124.7,47.2z"/>
		<path class="st2" d="M192.1,56.1c-0.4,0.3-3.4,3.1-9,8.5c0.6,0.1,1.3,0.3,2,0.6c0.8,0.2,1.1,0.9,0.9,1.9c-0.2,1.5-0.4,4.1-0.5,8
			c0,3.9,0,6.4,0.2,7.6c0.1,0.5,0.1,0.8-0.1,1c-0.2,0.2-0.4,0.3-0.7,0.2c-0.9-0.1-2.2-0.2-3.9-0.4c-0.8,0-0.9-0.6-0.4-1.7
			c0.1-0.3,0.1-1.9,0.1-5.1c0-3,0-5.2-0.1-6.6c0-1.4-0.3-2.3-0.7-2.9c-0.4,0.3-1.4,1.2-3.2,2.4c-1.2,0.9-1.9,1.5-2.1,2l-0.6,1.2
			c-0.2,0.1-0.6,0.2-1.3,0.4c-1.1,0.2-2.7,0.6-4.8,1c-1.2,0.3-2.4,0.4-3.7,0.4c-1.3,0-2.5-0.2-3.6-0.5c-0.4-0.2-0.6-0.3-0.6-0.5
			c0-0.3,1.8-1.3,5.4-2.9c4.3-1.8,6.5-2.8,6.8-3c2.1-1.2,4.4-2.8,6.6-4.8c2.6-2.2,4.3-4.1,5.2-5.5c0.5-0.9,0.7-1.4,0.7-1.6
			c0-0.4-0.7-0.6-2-0.5c-1.8,0.2-5.8,1.3-11.9,3.5c-0.4,0.1-0.8,0.2-1.1,0.2c-0.8,0-1.2-0.5-1.3-1.4c-0.1-1.5,0.1-2.7,0.6-3.6
			c0.4-0.7,0.7-1,1-1.1c-0.5,0.1,0,0.1,1.5,0.1c3.9,0,7.7-0.4,11.6-1.2c1.5-0.3,2.5-0.5,3-0.5c0.6,0,1.4,0.1,2.4,0.3
			c1.6,0.4,2.7,0.7,3.3,0.8c1.2,0.6,1.8,1.2,1.8,1.9C193.7,55.1,193.2,55.6,192.1,56.1z M188.3,45c0.9,1,1.3,1.8,1.3,2.3
			c0,0.7-0.7,1.1-2.2,1.1c-1.7,0-3.9-0.5-6.8-1.5c-1.7-0.6-2.6-1.7-2.6-3.2c0-0.9,0.3-2,0.9-3.4c0.7-1.6,1.5-2.4,2.2-2.4
			c0.6,0,1.1,0.6,1.6,1.7c0.4,0.9,1.3,2,2.9,3.1C187.3,44.1,188.2,44.9,188.3,45z M202.6,67.7c-0.2,3.4-0.8,5.1-2,5.1
			c-0.6,0-1.1-0.3-1.5-1c-1.3-1.7-4.2-4.4-8.7-8.2c-0.6-0.5-0.9-0.8-0.9-1.1c0-0.4,0.6-0.5,1.8-0.3c3.4,0.4,6.1,1,8.1,1.6
			c1.5,0.6,2.3,1,2.6,1.3C202.5,65.5,202.7,66.4,202.6,67.7z"/>
		<path class="st2" d="M243.6,45.1c0,0.4-0.6,0.9-1.7,1.5c-1.5,0.9-4.8,4.3-10,10.3c1.7,0.4,2.9,0.8,3.6,1.2c0.7,0.4,1,1,1,1.9
			c0,0.3-0.1,0.6-0.2,1c-0.5,2.5-0.7,7.3-0.7,14.4c0,1.9,0.1,3.7,0.2,5.2c0,0.9,0.1,1.5,0.1,1.6c-0.2,0.4-0.6,0.6-1.2,0.6
			c-1.2,0-2.4-0.3-3.7-0.8c-0.8-0.3-1.2-0.7-1.2-1.2c0-0.3,0.1-0.5,0.2-0.7c0.3-0.3,0.4-1.5,0.5-3.7c0.4-8.4,0.3-13.5-0.2-15.2
			c-0.2-0.7-0.6-1.2-0.9-1.5c-0.5,0.4-1.2,1.1-2.2,2.2c-1,1.1-1.6,1.8-1.8,2.1c-0.6,1.3-2.1,2.3-4.4,2.9c-3.4,0.9-6.2,1.5-8.3,1.8
			c-0.4,0-0.8,0.1-1,0.1c-0.6,0-1-0.1-1-0.4c0-0.3,0.4-0.8,1.3-1.3l5.8-4c2.8-2,5.3-3.8,7.5-5.6c2.5-2.1,4.9-4.6,7.1-7.7
			c2.1-2.7,3.2-4.7,3.4-5.9c0.3-1.4,0.8-2.1,1.6-2.1c0.4,0,0.9,0.1,1.5,0.3c0.9,0.3,1.8,0.7,2.8,1.2
			C242.9,43.9,243.6,44.6,243.6,45.1z"/>
		<path class="st2" d="M295.6,60c0.1,0.3,0.2,0.5,0.2,0.7c0,0.6-0.4,1-1.2,1c-0.5,0-1.5-0.2-3.2-0.7c-1.6-0.6-2.9-0.8-4.1-0.8
			c-1.3,0-4.3,0.1-9.1,0.4c-0.8,2.7-1.8,6.6-3.2,11.7c-0.3,0.9-0.3,1.6-0.1,2.1c0,0.2,0.1,0.3,0.1,0.4c0,0.6-0.4,1.2-1.3,1.9
			c-2.7,2.2-6.7,3.8-12,5c-0.7,0.2-1,0-1-0.6c0-0.2,0.1-0.4,0.4-0.7c4.4-4,7-6.6,8-7.8c1.6-1.9,3-5.8,4.4-11.4
			c-6.6,0.5-11.4,1.3-14.4,2.5c-0.9,0.3-1.4,0.5-1.5,0.5c-0.3,0-0.7-0.2-1.2-0.7c-0.5-0.5-1.2-1.4-2.1-2.8c-0.2-0.4-0.4-0.6-0.4-0.8
			c0-0.3,0.5-0.5,1.5-0.5c0.4,0,2.2-0.3,5.4-0.8c4.5-0.6,8.8-1.2,13.1-1.8c0.1-1.6,0.2-3.1,0.2-4.5c0-1.5-0.1-2.6-0.2-3.4
			c-0.9,0.3-1.7,0.9-2.5,1.7c-0.8,0.8-1.9,1.3-3.4,1.4c-3.7,0.4-6.2,0.6-7.5,0.5c-0.5,0-0.7-0.2-0.7-0.5c0-0.2,0.1-0.4,0.4-0.7
			c2.1-1.5,5.7-3.3,10.6-5.3c4.1-1.6,8-3,11.9-4.2c0.9-0.3,1.4-0.5,1.5-0.5c0.4,0,0.8,0.2,1.2,0.6c0.6,0.5,1.4,1.5,2.4,2.9
			c0.2,0.4,0.3,0.7,0.3,1c0,0.5-0.3,0.7-0.8,0.7c-3.6,0-6.9,0.4-9.8,1.3l1.8,0.8c0.6,0.3,0.9,0.7,0.9,1.2c0,0.2,0,0.5-0.1,0.8
			c-0.6,1.6-1,3.5-1.1,5.7c5.2-0.1,8.8-0.5,10.8-1.2c0.8-0.2,1.3-0.3,1.4-0.3c0.3,0,0.6,0.2,1,0.7C294,57.3,295.1,58.8,295.6,60z"/>
		<path class="st2" d="M340.7,63.6c0.3,0.4,0.4,0.8,0.4,1.1c0,0.6-0.6,1-1.7,1.1c-1.1,0.1-2.9,0.5-5.4,1.2c-4,1.1-6.8,1.6-8.3,1.6
			c-1.3,0-1.9-0.1-1.9-0.3c0-0.2,0.6-0.5,1.8-1.1c2.6-1,4.9-2.5,6.8-4.3c0.8-0.7,1.2-1.2,1.2-1.4c0-0.3-0.4-0.6-1.2-0.8
			c-0.5-0.1-1-0.2-1.5-0.2c-2.5,0-5.9,1-10.3,3c1.7,7.8,3.1,13.2,4.2,16.3c0.3,0.6,0.4,1.1,0.4,1.3c0,0.4-0.3,0.7-0.9,0.8
			c-1,0.3-2,0.4-2.9,0.4c-0.6,0-1-0.1-1.2-0.3c0-0.1,0-0.4-0.1-1c-0.4-3.5-1.6-8.8-3.6-16.2c-3,1.3-6,2.3-9,2.9
			c-0.6,0.2-1.1,0.2-1.4,0.2c-0.5,0-0.8-0.5-1-1.5c-0.2-1-0.2-1.9-0.1-2.9c0.2-0.9,0.5-1.4,1-1.4c0.2,0,0.6,0.1,1.3,0.3
			c0.2,0.1,1.5-0.1,3.8-0.5c2.3-0.4,3.8-0.8,4.4-1c-0.6-2.4-1.4-4.9-2.2-7.6c-0.3-0.9-0.4-1.4-0.4-1.6c0-0.4,0.5-0.7,1.4-0.9
			c1.4-0.3,2.5-0.4,3.4-0.4c1.3,0,1.9,0.4,1.9,1c0,0.3-0.1,0.6-0.2,1.1c-0.2,0.5-0.3,1-0.3,1.4c0,1,0.3,3,0.8,5.7
			c5.7-1.5,9.5-2.3,11.3-2.3c2.1,0,3.8,0.5,5.1,1.5C338.4,60.6,339.9,62.1,340.7,63.6z"/>
		<path class="st2" d="M386,63.9c0.1,0.2,0.1,0.5,0.1,0.7c0,0.8-0.4,1.1-1.1,1.1c-0.4,0-1-0.2-1.6-0.4c-1.5-0.7-3.2-1-5.1-1
			c-12.8,0.3-21.1,1.1-25.2,2.2c-1,0.3-1.5,0.4-1.6,0.4c-0.3,0-0.6-0.3-0.9-1c-0.7-1.6-1.2-2.7-1.5-3.3c-0.1-0.3-0.2-0.6-0.2-0.8
			v-0.1c0-0.5,0.7-0.6,2-0.6c0.9,0,6.2-0.3,16.2-0.9c8.8-0.6,13.9-1,15.4-1.2c0.8-0.2,1.3-0.2,1.4-0.1c0.2,0.1,0.5,0.5,0.7,1.2
			C385,61.1,385.4,62.2,386,63.9z"/>
		<path class="st2" d="M487.8,63.9c0.1,0.2,0.1,0.5,0.1,0.7c0,0.8-0.4,1.1-1.1,1.1c-0.4,0-1-0.2-1.6-0.4c-1.5-0.7-3.2-1-5.1-1
			c-12.8,0.3-21.1,1.1-25.2,2.2c-1,0.3-1.5,0.4-1.6,0.4c-0.3,0-0.6-0.3-0.9-1c-0.7-1.6-1.2-2.7-1.5-3.3c-0.1-0.3-0.2-0.6-0.2-0.8
			v-0.1c0-0.5,0.7-0.6,2-0.6c0.9,0,6.2-0.3,16.2-0.9c8.8-0.6,13.9-1,15.4-1.2c0.8-0.2,1.3-0.2,1.4-0.1c0.2,0.1,0.5,0.5,0.7,1.2
			C486.7,61.1,487.2,62.2,487.8,63.9z"/>
		<path class="st2" d="M413,52.6c0.5,0.4,0.7,0.7,0.7,1s-0.2,0.6-0.6,1c-0.6,0.6-1,0.9-1,0.9c-1.6,2.6-4,6.3-7.2,10.9
			c-0.6,0.8-1,1.7-1,2.7c0,0.6-0.5,1.2-1.5,1.6c-2.8,1.2-6.4,1.9-11,2.1c-1,0-1.5-0.1-1.5-0.5c0-0.3,0.2-0.6,0.7-0.8
			c2.8-1.8,4.8-3.1,5.8-4c2.7-2,4.8-4.2,6.4-6.5c0.8-1.2,1.7-2.7,2.6-4.6c1.1-2.2,1.6-3.8,1.6-4.7c0-0.9,0.2-1.3,0.7-1.3
			c0.2,0,0.7,0.1,1.3,0.2C410.7,51.1,412,51.8,413,52.6z M437.5,67.6c-0.3,0.8-0.7,1.6-1.2,2.2c-0.8,1.2-1.5,1.9-2.1,1.9
			c-0.6,0-1.2-0.6-1.6-1.9c-2.2-6.2-5.7-11.9-10.3-17.2c-0.3-0.2-0.4-0.5-0.4-0.7c0-0.4,0.3-0.6,1-0.6c0.4,0,0.8,0.1,1.2,0.4
			c4.9,2.9,8.9,6,12.1,9.3c1.4,1.4,2.1,2.6,2.1,3.7C438.2,65.5,438,66.4,437.5,67.6z M444.7,47.7c0,1.4-0.5,2.6-1.6,3.6
			c-1,1-2.4,1.5-3.9,1.5c-1.5,0-2.8-0.5-4-1.5c-1.1-1-1.6-2.2-1.6-3.6s0.5-2.6,1.6-3.6c1.1-1,2.5-1.5,4-1.5c1.5,0,2.8,0.5,3.9,1.5
			C444.2,45.1,444.7,46.3,444.7,47.7z M441.9,47.7c0-0.7-0.3-1.2-0.9-1.7c-0.5-0.5-1.1-0.7-1.8-0.7s-1.4,0.2-1.9,0.7
			c-0.5,0.5-0.8,1-0.8,1.7s0.3,1.3,0.8,1.8s1.2,0.7,1.9,0.7s1.3-0.2,1.8-0.7C441.6,49,441.9,48.4,441.9,47.7z"/>
		<path class="st2" d="M531.2,51c0,0.5-0.5,1.1-1.3,1.9c-0.8,0.8-1.7,2.1-2.8,4.1c-1.5,2.6-4.2,6.2-8.2,10.7c-3.9,4.5-6,7-6.3,7.6
			c-0.2,0.7-0.5,1.3-0.9,2c-0.2,0.4-0.9,0.8-2,1.1c-1.5,0.5-3.5,1-6,1.5c-2.4,0.4-4.4,0.6-6,0.6c-0.8,0-1.2-0.1-1.2-0.4
			s0.4-0.6,1.2-1.1c2.4-1.3,4.8-2.7,7.1-4.1c2.5-1.5,4.7-3.3,6.8-5.3c2-2.1,4.2-4.8,6.4-8c2.9-4.1,4.3-7.1,4.3-8.9
			c0-0.7-0.7-1.2-2.1-1.5c-0.8-0.1-1.6-0.2-2.3-0.2c-0.8,0-2,0.1-3.6,0.1c-2.1,2-4.2,3.9-6.3,5.9c-2.5,2.2-4.8,4-6.9,5.3
			c-0.5,0.3-0.9,0.5-1.2,0.5c-0.2,0-0.3-0.2-0.3-0.5c0-0.2,0.1-0.5,0.3-1.1c0.7-1.7,2.9-4.8,6.6-9.4c3.9-4.7,6.1-7.7,6.7-9
			c0.7-1.3,1.2-1.9,1.4-1.9c0.3,0,0.8,0.2,1.5,0.5c0.8,0.4,1.8,1.2,2.9,2.5c0.3,0.3,0.5,0.7,0.5,1.1c0,0.3-0.2,0.7-0.7,1.2
			c-0.7,0.6-1.1,1-1.3,1.3c1.3,0,3.1,0.1,5.5,0.1c2.2,0,3.9,0.3,5.2,0.9C530.1,49.5,531.2,50.3,531.2,51z"/>
	</g>
</g>
</svg>
