<?xml version="1.0" encoding="utf-8"?>
<!-- Generator: Adobe Illustrator 23.1.1, SVG Export Plug-In . SVG Version: 6.00 Build 0)  -->
<svg version="1.1" id="のせもの" xmlns="http://www.w3.org/2000/svg" xmlns:xlink="http://www.w3.org/1999/xlink" x="0px"
	 y="0px" viewBox="0 0 841.89 595.276" style="enable-background:new 0 0 841.89 595.276;" xml:space="preserve">
<style type="text/css">
	.st0{fill:url(#SVGID_1_);stroke:#604D3F;stroke-linecap:round;stroke-linejoin:round;stroke-miterlimit:10;}
	.st1{fill:#807165;}
	.st2{fill:url(#SVGID_2_);stroke:#604D3F;stroke-width:0.7322;stroke-linecap:round;stroke-linejoin:round;stroke-miterlimit:10;}
	.st3{fill:none;stroke:#807165;stroke-width:0.5;stroke-linecap:round;stroke-linejoin:round;stroke-miterlimit:10;}
	.st4{fill:#604D3F;stroke:#604D3F;stroke-width:0.9525;stroke-linecap:round;stroke-linejoin:round;stroke-miterlimit:10;}
	.st5{fill:#B6716C;stroke:#604D3F;stroke-width:0.9525;stroke-linecap:round;stroke-linejoin:round;stroke-miterlimit:10;}
	.st6{fill:#6EA16C;stroke:#604D3F;stroke-linecap:round;stroke-linejoin:round;stroke-miterlimit:10;}
	.st7{fill:url(#SVGID_3_);stroke:#604D3F;stroke-linecap:round;stroke-linejoin:round;stroke-miterlimit:10;}
	.st8{fill:#604D3F;}
</style>
<g>
	<g>
		
			<image style="overflow:visible;" width="766" height="765" xlink:href="FD2CB96A2674031F.png"  transform="matrix(0.24 0 0 0.24 668.1457 409.3017)">
		</image>
	</g>
	<radialGradient id="SVGID_1_" cx="760.1212" cy="494.7422" r="55.7659" gradientUnits="userSpaceOnUse">
		<stop  offset="0" style="stop-color:#E3D3C0"/>
		<stop  offset="0.3383" style="stop-color:#E2D1BD"/>
		<stop  offset="0.5601" style="stop-color:#DECBB4"/>
		<stop  offset="0.7486" style="stop-color:#D7C0A5"/>
		<stop  offset="0.9174" style="stop-color:#CEB190"/>
		<stop  offset="1" style="stop-color:#C8A883"/>
	</radialGradient>
	<circle class="st0" cx="760.121" cy="494.742" r="55.766"/>
	<g>
		<g>
			<g>
				<path class="st1" d="M745.571,443.322c4.878,17.333,9.654,34.71,14.451,52.053c2.324,8.402,4.565,16.767,6.563,25.253
					c2.069,8.785,5.104,17.285,7.074,26.119c0.036,0.162,0.431,0.145,0.398,0c-3.747-16.803-8.937-33.28-13.261-49.953
					c-4.639-17.886-9.849-35.735-14.899-53.525C745.864,443.147,745.53,443.174,745.571,443.322L745.571,443.322z"/>
			</g>
		</g>
		<g>
			<g>
				<path class="st1" d="M736.815,446.582c7.92,16.441,15.86,32.92,23.594,49.435c3.824,8.167,7.351,16.481,11.193,24.625
					c3.623,7.679,7.58,15.084,10.845,22.94c0.058,0.14,0.452,0.1,0.384-0.062c-3.265-7.855-7.223-15.26-10.846-22.94
					c-3.842-8.145-7.37-16.459-11.194-24.625c-7.736-16.519-15.692-32.999-23.65-49.426
					C737.085,446.412,736.751,446.45,736.815,446.582L736.815,446.582z"/>
			</g>
		</g>
		<g>
			<g>
				<path class="st1" d="M728.775,451.338c10.791,15.003,21.729,30.01,32.237,45.196c9.784,14.141,20.277,27.896,29.528,42.378
					c0.082,0.129,0.473,0.076,0.384-0.062c-4.318-6.759-8.97-13.137-13.812-19.527c-2.725-3.597-4.805-7.668-7.397-11.362
					c-3.007-4.285-6.157-8.48-9.195-12.746c-10.445-14.67-20.901-29.369-31.453-43.977
					C728.995,451.136,728.672,451.195,728.775,451.338L728.775,451.338z"/>
			</g>
		</g>
		<g>
			<g>
				<path class="st1" d="M721.661,457.396c13.067,12.738,26.163,25.506,39.078,38.379c6.387,6.366,12.545,12.972,18.941,19.312
					c6.031,5.977,12.282,11.582,18.037,17.847c0.099,0.108,0.48,0.03,0.344-0.119c-5.755-6.265-12.007-11.87-18.038-17.847
					c-6.396-6.339-12.555-12.946-18.941-19.312c-12.92-12.878-26.033-25.644-39.128-38.362
					C721.865,457.209,721.54,457.278,721.661,457.396L721.661,457.396z"/>
			</g>
		</g>
		<g>
			<g>
				<path class="st1" d="M715.735,464.618c14.879,10.137,29.706,20.376,44.527,30.577c7.181,4.943,14.275,9.91,21.26,15.126
					c7.23,5.399,15.017,9.957,22.202,15.456c0.113,0.087,0.495-0.003,0.344-0.119c-13.673-10.465-28.242-19.753-42.273-29.747
					c-15.052-10.721-30.518-21.048-45.82-31.435C715.869,464.405,715.569,464.505,715.735,464.618L715.735,464.618z"/>
			</g>
		</g>
		<g>
			<g>
				<path class="st1" d="M711.157,472.76c16.845,7.592,33.82,15.117,50.51,23.013c15.544,7.353,31.509,14.02,46.761,21.937
					c0.13,0.068,0.487-0.06,0.282-0.166c-7.122-3.696-14.343-6.894-21.734-10.009c-4.158-1.753-7.995-4.238-12.087-6.141
					c-4.744-2.206-9.567-4.262-14.327-6.437c-16.383-7.485-32.79-14.988-49.233-22.368
					C711.195,472.528,710.955,472.669,711.157,472.76L711.157,472.76z"/>
			</g>
		</g>
		<g>
			<g>
				<path class="st1" d="M708.026,481.564c17.684,4.494,35.415,9.003,53.035,13.693c8.715,2.32,17.35,4.959,26.059,7.254
					c8.208,2.163,16.432,3.89,24.544,6.437c0.159,0.05,0.45-0.125,0.201-0.203c-8.119-2.549-16.33-4.276-24.544-6.437
					c-8.708-2.291-17.347-4.934-26.06-7.254c-17.629-4.695-35.365-9.193-53.065-13.664
					C708.062,481.357,707.812,481.509,708.026,481.564L708.026,481.564z"/>
			</g>
		</g>
		<g>
			<g>
				<path class="st1" d="M708.401,509.311c17.334-4.886,34.716-9.666,52.063-14.464c8.926-2.469,17.957-4.509,26.881-6.936
					c8.188-2.227,16.174-4.847,24.475-6.697c0.258-0.057,0.095-0.271-0.106-0.227c-16.81,3.748-33.29,8.94-49.969,13.266
					c-17.884,4.638-35.725,9.843-53.515,14.886C708.017,509.198,708.266,509.349,708.401,509.311L708.401,509.311z"/>
			</g>
		</g>
		<g>
			<g>
				<path class="st1" d="M711.696,518.051c16.44-7.926,32.929-15.862,49.447-23.595c8.158-3.819,16.452-7.357,24.59-11.19
					c7.679-3.617,15.086-7.581,22.94-10.846c0.241-0.1-0.044-0.268-0.201-0.203c-16.121,6.701-31.753,14.668-47.585,22.049
					c-16.531,7.707-33,15.69-49.43,23.643C711.28,517.995,711.584,518.105,711.696,518.051L711.696,518.051z"/>
			</g>
		</g>
		<g>
			<g>
				<path class="st1" d="M716.427,526.109c14.822-10.664,29.706-21.288,44.599-31.834c7.362-5.214,14.952-10.1,22.308-15.3
					c6.935-4.902,13.541-10.086,20.708-14.664c0.197-0.126-0.155-0.247-0.282-0.166c-7.17,4.58-13.773,9.765-20.708,14.665
					c-7.355,5.196-14.93,10.116-22.307,15.3c-14.921,10.484-29.763,21.176-44.557,31.858
					C716.025,526.085,716.323,526.184,716.427,526.109L716.427,526.109z"/>
			</g>
		</g>
		<g>
			<g>
				<path class="st1" d="M722.513,533.202c12.744-13.072,25.517-26.174,38.396-39.095c6.366-6.387,12.973-12.545,19.312-18.941
					c5.977-6.031,11.582-12.282,17.847-18.037c0.144-0.132-0.236-0.218-0.344-0.119c-6.265,5.755-11.87,12.007-17.846,18.038
					c-6.339,6.396-12.946,12.555-19.312,18.941c-12.873,12.915-25.633,26.022-38.346,39.112
					C722.102,533.223,722.425,533.291,722.513,533.202L722.513,533.202z"/>
			</g>
		</g>
		<g>
			<g>
				<path class="st1" d="M729.731,539.131c10.279-15.083,20.593-30.2,31.032-45.157c5.156-7.388,10.572-14.599,15.703-21.99
					c4.841-6.973,9.274-14.108,14.444-20.862c0.124-0.162-0.255-0.236-0.344-0.119c-10.61,13.862-20.163,28.577-30.182,42.883
					c-10.462,14.939-20.732,30.088-30.98,45.191C729.328,539.191,729.658,539.239,729.731,539.131L729.731,539.131z"/>
			</g>
		</g>
		<g>
			<g>
				<path class="st1" d="M737.858,543.743c7.506-16.64,15.028-33.319,22.711-49.864c3.798-8.179,7.9-16.225,11.669-24.404
					c3.554-7.711,6.683-15.503,10.602-23.054c0.078-0.151-0.313-0.199-0.384-0.062c-3.919,7.551-7.047,15.342-10.601,23.054
					c-3.769,8.179-7.871,16.225-11.669,24.404c-7.68,16.539-15.187,33.223-22.655,49.873
					C737.47,543.825,737.804,543.862,737.858,543.743L737.858,543.743z"/>
			</g>
		</g>
		<g>
			<g>
				<path class="st1" d="M746.661,546.874c4.504-17.694,9.077-35.395,13.706-53.045c2.289-8.726,4.962-17.348,7.254-26.059
					c2.161-8.213,3.89-16.43,6.437-24.544c0.054-0.171-0.339-0.206-0.384-0.062c-2.548,8.117-4.274,16.333-6.437,24.544
					c-2.294,8.708-4.934,17.346-7.254,26.059c-4.692,17.625-9.188,35.358-13.65,53.054
					C746.297,546.971,746.63,546.996,746.661,546.874L746.661,546.874z"/>
			</g>
		</g>
	</g>
	<g>
		<g>
			<g>
				<path class="st1" d="M750.691,446.276c3.163,16.797,6.337,33.633,9.318,50.453c2.77,15.63,6.084,31.277,8.173,47.004
					c0.043,0.327,0.838,0.306,0.797,0c-2.093-15.747-5.469-31.344-8.176-47.004c-2.908-16.828-6.191-33.676-9.434-50.453
					C751.316,445.999,750.644,446.023,750.691,446.276L750.691,446.276z"/>
			</g>
		</g>
		<g>
			<g>
				<path class="st1" d="M742.383,448.624c6.03,15.985,12.155,32.004,17.939,48.067c5.383,14.949,11.418,29.731,16.211,44.871
					c0.09,0.285,0.877,0.218,0.768-0.125c-4.794-15.139-10.83-29.921-16.214-44.87c-5.786-16.066-11.944-32.09-18.051-48.049
					C742.946,448.278,742.276,448.341,742.383,448.624L742.383,448.624z"/>
			</g>
		</g>
		<g>
			<g>
				<path class="st1" d="M734.588,452.329c8.578,14.462,17.177,28.956,25.599,43.495c8.1,13.983,16.694,27.775,24.168,42.091
					c0.141,0.271,0.927,0.178,0.768-0.125c-7.475-14.315-16.07-28.108-24.17-42.091c-8.428-14.548-17.064-29.046-25.711-43.477
					C735.109,452,734.443,452.084,734.588,452.329L734.588,452.329z"/>
			</g>
		</g>
		<g>
			<g>
				<path class="st1" d="M727.589,457.379c10.961,12.751,21.948,25.531,32.767,38.388c10.405,12.364,21.263,24.454,31.11,37.255
					c0.178,0.232,0.938,0.087,0.688-0.237c-9.847-12.8-20.707-24.89-31.112-37.254c-10.826-12.863-21.847-25.642-32.867-38.353
					C728.012,456.989,727.364,457.117,727.589,457.379L727.589,457.379z"/>
			</g>
		</g>
		<g>
			<g>
				<path class="st1" d="M721.532,463.527c13.012,10.653,25.994,21.377,38.931,32.106c6.451,5.35,12.687,10.903,19.073,16.316
					c5.982,5.071,12.234,9.669,18.034,14.97c0.214,0.196,0.978,0.028,0.688-0.237c-11.924-10.899-24.712-20.915-37.109-31.286
					c-12.898-10.791-25.971-21.462-39.031-32.072C721.928,463.171,721.277,463.319,721.532,463.527L721.532,463.527z"/>
			</g>
		</g>
		<g>
			<g>
				<path class="st1" d="M716.686,470.673c14.662,8.227,29.358,16.477,43.92,24.857c14.006,8.06,28.345,15.707,41.976,24.368
					c0.253,0.161,0.959-0.081,0.563-0.332c-13.631-8.66-27.971-16.307-41.977-24.367c-14.574-8.386-29.3-16.626-44.002-24.808
					C716.947,470.268,716.34,470.479,716.686,470.673L716.686,470.673z"/>
			</g>
		</g>
		<g>
			<g>
				<path class="st1" d="M713.165,478.553c15.871,5.554,31.778,11.127,47.576,16.851c15.193,5.505,30.642,10.546,45.57,16.708
					c0.314,0.13,0.884-0.207,0.402-0.406c-14.928-6.161-30.378-11.203-45.571-16.707c-15.807-5.727-31.738-11.285-47.635-16.792
					C713.238,478.115,712.746,478.407,713.165,478.553L713.165,478.553z"/>
			</g>
		</g>
		<g>
			<g>
				<path class="st1" d="M711.074,486.926c16.597,2.713,33.233,5.438,49.788,8.332c15.918,2.783,32.008,5.065,47.779,8.541
					c0.4,0.088,0.729-0.339,0.212-0.453c-15.771-3.476-31.861-5.757-47.779-8.54c-16.559-2.895-33.21-5.603-49.819-8.266
					C710.915,486.486,710.626,486.853,711.074,486.926L711.074,486.926z"/>
			</g>
		</g>
		<g>
			<g>
				<path class="st1" d="M711.381,504.122c16.792-3.178,33.64-6.435,50.469-9.343c15.651-2.704,31.27-6.083,47.004-8.174
					c0.527-0.07,0.188-0.507-0.212-0.453c-15.746,2.093-31.345,5.469-47.004,8.175c-16.822,2.907-33.663,6.182-50.438,9.409
					C710.758,503.821,711.039,504.186,711.381,504.122L711.381,504.122z"/>
			</g>
		</g>
		<g>
			<g>
				<path class="st1" d="M713.757,512.422c15.989-6.045,32.017-12.178,48.088-17.965c14.949-5.383,29.732-11.418,44.871-16.212
					c0.496-0.157-0.084-0.507-0.402-0.406c-15.139,4.794-29.921,10.83-44.87,16.213c-16.059,5.783-32.073,11.933-48.029,18.024
					C713,512.235,713.488,512.523,713.757,512.422L713.757,512.422z"/>
			</g>
		</g>
		<g>
			<g>
				<path class="st1" d="M717.531,520.185c14.47-8.592,28.975-17.202,43.527-25.631c13.983-8.1,27.776-16.694,42.092-24.169
					c0.409-0.214-0.302-0.469-0.563-0.332c-14.315,7.475-28.108,16.07-42.09,24.17c-14.536,8.421-29.022,17.046-43.445,25.68
					C716.71,520.107,717.312,520.315,717.531,520.185L717.531,520.185z"/>
			</g>
		</g>
		<g>
			<g>
				<path class="st1" d="M722.586,527.178c12.761-10.973,25.553-21.971,38.421-32.799c12.359-10.401,24.46-21.268,37.255-31.111
					c0.3-0.231-0.459-0.413-0.688-0.237c-12.805,9.851-24.885,20.703-37.253,31.111c-12.852,10.816-25.619,21.826-38.32,32.834
					C721.751,527.193,722.399,527.339,722.586,527.178L722.586,527.178z"/>
			</g>
		</g>
		<g>
			<g>
				<path class="st1" d="M728.734,533.236c10.662-13.018,21.349-26.067,32.139-38.964c10.368-12.392,20.393-25.19,31.287-37.107
					c0.271-0.296-0.489-0.455-0.688-0.237c-10.896,11.921-20.916,24.714-31.285,37.108c-10.781,12.886-21.442,25.948-32.039,38.999
					C727.93,533.303,728.575,533.43,728.734,533.236L728.734,533.236z"/>
			</g>
		</g>
		<g>
			<g>
				<path class="st1" d="M735.874,538.086c8.242-14.671,16.501-29.377,24.889-43.952c8.06-14.006,15.707-28.345,24.368-41.976
					c0.175-0.276-0.603-0.385-0.768-0.125c-8.66,13.631-16.307,27.971-24.366,41.977c-8.378,14.561-16.609,29.277-24.776,43.97
					C735.081,538.23,735.746,538.314,735.874,538.086L735.874,538.086z"/>
			</g>
		</g>
		<g>
			<g>
				<path class="st1" d="M743.723,541.676c5.57-15.876,11.15-31.789,16.878-47.596c5.505-15.193,10.547-30.642,16.709-45.57
					c0.134-0.324-0.652-0.407-0.768-0.125c-6.161,14.927-11.202,30.378-16.707,45.57c-5.724,15.798-11.275,31.723-16.765,47.615
					C742.97,541.856,743.638,541.919,743.723,541.676L743.723,541.676z"/>
			</g>
		</g>
		<g>
			<g>
				<path class="st1" d="M752.088,543.795c2.73-16.601,5.461-33.242,8.357-49.803c2.783-15.915,5.066-32.012,8.542-47.779
					c0.063-0.288-0.725-0.326-0.797,0c-3.476,15.774-5.756,31.858-8.539,47.779c-2.893,16.552-5.594,33.199-8.241,49.803
					C751.369,544.051,752.042,544.074,752.088,543.795L752.088,543.795z"/>
			</g>
		</g>
	</g>
	<radialGradient id="SVGID_2_" cx="760.1212" cy="494.7422" r="40.8323" gradientUnits="userSpaceOnUse">
		<stop  offset="0" style="stop-color:#E3D3C0"/>
		<stop  offset="0.3383" style="stop-color:#E2D1BD"/>
		<stop  offset="0.5601" style="stop-color:#DECBB4"/>
		<stop  offset="0.7486" style="stop-color:#D7C0A5"/>
		<stop  offset="0.9174" style="stop-color:#CEB190"/>
		<stop  offset="1" style="stop-color:#C8A883"/>
	</radialGradient>
	<circle class="st2" cx="760.121" cy="494.742" r="40.832"/>
	<g>
		<path class="st3" d="M767.517,458.792c2.389,0.489,4.693,1.21,6.888,2.138c2.195,0.928,4.281,2.064,6.233,3.383
			c1.952,1.319,3.771,2.821,5.431,4.481c1.66,1.66,3.162,3.479,4.481,5.431c1.319,1.952,2.455,4.038,3.383,6.233
			c0.928,2.195,1.649,4.499,2.138,6.888"/>
		<path class="st3" d="M724.171,487.347c0.489-2.389,1.21-4.693,2.138-6.888c0.928-2.195,2.064-4.281,3.383-6.233
			c1.319-1.952,2.821-3.771,4.481-5.431c1.66-1.66,3.479-3.162,5.431-4.481c1.952-1.319,4.038-2.455,6.233-3.383
			c2.195-0.928,4.499-1.649,6.888-2.138"/>
		<path class="st3" d="M752.726,530.692c-2.389-0.489-4.693-1.21-6.888-2.138c-2.195-0.928-4.281-2.064-6.233-3.383
			c-1.952-1.319-3.771-2.821-5.431-4.481c-1.66-1.66-3.162-3.479-4.481-5.431c-1.319-1.952-2.455-4.038-3.383-6.233
			c-0.928-2.195-1.649-4.499-2.138-6.888"/>
		<path class="st3" d="M796.071,502.138c-0.489,2.389-1.21,4.693-2.138,6.888c-0.928,2.195-2.064,4.281-3.383,6.233
			c-1.319,1.952-2.821,3.771-4.481,5.431c-1.66,1.66-3.479,3.162-5.431,4.481c-1.952,1.319-4.038,2.455-6.233,3.383
			c-2.195,0.928-4.499,1.649-6.888,2.138"/>
	</g>
	<g>
		<polygon class="st4" points="760.121,494.742 772.333,489.684 784.565,470.299 784.565,470.299 760.121,494.742 		"/>
		<polygon class="st5" points="760.121,494.742 760.121,494.742 760.121,494.742 		"/>
		<polygon class="st5" points="760.121,494.742 799.252,494.742 772.333,489.684 772.333,489.684 760.121,494.742 		"/>
		<polygon class="st5" points="760.121,494.742 760.121,494.742 760.121,494.742 		"/>
		<polygon class="st4" points="760.121,494.742 772.333,499.801 799.252,494.742 760.121,494.742 		"/>
		<polygon class="st5" points="760.121,494.742 760.121,494.742 760.121,494.742 		"/>
		<polygon class="st5" points="760.121,494.742 760.121,494.742 760.121,494.742 		"/>
		<polygon class="st5" points="760.121,494.742 760.121,494.742 760.121,494.742 		"/>
		<polygon class="st5" points="760.121,494.742 760.121,494.742 760.121,494.742 		"/>
		<polygon class="st5" points="760.121,494.742 760.121,494.742 760.121,494.742 		"/>
		<polygon class="st5" points="760.121,494.742 760.121,494.742 760.121,494.742 		"/>
		<polygon class="st5" points="760.121,494.742 760.121,494.742 760.121,494.742 		"/>
		<polygon class="st5" points="760.121,494.742 760.121,494.742 760.121,494.742 		"/>
		<polygon class="st4" points="755.063,482.53 735.677,470.299 760.121,494.742 		"/>
		<polygon class="st4" points="755.063,506.954 755.063,506.954 760.121,533.873 760.121,494.742 		"/>
		<polygon class="st5" points="760.121,533.873 765.18,506.954 760.121,494.742 		"/>
		<polygon class="st5" points="760.121,494.742 735.678,519.186 735.677,519.186 755.063,506.954 760.121,494.742 		"/>
		<polygon class="st5" points="760.121,494.742 760.121,494.742 784.565,519.186 772.333,499.801 772.333,499.801 		"/>
		<polygon class="st4" points="760.121,494.742 765.18,506.954 765.18,506.954 784.565,519.186 760.121,494.742 		"/>
		<polygon class="st4" points="760.121,494.742 747.909,499.801 747.909,499.801 735.678,519.186 760.121,494.742 		"/>
		<polygon class="st5" points="760.121,494.742 720.99,494.742 747.909,499.801 760.121,494.742 		"/>
		<polygon class="st4" points="760.121,494.742 765.18,482.53 760.121,455.611 760.121,494.742 		"/>
		<polygon class="st5" points="760.121,494.742 760.121,455.611 755.063,482.53 755.063,482.53 760.121,494.742 		"/>
		<polygon class="st5" points="784.565,470.299 765.18,482.53 765.18,482.53 760.121,494.742 		"/>
		<polygon class="st5" points="760.121,494.742 735.677,470.299 747.909,489.684 760.121,494.742 		"/>
		<polygon class="st4" points="760.121,494.742 747.909,489.684 747.909,489.684 720.99,494.742 760.121,494.742 		"/>
	</g>
	<polygon class="st6" points="750.411,468.063 760.395,488.468 772.12,469.011 764.751,490.5 786.801,485.032 766.395,495.016 
		785.853,506.741 764.364,499.372 769.832,521.422 759.847,501.016 748.122,520.474 755.491,498.985 733.442,504.453 
		753.847,494.468 734.39,482.743 755.879,490.112 	"/>
	<radialGradient id="SVGID_3_" cx="759.933" cy="494.7659" r="14.8678" gradientUnits="userSpaceOnUse">
		<stop  offset="0" style="stop-color:#E3D3C0"/>
		<stop  offset="0.3383" style="stop-color:#E2D1BD"/>
		<stop  offset="0.5601" style="stop-color:#DECBB4"/>
		<stop  offset="0.7486" style="stop-color:#D7C0A5"/>
		<stop  offset="0.9174" style="stop-color:#CEB190"/>
		<stop  offset="1" style="stop-color:#C8A883"/>
	</radialGradient>
	<circle class="st7" cx="759.933" cy="494.766" r="14.868"/>
	<g>
		<path class="st8" d="M765.641,442.841c0,0.128-0.096,0.224-0.287,0.288c-0.152,0.056-0.301,0.084-0.444,0.084
			c-0.4,0-1.004-0.017-1.812-0.048c-0.792-0.049-1.388-0.072-1.787-0.072c-0.601,0-0.9,0.22-0.9,0.66
			c0,0.208,0.044,0.352,0.132,0.432c0.096,0.088,0.256,0.136,0.48,0.145c0.447,0.023,0.892,0.052,1.332,0.084
			c0.712,0.04,1.26,0.132,1.644,0.275c0.528,0.185,0.792,0.452,0.792,0.804c0,0.729-0.032,1.232-0.096,1.513
			c-0.064,0.128-0.124,0.315-0.181,0.563c0.185,0.24,0.276,0.42,0.276,0.54c0,0.208,0.008,0.517,0.024,0.924
			c0.023,0.393,0.035,0.692,0.035,0.9c0,1.072-0.552,1.608-1.655,1.608c-0.112,0-0.204-0.053-0.276-0.156
			c-0.064-0.104-0.096-0.216-0.096-0.336c0-0.152,0.111-0.252,0.336-0.3c0.352-0.08,0.56-0.141,0.624-0.181
			c0.216-0.128,0.324-0.363,0.324-0.708c0-0.168-0.013-0.416-0.036-0.744c-0.024-0.336-0.036-0.588-0.036-0.756
			s0.044-0.344,0.132-0.527c0.088-0.2,0.132-0.296,0.132-0.288c0-0.048-0.044-0.124-0.132-0.229c-0.08-0.12-0.124-0.216-0.132-0.288
			c-0.024-0.296-0.048-0.588-0.072-0.876c-0.032-0.327-0.116-0.563-0.252-0.708c-0.168-0.191-0.46-0.288-0.876-0.288
			c-0.32,0-0.58,0.116-0.78,0.349c-0.359,0.416-0.54,0.684-0.54,0.804c0,0.208,0.225,0.312,0.673,0.312c0.071,0,0.159,0,0.264,0
			c0.104-0.009,0.176-0.013,0.216-0.013c0.504,0,0.756,0.116,0.756,0.349c0,0.256-0.344,0.384-1.032,0.384
			c-0.128,0-0.308-0.004-0.54-0.012c-0.224-0.024-0.399-0.036-0.527-0.036c-0.272,0-0.477,0.048-0.612,0.144
			c-0.12,0.096-0.18,0.28-0.18,0.552c0,0.297,0.172,0.444,0.516,0.444c0.064,0,0.152-0.004,0.265-0.012
			c0.111-0.024,0.195-0.036,0.252-0.036c1.071,0,1.607,0.152,1.607,0.456c0,0.256-0.24,0.384-0.72,0.384
			c-0.145,0-0.353-0.004-0.624-0.012c-0.28-0.017-0.492-0.024-0.636-0.024c-0.4,0-0.601,0.156-0.601,0.468
			c0,0.057,0.004,0.152,0.013,0.288c0.023,0.128,0.035,0.232,0.035,0.312c0,0.376-0.012,0.607-0.035,0.696
			c-0.041,0.287-0.164,0.432-0.372,0.432c-0.312,0-0.469-0.269-0.469-0.804c0-0.112,0.008-0.269,0.024-0.469
			c0.008-0.208,0.012-0.344,0.012-0.407c0-0.425-0.208-0.637-0.624-0.637c-0.071,0-0.172,0.013-0.3,0.036
			c-0.136,0.017-0.236,0.024-0.3,0.024c-0.08,0-0.168-0.021-0.264-0.061c-0.089-0.056-0.145-0.084-0.169-0.084
			c-0.048,0-0.172,0.044-0.371,0.132c-0.209,0.08-0.368,0.12-0.48,0.12c-0.104,0-0.196-0.04-0.276-0.12
			c-0.08-0.079-0.119-0.172-0.119-0.275c0-0.12,0.084-0.216,0.252-0.288c0.128-0.064,0.26-0.096,0.396-0.096
			c0.145,0,0.264,0.048,0.36,0.144c0.111,0.088,0.195,0.132,0.252,0.132c0.031,0,0.084-0.036,0.156-0.107
			c0.071-0.057,0.115-0.088,0.132-0.097c0.159-0.079,0.472-0.12,0.936-0.12c0.272,0,0.408-0.18,0.408-0.539
			c0-0.296-0.132-0.477-0.396-0.54c-0.248-0.032-0.496-0.068-0.743-0.108c-0.049,0-0.112-0.028-0.192-0.084
			c-0.08-0.048-0.128-0.072-0.144-0.072l-0.265,0.168c-0.168,0.128-0.384,0.192-0.647,0.192c-0.345,0-0.517-0.112-0.517-0.336
			c0-0.312,0.14-0.468,0.42-0.468c0.032,0,0.092,0.004,0.181,0.012c0.079,0.016,0.144,0.016,0.191,0
			c0.097-0.008,0.216,0.023,0.36,0.096c0.144,0.072,0.235,0.108,0.276,0.108c0.104,0,0.207-0.04,0.312-0.12
			c0.104-0.088,0.156-0.184,0.156-0.288c0-0.168-0.116-0.396-0.349-0.684c-0.216-0.28-0.399-0.444-0.552-0.492
			c-0.136-0.032-0.26-0.048-0.372-0.048c-0.488,0-0.832,0.14-1.032,0.42c-0.144,0.224-0.216,0.588-0.216,1.092
			c0,0.184-0.044,0.312-0.132,0.384c-0.08,0.08-0.12,0.128-0.12,0.145c0,0.048,0.024,0.132,0.072,0.252
			c0.063,0.136,0.1,0.248,0.108,0.336c0.016,0.224,0.02,0.508,0.012,0.852c-0.017,0.488-0.024,0.764-0.024,0.828
			c0,0.152,0.008,0.372,0.024,0.66c0.023,0.28,0.036,0.492,0.036,0.636c0,0.576-0.152,0.864-0.456,0.864
			c-0.248,0-0.372-0.276-0.372-0.828c0-0.08-0.008-0.44-0.024-1.08c0-0.504,0-0.9,0-1.188c0.017-0.424,0.048-0.724,0.097-0.899
			c0.016-0.048,0.067-0.116,0.155-0.204c0.08-0.096,0.12-0.176,0.12-0.24c0-0.063-0.044-0.151-0.132-0.264
			c-0.096-0.12-0.144-0.204-0.144-0.252c0-0.72,0.052-1.188,0.155-1.404c0.185-0.408,0.641-0.664,1.368-0.768
			c0.601-0.064,1.204-0.124,1.812-0.181c0.607-0.088,0.911-0.312,0.911-0.672c0-0.088-0.023-0.172-0.071-0.252
			c-0.137-0.088-0.269-0.176-0.396-0.264c-0.08-0.032-0.235-0.048-0.468-0.048c-0.144,0-0.356,0.016-0.636,0.048
			c-0.265,0.023-0.468,0.036-0.612,0.036c-0.136,0-0.264-0.052-0.384-0.156c-0.104-0.096-0.192-0.144-0.264-0.144
			c-0.041,0-0.12,0.044-0.24,0.132c-0.12,0.08-0.204,0.124-0.252,0.132c-0.04,0.016-0.252,0.06-0.637,0.132
			c-0.376,0.048-0.596,0.072-0.659,0.072c-0.345,0-0.517-0.152-0.517-0.456c0-0.36,0.388-0.54,1.164-0.54c0.056,0,0.152,0,0.288,0
			c0.128,0.016,0.22,0.023,0.276,0.023c0.056,0,0.144,0.053,0.264,0.156c0.128,0.104,0.212,0.156,0.252,0.156
			c0.056,0,0.145-0.04,0.264-0.12c0.12-0.088,0.221-0.132,0.301-0.132c0.184,0,0.456-0.004,0.815-0.012
			c0.376-0.008,0.652-0.013,0.828-0.013c0.416,0,0.624-0.136,0.624-0.407c0-0.104-0.028-0.261-0.084-0.469
			c-0.04-0.208-0.06-0.363-0.06-0.468c0-0.128,0.048-0.24,0.144-0.336s0.216-0.144,0.36-0.144c0.151,0,0.3,0.048,0.443,0.144
			c0.16,0.096,0.24,0.216,0.24,0.36c0,0.008-0.048,0.107-0.144,0.3c-0.089,0.184-0.133,0.348-0.133,0.492
			c0,0.231,0.128,0.38,0.385,0.443c0.12,0.04,0.352,0.061,0.695,0.061c0.248,0,0.624-0.013,1.128-0.036
			c0.505-0.016,0.881-0.024,1.129-0.024C765.018,442.361,765.641,442.521,765.641,442.841z M761.31,445.325
			c0-0.247-0.333-0.371-0.996-0.371c-0.345,0-0.589,0.012-0.732,0.035c-0.304,0.064-0.456,0.209-0.456,0.433
			c0,0.208,0.068,0.443,0.204,0.708c0.16,0.304,0.344,0.456,0.552,0.456c0.256,0,0.44-0.032,0.552-0.097
			c0.137-0.048,0.269-0.184,0.396-0.407c0.096-0.112,0.204-0.236,0.324-0.372C761.257,445.573,761.31,445.445,761.31,445.325z"/>
	</g>
	<g>
		<path class="st8" d="M759.377,538.251c0,0.168-0.048,0.348-0.144,0.54c-0.072,0.184-0.108,0.292-0.108,0.324
			c0.128,0.584,0.192,1.151,0.192,1.703c0,0.097,0.004,0.24,0.012,0.433c0,0.184,0,0.32,0,0.408c0,0.6-0.044,0.983-0.132,1.151
			s-0.132,0.32-0.132,0.456c0,0.104,0.04,0.26,0.12,0.468c0.079,0.2,0.119,0.393,0.119,0.576c0,0.336-0.016,0.84-0.048,1.513
			c-0.04,0.664-0.06,1.163-0.06,1.5c0,0.119-0.044,0.224-0.132,0.312c-0.089,0.096-0.188,0.144-0.301,0.144
			c-0.176,0-0.287-0.128-0.336-0.384c0-0.023,0-0.22,0-0.588c0-0.336-0.004-0.523-0.012-0.563c-0.023-0.256-0.112-0.385-0.264-0.385
			c-0.088,0-0.288,0.089-0.601,0.265c-0.288,0.168-0.552,0.252-0.792,0.252c-0.04,0-0.096-0.004-0.168-0.013
			c-0.063-0.016-0.116-0.023-0.155-0.023c-0.024,0-0.068,0.08-0.133,0.24c-0.056,0.144-0.111,0.231-0.168,0.264
			c-0.288,0.216-0.536,0.324-0.743,0.324c-0.265,0-0.396-0.16-0.396-0.48c0-0.151,0.092-0.292,0.276-0.42
			c0.168-0.128,0.331-0.191,0.491-0.191c0.049,0,0.12,0.016,0.217,0.048c0.104,0.016,0.176,0.023,0.216,0.023l0.107-0.06
			c0.168-0.296,0.448-0.508,0.841-0.636c0.487-0.137,0.783-0.248,0.888-0.336c0.271-0.232,0.436-0.673,0.492-1.32
			c0.008-0.224,0.056-0.384,0.144-0.48c0.064-0.071,0.104-0.096,0.12-0.071c-0.16-0.137-0.244-0.288-0.252-0.456
			c0,0.023,0-0.152,0-0.528c0-0.32-0.168-0.48-0.504-0.48c-0.08,0-0.204,0.005-0.372,0.013s-0.292,0.012-0.372,0.012
			c-0.152,0-0.316-0.04-0.492-0.12s-0.271-0.12-0.288-0.12c-0.008,0-0.063,0.036-0.168,0.108c-0.088,0.072-0.147,0.107-0.18,0.107
			c-0.16,0.057-0.324,0.084-0.492,0.084c-0.448,0-0.672-0.155-0.672-0.468c0-0.128,0.1-0.231,0.3-0.312
			c0.16-0.048,0.32-0.072,0.48-0.072s0.3,0.044,0.42,0.132c0.128,0.088,0.212,0.132,0.252,0.132c0.08,0,0.168-0.036,0.264-0.107
			c0.112-0.08,0.192-0.124,0.24-0.132h0.468c0.568,0,0.916-0.133,1.044-0.396c0.08-0.151,0.12-0.548,0.12-1.188
			c0-0.049,0.024-0.133,0.072-0.252c0.048-0.112,0.072-0.181,0.072-0.204c0-0.032-0.005-0.053-0.013-0.061
			c-0.191-0.231-0.288-0.588-0.288-1.067c0-0.528,0.168-0.792,0.504-0.792c0.217,0,0.349,0.155,0.396,0.468
			C759.361,537.671,759.377,537.907,759.377,538.251z M765.545,546.339c-0.032,0.584-0.304,0.979-0.815,1.188
			c-0.336,0.145-0.845,0.217-1.524,0.217c-0.752,0-1.268-0.053-1.548-0.156c-0.521-0.185-0.78-0.58-0.78-1.188
			c0-0.888,0.064-1.491,0.192-1.812c0.023-0.056,0-0.132-0.072-0.229c-0.112-0.12-0.172-0.195-0.18-0.228
			c-0.04-0.168-0.061-1.648-0.061-4.44c0-0.12,0.028-0.22,0.084-0.3c0.072-0.08,0.108-0.144,0.108-0.191
			c0-0.089-0.044-0.284-0.132-0.589c-0.08-0.327-0.12-0.583-0.12-0.768c0-0.488,0.128-0.732,0.384-0.732
			c0.152,0,0.28,0.064,0.384,0.192c0.12,0.128,0.181,0.264,0.181,0.408c0,0.104-0.028,0.184-0.084,0.24
			c0.016,0.312,0.023,0.523,0.023,0.636c0,0.104-0.048,0.228-0.144,0.372c-0.089,0.136-0.132,0.252-0.132,0.348l0.155,0.204
			c0.112,0.12,0.168,0.248,0.168,0.384c0,0.08-0.016,0.196-0.048,0.349c-0.016,0.136-0.023,0.239-0.023,0.312
			c0,0.16,0.096,0.269,0.287,0.324c0.28,0.056,0.477,0.152,0.589,0.288c0.008,0.016,0.027,0.023,0.06,0.023s0.128-0.036,0.288-0.107
			c0.16-0.08,0.276-0.124,0.348-0.132c0.36-0.04,0.788-0.061,1.284-0.061s0.744,0.128,0.744,0.384c0,0.257-0.448,0.385-1.344,0.385
			c-0.145,0-0.305,0-0.48,0s-0.28,0-0.312,0c-0.064,0-0.132-0.028-0.204-0.084c-0.08-0.049-0.156-0.072-0.229-0.072
			c-0.056,0-0.144,0.023-0.264,0.072c-0.152,0.071-0.244,0.111-0.276,0.119c-0.248,0.072-0.403,0.393-0.468,0.96
			c-0.008,0.137-0.012,0.521-0.012,1.152c0,0.208-0.044,0.356-0.132,0.444c-0.089,0.08-0.132,0.144-0.132,0.191
			c0,0.12,0.056,0.232,0.168,0.336c0.127,0.097,0.191,0.196,0.191,0.301c0,0.088-0.016,0.228-0.048,0.42
			c-0.032,0.176-0.048,0.312-0.048,0.408c0,0.703,0.464,1.056,1.392,1.056c0.4,0,0.788-0.044,1.164-0.132
			c0.168-0.032,0.332-0.2,0.492-0.504c0.168-0.312,0.324-0.469,0.468-0.469c0.128,0,0.236,0.053,0.324,0.156
			C765.509,546.11,765.553,546.218,765.545,546.339z"/>
	</g>
	<g>
		<path class="st8" d="M814.102,491.299c0,0.168-0.119,0.252-0.359,0.252c-0.433,0-0.677-0.008-0.732-0.023
			c-0.144,0-0.355,0-0.636,0c-0.288-0.024-0.5-0.036-0.636-0.036c-0.561,0-0.933,0.02-1.116,0.06c-0.48,0.097-0.72,0.32-0.72,0.672
			c0,0.265,0.012,0.549,0.036,0.853c0.023,0.176,0.056,0.292,0.096,0.348c0.048,0.032,0.156,0.048,0.324,0.048
			c0.096,0,0.199,0.049,0.312,0.145c0.136,0.088,0.22,0.132,0.252,0.132c0.064,0,0.145-0.016,0.24-0.048
			c0.12-0.032,0.204-0.048,0.252-0.048c0.384,0,0.74,0.063,1.068,0.191c0.415,0.177,0.659,0.425,0.731,0.744
			c0.056,0.24,0.084,0.776,0.084,1.608c0,0.184,0,0.468,0,0.852c-0.008,0.36-0.012,0.641-0.012,0.84
			c0,0.104-0.017,0.261-0.048,0.469c-0.032,0.216-0.048,0.376-0.048,0.479c0,1.176-0.652,1.764-1.956,1.764
			c-0.265,0-0.668-0.012-1.212-0.035c-0.536-0.024-0.944-0.036-1.225-0.036c-0.104,0-0.264,0.008-0.479,0.023
			c-0.208,0.017-0.364,0.024-0.469,0.024c-0.279,0-0.691-0.008-1.235-0.024c-0.544-0.016-0.952-0.023-1.225-0.023
			c-0.168,0-0.363-0.064-0.588-0.192c-0.216-0.128-0.388-0.264-0.516-0.408c-0.208-0.231-0.336-0.592-0.384-1.08
			c-0.024-0.191-0.036-0.584-0.036-1.176c0-0.104-0.004-0.3-0.012-0.588c-0.009-0.271-0.013-0.488-0.013-0.648
			c0-0.743,0.084-1.308,0.252-1.691c0.232-0.528,0.648-0.792,1.248-0.792c0.048,0,0.128,0.02,0.24,0.06
			c0.104,0.024,0.188,0.036,0.252,0.036c0.056,0,0.14-0.031,0.252-0.096c0.104-0.064,0.176-0.1,0.216-0.108
			c0.561-0.111,0.84-0.332,0.84-0.66v-1.092c0-0.231-0.092-0.38-0.275-0.443c-0.088-0.032-0.272-0.049-0.552-0.049
			c-0.129,0-0.309-0.039-0.54-0.119c-0.225-0.08-0.393-0.12-0.504-0.12c-0.064,0-0.164,0.052-0.301,0.155
			c-0.151,0.089-0.264,0.137-0.336,0.145c-0.344,0.08-0.684,0.12-1.02,0.12c-0.376,0-0.564-0.12-0.564-0.36
			c0-0.144,0.104-0.276,0.312-0.396c0.184-0.104,0.355-0.156,0.516-0.156c0.088,0,0.216,0.008,0.384,0.023
			c0.168,0.009,0.292,0.013,0.372,0.013s0.192,0.023,0.336,0.071c0.137,0.049,0.232,0.072,0.288,0.072
			c0.097,0,0.224-0.036,0.384-0.107c0.168-0.072,0.288-0.116,0.36-0.133c0.4-0.071,1.364-0.107,2.892-0.107
			c0.009,0,0.093,0.008,0.253,0.023c0.127,0.009,0.207,0.009,0.239,0c0.536,0.017,1.756,0.024,3.66,0.024
			C813.75,490.747,814.102,490.932,814.102,491.299z M807.371,495.835c-0.216-0.192-0.305-0.504-0.264-0.936
			c-0.177-0.408-0.517-0.612-1.021-0.612c-0.048,0-0.1,0.028-0.156,0.084c-0.048,0.056-0.08,0.088-0.096,0.096
			c-0.072,0.048-0.188,0.08-0.348,0.097c-0.152,0.016-0.257,0.031-0.312,0.048c-0.376,0.136-0.563,0.74-0.563,1.812
			c0,0.216,0.027,0.372,0.084,0.468c0.079,0.112,0.228,0.168,0.443,0.168c0.473,0,0.889-0.119,1.248-0.359
			C806.619,496.547,806.947,496.259,807.371,495.835z M812.495,498.475c0-0.199-0.028-0.38-0.084-0.54
			c-0.28-0.144-0.744-0.224-1.393-0.239c-0.655-0.032-1.1-0.116-1.332-0.252c-0.376-0.225-0.563-0.656-0.563-1.296
			c0-0.152,0.032-0.269,0.096-0.349c0.056-0.08,0.084-0.132,0.084-0.156c0-0.056-0.028-0.123-0.084-0.203
			c-0.063-0.072-0.1-0.116-0.107-0.133c-0.04-0.079-0.061-0.191-0.061-0.336v-0.048c0-0.08-0.004-0.151-0.012-0.216
			c-0.112-0.176-0.192-0.276-0.24-0.3c-0.088-0.08-0.216-0.12-0.384-0.12c-0.296,0-0.477,0.14-0.54,0.42
			c-0.024,0.256-0.056,0.516-0.096,0.78c-0.017,0.08-0.08,0.191-0.192,0.336c0-0.008,0.024,0.044,0.072,0.156
			c0.063,0.119,0.096,0.235,0.096,0.348c0,0.104-0.08,0.256-0.24,0.456c-0.151,0.191-0.284,0.32-0.396,0.384
			c-0.408,0.216-0.876,0.408-1.404,0.576c-0.647,0.216-0.972,0.424-0.972,0.624c0,0.304,0.016,0.512,0.048,0.624
			c0.048,0.2,0.16,0.368,0.336,0.504c0.28,0.232,1.876,0.348,4.788,0.348c0.16,0,0.404-0.016,0.732-0.048
			c0.327-0.04,0.575-0.06,0.743-0.06C812.126,499.735,812.495,499.316,812.495,498.475z M809.195,492.283
			c0-0.28-0.084-0.492-0.252-0.636c-0.152-0.16-0.368-0.24-0.648-0.24c-0.256,0-0.408,0.3-0.456,0.899
			c-0.016,0.336-0.023,0.669-0.023,0.996c-0.009,0.248,0.228,0.372,0.708,0.372c0.312,0,0.516-0.168,0.611-0.504
			C809.174,492.995,809.195,492.699,809.195,492.283z M812.483,496.195l-0.013-1.032c0-0.312-0.147-0.536-0.443-0.672
			c-0.248-0.08-0.5-0.156-0.756-0.229c-0.041-0.023-0.097-0.063-0.169-0.12c-0.063-0.071-0.128-0.107-0.191-0.107
			c-0.04,0-0.084,0.023-0.132,0.072c-0.04,0.056-0.08,0.088-0.12,0.096c-0.248,0.04-0.5,0.076-0.756,0.108
			c-0.064,0.04-0.097,0.348-0.097,0.924c0,0.104-0.092,0.216-0.275,0.336c0.168,0.184,0.264,0.359,0.288,0.527
			c0.04,0.2,0.071,0.32,0.096,0.36c0.176,0.272,0.468,0.44,0.876,0.504c0.144,0.032,0.492,0.048,1.044,0.048
			c0.271,0,0.456-0.071,0.552-0.216C812.451,496.675,812.483,496.476,812.483,496.195z"/>
	</g>
	<g>
		<path class="st8" d="M717.751,499.495c0,0.144-0.04,0.264-0.119,0.36c-0.08,0.088-0.185,0.132-0.312,0.132
			c-0.616,0-1.14-0.176-1.572-0.528c-0.048-0.04-0.092-0.12-0.132-0.24c-0.04-0.096-0.092-0.151-0.156-0.168
			c-0.04-0.016-0.104-0.023-0.191-0.023h-0.12c-0.096,0-0.176-0.017-0.24-0.048c-0.216-0.072-0.592-0.292-1.128-0.66
			c-0.056-0.032-0.244-0.216-0.563-0.553c-0.28-0.296-0.461-0.443-0.54-0.443c-0.089,0-0.133,0.048-0.133,0.144
			c0.009-0.199,0.013-0.115,0.013,0.252c0,0.24-0.004,0.44-0.013,0.601c-0.016,0.16-0.063,0.28-0.144,0.359
			c-0.072,0.072-0.108,0.112-0.108,0.12c0,0.048,0.04,0.141,0.12,0.276c0.08,0.128,0.124,0.22,0.132,0.275
			c0.072,0.265,0.108,0.584,0.108,0.961c0,0.159-0.04,0.312-0.12,0.455c-0.088,0.177-0.208,0.265-0.359,0.265
			c-0.312,0-0.469-0.192-0.469-0.576c0-0.224,0.044-0.644,0.132-1.26c0.017-0.048,0.049-0.108,0.097-0.181
			c0.063-0.079,0.096-0.136,0.096-0.168c0-0.031-0.04-0.115-0.12-0.252c-0.063-0.151-0.096-0.283-0.096-0.396
			c0-0.072,0.008-0.168,0.023-0.288c0.024-0.136,0.036-0.24,0.036-0.312c0-0.119-0.04-0.18-0.12-0.18
			c-0.119,0-0.407,0.176-0.863,0.528c-0.473,0.352-0.784,0.527-0.937,0.527c-0.112,0-0.196-0.02-0.252-0.06
			c-0.04,0-0.067,0.052-0.084,0.156c-0.04,0.128-0.067,0.2-0.084,0.216c-0.168,0.2-0.552,0.46-1.151,0.78
			c-0.593,0.312-1.009,0.468-1.248,0.468c-0.12,0-0.225-0.044-0.312-0.132c-0.08-0.08-0.12-0.181-0.12-0.3v-0.049
			c0-0.128,0.145-0.26,0.433-0.396c0.071-0.04,0.403-0.18,0.996-0.42c0.407-0.168,0.724-0.324,0.947-0.468
			c0.152-0.112,0.304-0.168,0.456-0.168c0.056,0,0.097-0.028,0.12-0.084l0.084-0.181c0.344-0.24,0.76-0.544,1.248-0.912
			c0.024-0.023,0.036-0.044,0.036-0.06c0-0.112-0.232-0.168-0.696-0.168c-0.12,0-0.308,0.012-0.563,0.036
			c-0.248,0.023-0.44,0.036-0.576,0.036c-0.521,0-0.853-0.141-0.996-0.421c-0.096-0.176-0.145-0.544-0.145-1.104
			c0-0.072-0.008-0.188-0.023-0.348c-0.017-0.168-0.024-0.292-0.024-0.372c0-0.96,0.36-1.44,1.08-1.44
			c0.048,0,0.12,0.004,0.216,0.012c0.104,0.009,0.185,0.013,0.24,0.013c0.136,0,0.248,0.023,0.336,0.071l0.145,0.084
			c0.304-0.224,0.556-0.344,0.756-0.359c0.231-0.024,0.456-0.044,0.672-0.061c0.296-0.048,0.444-0.188,0.444-0.42
			c0-0.208-0.16-0.312-0.48-0.312c-0.072,0-0.16,0.008-0.264,0.023c-0.104,0.009-0.176,0.013-0.216,0.013
			c-0.057,0-0.148-0.013-0.276-0.036c-0.12-0.017-0.204-0.024-0.252-0.024c-0.08,0-0.192,0.017-0.336,0.048
			c-0.128,0.017-0.229,0.024-0.3,0.024c-0.08,0-0.2-0.024-0.36-0.072c-0.152-0.04-0.269-0.06-0.348-0.06
			c-0.064,0-0.16,0.044-0.288,0.132c-0.12,0.096-0.208,0.14-0.265,0.132c0.072,0.008-0.132,0.012-0.611,0.012
			c-0.448,0-0.672-0.132-0.672-0.396c0-0.288,0.235-0.432,0.708-0.432c0.04,0,0.104,0.004,0.191,0.012c0.088,0,0.152,0,0.192,0
			c0.199-0.008,0.352,0.032,0.456,0.12c0.12,0.088,0.188,0.132,0.204,0.132c0.056,0,0.228-0.076,0.516-0.229
			c0.112-0.016,0.676-0.023,1.692-0.023c0.479,0,0.72-0.176,0.72-0.528c0-0.248-0.028-0.392-0.084-0.432
			c0-0.128,0.036-0.252,0.108-0.372c0.079-0.12,0.184-0.18,0.312-0.18c0.32,0,0.48,0.136,0.48,0.407
			c0,0.017-0.017,0.104-0.049,0.265c-0.023,0.16-0.035,0.284-0.035,0.372c0,0.312,0.203,0.468,0.611,0.468
			c0.056,0,0.152-0.004,0.288-0.012c0.136-0.009,0.229-0.013,0.276-0.013c0.352,0,0.611,0.076,0.779,0.229
			c0.185-0.152,0.513-0.248,0.984-0.288c0.152-0.008,0.508-0.012,1.068-0.012c0.624,0,0.936,0.168,0.936,0.504
			c0,0.168-0.096,0.264-0.288,0.288c-0.048,0.008-0.204,0.012-0.468,0.012c-0.408,0-0.952-0.036-1.632-0.108
			c-0.08-0.008-0.185-0.044-0.312-0.107c-0.128-0.064-0.224-0.097-0.288-0.097c-0.136,0.185-0.352,0.276-0.647,0.276
			c-0.072,0-0.172-0.008-0.3-0.024c-0.145-0.031-0.252-0.048-0.324-0.048c-0.064,0-0.164,0.032-0.3,0.097
			c-0.2,0.08-0.309,0.124-0.324,0.132c-0.064,0.023-0.096,0.088-0.096,0.191c0,0.04,0.012,0.097,0.036,0.168
			c0.031,0.168,0.312,0.252,0.84,0.252c0.151,0,0.348-0.004,0.588-0.012c0.231-0.016,0.359-0.023,0.384-0.023
			c0.496,0,0.944,0.075,1.344,0.228c0.536,0.224,0.805,0.544,0.805,0.96c0,0.176-0.013,0.416-0.036,0.72
			c-0.024,0.353-0.04,0.593-0.048,0.721c-0.024,0.447-0.101,0.756-0.229,0.924c-0.16,0.216-0.472,0.324-0.936,0.324
			c-0.057,0-0.148-0.009-0.276-0.024c-0.12-0.016-0.212-0.024-0.276-0.024c-0.12,0-0.239-0.023-0.359-0.071
			c-0.112-0.064-0.192-0.097-0.24-0.097c-0.032,0-0.12,0.028-0.264,0.084c-0.152,0.049-0.252,0.076-0.301,0.084
			c-0.224,0.032-0.336,0.064-0.336,0.097c0,0.104,0.32,0.388,0.96,0.852c0.704,0.496,1.101,0.809,1.188,0.937
			c0.056,0.08,0.092,0.132,0.107,0.155c0.049,0.04,0.104,0.064,0.169,0.072h0.228c0.264,0,0.612,0.064,1.044,0.192
			C717.495,499.171,717.751,499.327,717.751,499.495z M711.787,495.583c0-0.312-0.651-0.468-1.956-0.468
			c-0.199,0-0.416,0.036-0.647,0.107c-0.296,0.097-0.444,0.221-0.444,0.372c0,0.345,0.34,0.517,1.021,0.517
			c0.104,0,0.239-0.004,0.407-0.013c0.177-0.008,0.288-0.012,0.337-0.012c0.079,0,0.191,0.008,0.336,0.024
			c0.151,0.008,0.264,0.012,0.336,0.012C711.583,496.123,711.787,495.943,711.787,495.583z M711.787,494.083
			c0-0.088-0.056-0.184-0.168-0.288c-0.12-0.128-0.224-0.191-0.312-0.191c-0.28,0-0.704-0.072-1.272-0.217
			c-0.048,0.072-0.132,0.16-0.252,0.265c-0.184,0.04-0.376,0.084-0.576,0.132c-0.248,0.088-0.372,0.216-0.372,0.384
			c0,0.088,0.12,0.168,0.36,0.24c0.192,0.04,0.356,0.06,0.492,0.06c-0.008,0,0.072,0.004,0.24,0.013
			c0.176,0.008,0.336,0.012,0.479,0.012C711.327,494.491,711.787,494.356,711.787,494.083z M715.628,494.179
			c0-0.352-0.396-0.544-1.188-0.575l-1.488-0.049c-0.112,0-0.231,0.061-0.359,0.181c-0.12,0.12-0.181,0.235-0.181,0.348
			c0,0.128,0.172,0.232,0.517,0.312c0.248,0.056,0.468,0.084,0.66,0.084c0.919,0.023,1.42,0.035,1.5,0.035
			C715.447,494.515,715.628,494.403,715.628,494.179z M715.64,495.571c0-0.288-0.328-0.433-0.984-0.433h-1.704
			c-0.071,0-0.168,0.061-0.288,0.181c-0.136,0.112-0.204,0.204-0.204,0.275c0,0.376,0.152,0.564,0.456,0.564
			c0.064,0,0.148-0.012,0.252-0.036c0.128-0.016,0.217-0.024,0.265-0.024c0.08,0,0.188,0.032,0.324,0.097
			c0.119,0.056,0.212,0.084,0.275,0.084c0.08,0,0.152-0.021,0.216-0.061c0.097-0.04,0.28-0.063,0.553-0.071
			c0.264-0.024,0.456-0.061,0.575-0.108C715.552,495.959,715.64,495.803,715.64,495.571z"/>
	</g>
</g>
</svg>
